<svg width="178" height="145" fill="none" xmlns="http://www.w3.org/2000/svg">
    <circle cx="89" cy="73" r="57" fill="#FFF0E6"/>
    <path d="M52.262 91.503h24.529a1 1 0 01.966 1.258l-12.874 48.046c-.298 1.111 1.21 1.764 1.816.785l44.506-71.79c1.239-1.998-.198-4.58-2.55-4.58H86.439a1 1 0 01-.966-1.259l14.634-54.615c.298-1.112-1.21-1.764-1.816-.786l-48.579 78.36c-1.239 1.999.199 4.58 2.55 4.58z" fill="#C4C4C4"/>
    <path d="M52.262 91.503h24.529a1 1 0 01.966 1.258l-12.874 48.046c-.298 1.111 1.21 1.764 1.816.785l44.506-71.79c1.239-1.998-.198-4.58-2.55-4.58H86.439a1 1 0 01-.966-1.259l14.634-54.615c.298-1.112-1.21-1.764-1.816-.786l-48.579 78.36c-1.239 1.999.199 4.58 2.55 4.58z" fill="url(#paint0_linear)"/>
    <path d="M126.746 48.152h11.151a1 1 0 01.966 1.258l-6.462 24.116c-.298 1.112 1.209 1.764 1.816.785l22.689-36.598c1.239-1.999-.198-4.58-2.55-4.58h-9.828a1 1 0 01-.966-1.26l7.467-27.87c.298-1.111-1.209-1.764-1.815-.785L124.197 43.57c-1.239 1.999.198 4.58 2.549 4.58z" fill="#C4C4C4"/>
    <path d="M126.746 48.152h11.151a1 1 0 01.966 1.258l-6.462 24.116c-.298 1.112 1.209 1.764 1.816.785l22.689-36.598c1.239-1.999-.198-4.58-2.55-4.58h-9.828a1 1 0 01-.966-1.26l7.467-27.87c.298-1.111-1.209-1.764-1.815-.785L124.197 43.57c-1.239 1.999.198 4.58 2.549 4.58z" fill="url(#paint1_linear)"/>
    <path d="M126.746 48.152h11.151a1 1 0 01.966 1.258l-6.462 24.116c-.298 1.112 1.209 1.764 1.816.785l22.689-36.598c1.239-1.999-.198-4.58-2.55-4.58h-9.828a1 1 0 01-.966-1.26l7.467-27.87c.298-1.111-1.209-1.764-1.815-.785L124.197 43.57c-1.239 1.999.198 4.58 2.549 4.58z" fill="url(#paint2_linear)"/>
    <path d="M34.093 45.257h4.713a1 1 0 01.966 1.259l-3.376 12.602c-.298 1.111 1.209 1.764 1.816.785l12.192-19.667c1.24-1.998-.198-4.58-2.55-4.58h-3.868a1 1 0 01-.966-1.26l4.02-15.002c.297-1.112-1.21-1.764-1.816-.786L31.543 40.676c-1.24 1.999.198 4.58 2.55 4.58z" fill="#C4C4C4"/>
    <path d="M34.093 45.257h4.713a1 1 0 01.966 1.259l-3.376 12.602c-.298 1.111 1.209 1.764 1.816.785l12.192-19.667c1.24-1.998-.198-4.58-2.55-4.58h-3.868a1 1 0 01-.966-1.26l4.02-15.002c.297-1.112-1.21-1.764-1.816-.786L31.543 40.676c-1.24 1.999.198 4.58 2.55 4.58z" fill="url(#paint3_linear)"/>
    <path d="M34.093 45.257h4.713a1 1 0 01.966 1.259l-3.376 12.602c-.298 1.111 1.209 1.764 1.816.785l12.192-19.667c1.24-1.998-.198-4.58-2.55-4.58h-3.868a1 1 0 01-.966-1.26l4.02-15.002c.297-1.112-1.21-1.764-1.816-.786L31.543 40.676c-1.24 1.999.198 4.58 2.55 4.58z" fill="url(#paint4_linear)"/>
    <path d="M104.093 125.257h4.713a1 1 0 01.966 1.259l-3.376 12.602c-.298 1.111 1.209 1.764 1.815.785l12.193-19.667c1.239-1.999-.198-4.581-2.55-4.581h-3.869a1 1 0 01-.965-1.259l4.019-15.002c.298-1.112-1.209-1.764-1.815-.786l-13.681 22.068c-1.239 1.999.198 4.581 2.55 4.581z" fill="#C4C4C4"/>
    <path d="M104.093 125.257h4.713a1 1 0 01.966 1.259l-3.376 12.602c-.298 1.111 1.209 1.764 1.815.785l12.193-19.667c1.239-1.999-.198-4.581-2.55-4.581h-3.869a1 1 0 01-.965-1.259l4.019-15.002c.298-1.112-1.209-1.764-1.815-.786l-13.681 22.068c-1.239 1.999.198 4.581 2.55 4.581z" fill="url(#paint5_linear)"/>
    <path d="M104.093 125.257h4.713a1 1 0 01.966 1.259l-3.376 12.602c-.298 1.111 1.209 1.764 1.815.785l12.193-19.667c1.239-1.999-.198-4.581-2.55-4.581h-3.869a1 1 0 01-.965-1.259l4.019-15.002c.298-1.112-1.209-1.764-1.815-.786l-13.681 22.068c-1.239 1.999.198 4.581 2.55 4.581z" fill="url(#paint6_linear)"/>
    <defs>
        <linearGradient id="paint0_linear" x1="100.782" y1="2.516" x2="62.051" y2="147.06" gradientUnits="userSpaceOnUse">
            <stop stop-color="#EAB085"/>
            <stop offset="1" stop-color="#D99665"/>
        </linearGradient>
        <linearGradient id="paint1_linear" x1="152.166" y1="-2.704" x2="130.031" y2="79.903" gradientUnits="userSpaceOnUse">
            <stop stop-color="#EAB085"/>
            <stop offset="1" stop-color="#D99665"/>
        </linearGradient>
        <linearGradient id="paint2_linear" x1="152.166" y1="-2.704" x2="130.031" y2="79.903" gradientUnits="userSpaceOnUse">
            <stop stop-color="#FFDEC6"/>
            <stop offset="1" stop-color="#EAB085"/>
        </linearGradient>
        <linearGradient id="paint3_linear" x1="48.398" y1="12.746" x2="34.248" y2="65.554" gradientUnits="userSpaceOnUse">
            <stop stop-color="#EAB085"/>
            <stop offset="1" stop-color="#D99665"/>
        </linearGradient>
        <linearGradient id="paint4_linear" x1="48.398" y1="12.746" x2="34.248" y2="65.554" gradientUnits="userSpaceOnUse">
            <stop stop-color="#FFDEC6"/>
            <stop offset="1" stop-color="#EAB085"/>
        </linearGradient>
        <linearGradient id="paint5_linear" x1="118.398" y1="92.746" x2="104.248" y2="145.554" gradientUnits="userSpaceOnUse">
            <stop stop-color="#EAB085"/>
            <stop offset="1" stop-color="#D99665"/>
        </linearGradient>
        <linearGradient id="paint6_linear" x1="118.398" y1="92.746" x2="104.248" y2="145.554" gradientUnits="userSpaceOnUse">
            <stop stop-color="#FFDEC6"/>
            <stop offset="1" stop-color="#EAB085"/>
        </linearGradient>
    </defs>
</svg>
