<svg width="178" height="145" fill="none" xmlns="http://www.w3.org/2000/svg">
    <circle cx="89" cy="73" r="57" fill="#FFF0E6"/>
    <circle cx="42" cy="84" r="28" fill="url(#paint0_linear)"/>
    <circle cx="37" cy="74" r="4" fill="#FFF0E5"/>
    <circle cx="56" cy="71" r="4" fill="#FFF0E5"/>
    <circle cx="128" cy="56" r="28" fill="#C4C4C4"/>
    <circle cx="128" cy="56" r="28" fill="url(#paint1_linear)"/>
    <path d="M137.354 45.26s-2.459-.284-5.365.176c-2.905.46-5.156 1.49-5.156 1.49a5.326 5.326 0 0110.521-1.665zM118.354 48.26s-2.459-.284-5.365.176c-2.905.46-5.156 1.49-5.156 1.49a5.326 5.326 0 0110.521-1.665z" fill="#FFF0E5"/>
    <path d="M64.72 86c0 8.837-7.164 16-16 16-6.053 0-11.321-3.36-14.04-8.318-1.326-2.42.516-5.101 3.226-5.618l23.568-4.498c1.637-.313 3.245.768 3.245 2.434z" fill="url(#paint2_linear)"/>
    <path d="M140.572 58.786c-.499 8.823-8.055 15.57-16.878 15.071-6.043-.341-11.112-3.994-13.547-9.097-1.187-2.49.803-5.064 3.538-5.427l23.785-3.16c1.651-.22 3.196.95 3.102 2.613z" fill="url(#paint3_linear)"/>
    <circle cx="45" cy="38" r="4" fill="#DD9D6E"/>
    <circle cx="94" cy="97" r="4" fill="#DD9D6E"/>
    <circle cx="57" cy="38" r="4" fill="#DD9D6E"/>
    <circle cx="106" cy="97" r="4" fill="#DD9D6E"/>
    <circle cx="69" cy="38" r="4" fill="#DD9D6E"/>
    <circle cx="118" cy="97" r="4" fill="#DD9D6E"/>
    <defs>
        <linearGradient id="paint0_linear" x1="42" y1="56" x2="42" y2="112" gradientUnits="userSpaceOnUse">
            <stop stop-color="#FFDEC6"/>
            <stop offset="1" stop-color="#EAB085"/>
        </linearGradient>
        <linearGradient id="paint1_linear" x1="128" y1="28" x2="128" y2="84" gradientUnits="userSpaceOnUse">
            <stop stop-color="#FFDEC6"/>
            <stop offset="1" stop-color="#EAB085"/>
        </linearGradient>
        <linearGradient id="paint2_linear" x1="48.86" y1="83" x2="48.86" y2="102" gradientUnits="userSpaceOnUse">
            <stop stop-color="#EAB085"/>
            <stop offset="1" stop-color="#D99665"/>
        </linearGradient>
        <linearGradient id="paint3_linear" x1="124.907" y1="54.895" x2="123.834" y2="73.865" gradientUnits="userSpaceOnUse">
            <stop stop-color="#EAB085"/>
            <stop offset="1" stop-color="#D99665"/>
        </linearGradient>
    </defs>
</svg>
