<svg width="178" height="145" fill="none" xmlns="http://www.w3.org/2000/svg">
    <circle cx="89" cy="73" r="57" fill="#FFF0E6"/>
    <rect x="66" y="82" width="92" height="29" rx="7" fill="url(#paint0_linear)"/>
    <path d="M149 91H75" stroke="url(#paint1_linear)" stroke-width="3" stroke-linecap="round" stroke-linejoin="round"/>
    <path d="M126 101H75" stroke="url(#paint2_linear)" stroke-width="3" stroke-linecap="round" stroke-linejoin="round"/>
    <rect x="66" y="36" width="92" height="39" rx="7" fill="url(#paint3_linear)"/>
    <path d="M110 46H75" stroke="url(#paint4_linear)" stroke-width="3" stroke-linecap="round" stroke-linejoin="round"/>
    <path d="M127 66H75" stroke="url(#paint5_linear)" stroke-width="3" stroke-linecap="round" stroke-linejoin="round"/>
    <path d="M149 56H75" stroke="url(#paint6_linear)" stroke-width="3" stroke-linecap="round" stroke-linejoin="round"/>
    <path d="M49.315 93a66.485 66.485 0 00-1.2-3.552L46.867 85.8h-12.96a165.684 165.684 0 01-1.296 3.648c-.416 1.216-.8 2.4-1.152 3.552h-7.776a592.014 592.014 0 013.552-9.936c1.12-3.04 2.208-5.904 3.264-8.592a443.364 443.364 0 013.168-7.632c1.056-2.432 2.144-4.8 3.264-7.104h7.152A247.363 247.363 0 0147.3 66.84c1.056 2.4 2.112 4.944 3.168 7.632a291.934 291.934 0 013.312 8.592c1.12 3.04 2.304 6.352 3.552 9.936h-8.016zM40.34 67.272c-.16.48-.4 1.136-.72 1.968l-1.104 2.88c-.416 1.088-.88 2.288-1.392 3.6-.48 1.312-.976 2.688-1.488 4.128h9.456a482.266 482.266 0 00-1.488-4.128 97.32 97.32 0 00-1.392-3.6l-1.104-2.88c-.32-.832-.576-1.488-.768-1.968z" fill="#000"/>
    <path d="M49.315 93a66.485 66.485 0 00-1.2-3.552L46.867 85.8h-12.96a165.684 165.684 0 01-1.296 3.648c-.416 1.216-.8 2.4-1.152 3.552h-7.776a592.014 592.014 0 013.552-9.936c1.12-3.04 2.208-5.904 3.264-8.592a443.364 443.364 0 013.168-7.632c1.056-2.432 2.144-4.8 3.264-7.104h7.152A247.363 247.363 0 0147.3 66.84c1.056 2.4 2.112 4.944 3.168 7.632a291.934 291.934 0 013.312 8.592c1.12 3.04 2.304 6.352 3.552 9.936h-8.016zM40.34 67.272c-.16.48-.4 1.136-.72 1.968l-1.104 2.88c-.416 1.088-.88 2.288-1.392 3.6-.48 1.312-.976 2.688-1.488 4.128h9.456a482.266 482.266 0 00-1.488-4.128 97.32 97.32 0 00-1.392-3.6l-1.104-2.88c-.32-.832-.576-1.488-.768-1.968z" fill="url(#paint7_linear)"/>
    <defs>
        <linearGradient id="paint0_linear" x1="112" y1="82" x2="112" y2="111" gradientUnits="userSpaceOnUse">
            <stop stop-color="#EAB085"/>
            <stop offset="1" stop-color="#D99665"/>
        </linearGradient>
        <linearGradient id="paint1_linear" x1="185.513" y1="16.5" x2="185.513" y2="112.5" gradientUnits="userSpaceOnUse">
            <stop stop-color="#FFDEC6"/>
            <stop offset="1" stop-color="#EAB085"/>
        </linearGradient>
        <linearGradient id="paint2_linear" x1="151.164" y1="26.5" x2="151.164" y2="122.5" gradientUnits="userSpaceOnUse">
            <stop stop-color="#FFDEC6"/>
            <stop offset="1" stop-color="#EAB085"/>
        </linearGradient>
        <linearGradient id="paint3_linear" x1="112" y1="36" x2="112" y2="75" gradientUnits="userSpaceOnUse">
            <stop stop-color="#EAB085"/>
            <stop offset="1" stop-color="#D99665"/>
        </linearGradient>
        <linearGradient id="paint4_linear" x1="127.27" y1="-28.5" x2="127.27" y2="67.5" gradientUnits="userSpaceOnUse">
            <stop stop-color="#FFDEC6"/>
            <stop offset="1" stop-color="#EAB085"/>
        </linearGradient>
        <linearGradient id="paint5_linear" x1="152.658" y1="-8.5" x2="152.658" y2="87.5" gradientUnits="userSpaceOnUse">
            <stop stop-color="#FFDEC6"/>
            <stop offset="1" stop-color="#EAB085"/>
        </linearGradient>
        <linearGradient id="paint6_linear" x1="185.513" y1="-18.5" x2="185.513" y2="77.5" gradientUnits="userSpaceOnUse">
            <stop stop-color="#FFDEC6"/>
            <stop offset="1" stop-color="#EAB085"/>
        </linearGradient>
        <linearGradient id="paint7_linear" x1="40.5" y1="44" x2="40.5" y2="106" gradientUnits="userSpaceOnUse">
            <stop stop-color="#FFDEC6"/>
            <stop offset="1" stop-color="#EAB085"/>
        </linearGradient>
    </defs>
</svg>
