<svg width="178" height="145" fill="none" xmlns="http://www.w3.org/2000/svg">
    <circle cx="89" cy="73" r="57" fill="#FFF0E6"/>
    <g clip-path="url(#clip0)">
        <path fill="#fff" d="M84.941 19l53.81 11.709-12.94 59.475L72 78.475z"/>
        <path transform="rotate(12.275 84.94 19)" fill="url(#paint0_linear)" d="M84.941 19h55.07v60.867h-55.07z"/>
        <path fill="#818181" d="M87.717 22.906l46.886 10.202-9.137 41.99-46.885-10.202z"/>
        <path transform="rotate(12.275 87.717 22.906)" fill="url(#paint1_linear)" d="M87.717 22.906H135.7v42.973H87.717z"/>
    </g>
    <g clip-path="url(#clip1)">
        <path fill="#fff" d="M43 61.41L79.366 48l14.822 40.194-36.366 13.41z"/>
        <path transform="rotate(-20.241 43 61.41)" fill="url(#paint2_linear)" d="M43 61.41h38.76v42.84H43z"/>
        <path fill="#818181" d="M46.126 62.678l31.687-11.684 10.464 28.378L56.59 91.056z"/>
        <path transform="rotate(-20.241 46.126 62.678)" fill="url(#paint3_linear)" d="M46.126 62.678h33.772v30.246H46.126z"/>
    </g>
    <g clip-path="url(#clip2)">
        <path fill="#fff" d="M74.08 78l30.712 2.787-3.08 33.944L71 111.945z"/>
        <path transform="rotate(5.185 74.08 78)" fill="url(#paint4_linear)" d="M74.08 78h30.838v34.084H74.08z"/>
        <path fill="#818181" d="M75.893 79.979l26.76 2.428-2.175 23.966-26.76-2.428z"/>
        <path transform="rotate(5.185 75.893 79.979)" fill="url(#paint5_linear)" d="M75.893 79.979h26.87v24.064h-26.87z"/>
    </g>
    <defs>
        <linearGradient id="paint0_linear" x1="112.476" y1="19" x2="112.476" y2="79.867" gradientUnits="userSpaceOnUse">
            <stop stop-color="#FFDEC6"/>
            <stop offset="1" stop-color="#EAB085"/>
        </linearGradient>
        <linearGradient id="paint1_linear" x1="111.709" y1="22.906" x2="111.709" y2="65.879" gradientUnits="userSpaceOnUse">
            <stop stop-color="#EAB085"/>
            <stop offset="1" stop-color="#D99665"/>
        </linearGradient>
        <linearGradient id="paint2_linear" x1="62.38" y1="61.41" x2="62.38" y2="104.249" gradientUnits="userSpaceOnUse">
            <stop stop-color="#FFDEC6"/>
            <stop offset="1" stop-color="#EAB085"/>
        </linearGradient>
        <linearGradient id="paint3_linear" x1="63.011" y1="62.678" x2="63.011" y2="92.923" gradientUnits="userSpaceOnUse">
            <stop stop-color="#EAB085"/>
            <stop offset="1" stop-color="#D99665"/>
        </linearGradient>
        <linearGradient id="paint4_linear" x1="89.499" y1="78" x2="89.499" y2="112.084" gradientUnits="userSpaceOnUse">
            <stop stop-color="#FFDEC6"/>
            <stop offset="1" stop-color="#EAB085"/>
        </linearGradient>
        <linearGradient id="paint5_linear" x1="89.328" y1="79.979" x2="89.328" y2="104.043" gradientUnits="userSpaceOnUse">
            <stop stop-color="#EAB085"/>
            <stop offset="1" stop-color="#D99665"/>
        </linearGradient>
        <clipPath id="clip0">
            <rect x="84.941" y="19" width="55.07" height="60.867" rx="2" transform="rotate(12.275 84.94 19)" fill="#fff"/>
        </clipPath>
        <clipPath id="clip1">
            <rect x="43" y="61.41" width="38.76" height="42.84" rx="2" transform="rotate(-20.241 43 61.41)" fill="#fff"/>
        </clipPath>
        <clipPath id="clip2">
            <rect x="74.08" y="78" width="30.838" height="34.084" rx="2" transform="rotate(5.185 74.08 78)" fill="#fff"/>
        </clipPath>
    </defs>
</svg>
