<svg width="178" height="145" fill="none" xmlns="http://www.w3.org/2000/svg">
    <circle cx="89" cy="73" r="57" fill="#FFF0E6"/>
    <rect x="23.443" y="68.349" width="123" height="44" rx="3" transform="rotate(-15 23.443 68.35)" fill="url(#paint0_linear)"/>
    <path d="M53.873 90.428c-.848.213-1.561.307-2.139.28-.565-.03-1.043-.152-1.435-.367a2.635 2.635 0 01-.921-.944 6.703 6.703 0 01-.553-1.439l-3.023-11.282 2.778-1.246 2.992 11.166c.07.26.152.488.246.685.095.198.213.354.356.47.155.11.349.184.58.22.233.035.528.018.886-.05l.233 2.507zm10.23-8.464c.216.805.297 1.577.244 2.315a5.094 5.094 0 01-.553 1.987 4.763 4.763 0 01-1.306 1.52c-.54.423-1.195.737-1.961.942-.754.202-1.477.257-2.17.164a4.812 4.812 0 01-1.87-.668 5.353 5.353 0 01-1.493-1.438 6.655 6.655 0 01-.966-2.123c-.215-.805-.289-1.572-.22-2.3a5.386 5.386 0 01.599-1.978c.329-.59.764-1.096 1.305-1.52a5.4 5.4 0 011.922-.932c.74-.199 1.451-.25 2.131-.154a4.764 4.764 0 011.89.664c.567.349 1.063.822 1.488 1.418.424.597.744 1.297.96 2.103zm-2.962.794c-.24-.897-.61-1.55-1.11-1.959-.49-.425-1.066-.55-1.728-.372-.663.178-1.106.575-1.331 1.192-.228.604-.222 1.354.018 2.25.24.897.614 1.563 1.12 1.998.503.422 1.086.545 1.748.367.663-.177 1.1-.573 1.312-1.187.22-.63.211-1.393-.03-2.29zm11.02-3.747a78.441 78.441 0 01-.05 3.167 98.244 98.244 0 01-.127 3.188l-2.26.606a38.304 38.304 0 01-1.282-1.745c-.475-.68-.98-1.423-1.516-2.226-.526-.82-1.077-1.681-1.653-2.585a210.89 210.89 0 01-1.686-2.786l3.059-.82c.23.44.477.924.744 1.451.276.511.557 1.041.844 1.591.3.546.6 1.1.903 1.658.313.543.62 1.067.922 1.57a58.87 58.87 0 00.018-1.884c.008-.643.008-1.269-.003-1.879 0-.626-.007-1.223-.02-1.79a43.407 43.407 0 00-.037-1.62l2.105-.564c.229.44.481.915.758 1.426l.858 1.566c.296.534.602 1.078.918 1.634.316.556.635 1.097.957 1.623.01-.587.014-1.194.013-1.82-.004-.64-.02-1.269-.046-1.888a62.707 62.707 0 00-.064-1.8c-.02-.594-.04-1.138-.062-1.633l3.02-.81c-.014 1.09-.043 2.177-.087 3.26-.034 1.068-.08 2.09-.14 3.067-.048.96-.115 1.855-.199 2.684-.07.827-.15 1.544-.237 2.153l-2.261.605c-.59-.9-1.17-1.795-1.743-2.686a60.623 60.623 0 01-1.646-2.713zm20.518-4.6c-.24-.896-.633-1.556-1.178-1.981-.55-.438-1.22-.55-2.013-.338a6.4 6.4 0 00-.71.232c-.218.072-.394.14-.53.204l1.404 5.242c.214.069.474.103.78.105.32-.002.63-.043.928-.124 1.377-.369 1.817-1.482 1.319-3.34zm2.941-.871c.212.792.308 1.54.287 2.241a5.037 5.037 0 01-.408 1.906 4.006 4.006 0 01-1.11 1.467c-.49.41-1.098.712-1.825.907a5.386 5.386 0 01-2.264.126l1.034 3.858-2.904.778-3.618-13.504c.239-.148.519-.3.839-.455.317-.168.65-.327 1-.476.363-.153.729-.293 1.099-.42.38-.144.744-.262 1.095-.356.844-.227 1.633-.298 2.365-.216.728.07 1.383.277 1.963.623.576.332 1.07.799 1.481 1.399.425.596.747 1.303.966 2.122zm7.725-4.806c-.277.005-.6.022-.968.05a5.389 5.389 0 00-1.162.186 4.772 4.772 0 00-.647.236c-.24.093-.419.175-.539.25l2.099 7.833-2.903.778-2.6-9.704c.47-.322 1.036-.654 1.695-.998.67-.36 1.44-.657 2.31-.89.156-.042.348-.08.576-.113.224-.046.452-.079.683-.1a6.13 6.13 0 01.694-.06c.231-.02.433-.019.607.005l.155 2.527zm7.004 6.352l-2.903.778-2.747-10.25 2.904-.778 2.746 10.25zm-3.267-13.285c.143.533.08 1.002-.187 1.408-.258.389-.62.646-1.088.772a1.9 1.9 0 01-1.348-.12c-.421-.22-.703-.598-.846-1.13-.142-.533-.085-.994.173-1.383a1.851 1.851 0 011.102-.797 1.782 1.782 0 011.334.144c.43.205.717.574.86 1.106zm4.136 7.56a6.33 6.33 0 01-.208-2.18 5.174 5.174 0 01.593-1.996 5.075 5.075 0 011.343-1.614c.573-.46 1.275-.8 2.107-1.023a6.969 6.969 0 011.542-.247 7.05 7.05 0 011.435.055l.017 2.48a7.585 7.585 0 00-.97-.032c-.345.009-.72.067-1.122.175-.858.23-1.429.669-1.715 1.316-.273.644-.293 1.401-.06 2.272.247.922.633 1.584 1.159 1.987.538.398 1.301.465 2.289.2.35-.093.718-.227 1.104-.4a4.997 4.997 0 001.027-.609l1.046 2.268a7.02 7.02 0 01-1.167.71 8.668 8.668 0 01-1.634.605c-.936.25-1.778.33-2.526.238-.752-.105-1.414-.339-1.984-.701a4.793 4.793 0 01-1.409-1.44 7.802 7.802 0 01-.867-2.065zm9.269-2.4c-.243-.91-.319-1.74-.227-2.488.101-.765.318-1.436.651-2.012.333-.577.76-1.06 1.282-1.45a5.16 5.16 0 011.738-.842c1.455-.39 2.725-.25 3.809.42 1.081.657 1.853 1.85 2.316 3.578.046.168.09.358.132.57.039.198.073.377.102.536l-6.586 1.765c.225.58.631.98 1.219 1.198.588.219 1.297.216 2.129-.006a9.132 9.132 0 001.522-.554c.492-.243.881-.48 1.167-.71l1.022 2.253c-.135.12-.322.254-.561.401a7.06 7.06 0 01-.825.43 10.76 10.76 0 01-.971.428 10.66 10.66 0 01-1.076.35c-.922.248-1.764.327-2.526.239-.748-.092-1.413-.31-1.993-.657a4.889 4.889 0 01-1.448-1.429 7.112 7.112 0 01-.876-2.02zm6.523-2.939a2.8 2.8 0 00-.33-.685 1.652 1.652 0 00-.498-.534 1.693 1.693 0 00-.685-.297c-.252-.058-.547-.041-.885.05-.325.086-.588.22-.791.399a1.696 1.696 0 00-.47.585 2.167 2.167 0 00-.198.743 4.7 4.7 0 00.018.768l3.839-1.029z" fill="#000"/>
    <path d="M53.873 90.428c-.848.213-1.561.307-2.139.28-.565-.03-1.043-.152-1.435-.367a2.635 2.635 0 01-.921-.944 6.703 6.703 0 01-.553-1.439l-3.023-11.282 2.778-1.246 2.992 11.166c.07.26.152.488.246.685.095.198.213.354.356.47.155.11.349.184.58.22.233.035.528.018.886-.05l.233 2.507zm10.23-8.464c.216.805.297 1.577.244 2.315a5.094 5.094 0 01-.553 1.987 4.763 4.763 0 01-1.306 1.52c-.54.423-1.195.737-1.961.942-.754.202-1.477.257-2.17.164a4.812 4.812 0 01-1.87-.668 5.353 5.353 0 01-1.493-1.438 6.655 6.655 0 01-.966-2.123c-.215-.805-.289-1.572-.22-2.3a5.386 5.386 0 01.599-1.978c.329-.59.764-1.096 1.305-1.52a5.4 5.4 0 011.922-.932c.74-.199 1.451-.25 2.131-.154a4.764 4.764 0 011.89.664c.567.349 1.063.822 1.488 1.418.424.597.744 1.297.96 2.103zm-2.962.794c-.24-.897-.61-1.55-1.11-1.959-.49-.425-1.066-.55-1.728-.372-.663.178-1.106.575-1.331 1.192-.228.604-.222 1.354.018 2.25.24.897.614 1.563 1.12 1.998.503.422 1.086.545 1.748.367.663-.177 1.1-.573 1.312-1.187.22-.63.211-1.393-.03-2.29zm11.02-3.747a78.441 78.441 0 01-.05 3.167 98.244 98.244 0 01-.127 3.188l-2.26.606a38.304 38.304 0 01-1.282-1.745c-.475-.68-.98-1.423-1.516-2.226-.526-.82-1.077-1.681-1.653-2.585a210.89 210.89 0 01-1.686-2.786l3.059-.82c.23.44.477.924.744 1.451.276.511.557 1.041.844 1.591.3.546.6 1.1.903 1.658.313.543.62 1.067.922 1.57a58.87 58.87 0 00.018-1.884c.008-.643.008-1.269-.003-1.879 0-.626-.007-1.223-.02-1.79a43.407 43.407 0 00-.037-1.62l2.105-.564c.229.44.481.915.758 1.426l.858 1.566c.296.534.602 1.078.918 1.634.316.556.635 1.097.957 1.623.01-.587.014-1.194.013-1.82-.004-.64-.02-1.269-.046-1.888a62.707 62.707 0 00-.064-1.8c-.02-.594-.04-1.138-.062-1.633l3.02-.81c-.014 1.09-.043 2.177-.087 3.26-.034 1.068-.08 2.09-.14 3.067-.048.96-.115 1.855-.199 2.684-.07.827-.15 1.544-.237 2.153l-2.261.605c-.59-.9-1.17-1.795-1.743-2.686a60.623 60.623 0 01-1.646-2.713zm20.518-4.6c-.24-.896-.633-1.556-1.178-1.981-.55-.438-1.22-.55-2.013-.338a6.4 6.4 0 00-.71.232c-.218.072-.394.14-.53.204l1.404 5.242c.214.069.474.103.78.105.32-.002.63-.043.928-.124 1.377-.369 1.817-1.482 1.319-3.34zm2.941-.871c.212.792.308 1.54.287 2.241a5.037 5.037 0 01-.408 1.906 4.006 4.006 0 01-1.11 1.467c-.49.41-1.098.712-1.825.907a5.386 5.386 0 01-2.264.126l1.034 3.858-2.904.778-3.618-13.504c.239-.148.519-.3.839-.455.317-.168.65-.327 1-.476.363-.153.729-.293 1.099-.42.38-.144.744-.262 1.095-.356.844-.227 1.633-.298 2.365-.216.728.07 1.383.277 1.963.623.576.332 1.07.799 1.481 1.399.425.596.747 1.303.966 2.122zm7.725-4.806c-.277.005-.6.022-.968.05a5.389 5.389 0 00-1.162.186 4.772 4.772 0 00-.647.236c-.24.093-.419.175-.539.25l2.099 7.833-2.903.778-2.6-9.704c.47-.322 1.036-.654 1.695-.998.67-.36 1.44-.657 2.31-.89.156-.042.348-.08.576-.113.224-.046.452-.079.683-.1a6.13 6.13 0 01.694-.06c.231-.02.433-.019.607.005l.155 2.527zm7.004 6.352l-2.903.778-2.747-10.25 2.904-.778 2.746 10.25zm-3.267-13.285c.143.533.08 1.002-.187 1.408-.258.389-.62.646-1.088.772a1.9 1.9 0 01-1.348-.12c-.421-.22-.703-.598-.846-1.13-.142-.533-.085-.994.173-1.383a1.851 1.851 0 011.102-.797 1.782 1.782 0 011.334.144c.43.205.717.574.86 1.106zm4.136 7.56a6.33 6.33 0 01-.208-2.18 5.174 5.174 0 01.593-1.996 5.075 5.075 0 011.343-1.614c.573-.46 1.275-.8 2.107-1.023a6.969 6.969 0 011.542-.247 7.05 7.05 0 011.435.055l.017 2.48a7.585 7.585 0 00-.97-.032c-.345.009-.72.067-1.122.175-.858.23-1.429.669-1.715 1.316-.273.644-.293 1.401-.06 2.272.247.922.633 1.584 1.159 1.987.538.398 1.301.465 2.289.2.35-.093.718-.227 1.104-.4a4.997 4.997 0 001.027-.609l1.046 2.268a7.02 7.02 0 01-1.167.71 8.668 8.668 0 01-1.634.605c-.936.25-1.778.33-2.526.238-.752-.105-1.414-.339-1.984-.701a4.793 4.793 0 01-1.409-1.44 7.802 7.802 0 01-.867-2.065zm9.269-2.4c-.243-.91-.319-1.74-.227-2.488.101-.765.318-1.436.651-2.012.333-.577.76-1.06 1.282-1.45a5.16 5.16 0 011.738-.842c1.455-.39 2.725-.25 3.809.42 1.081.657 1.853 1.85 2.316 3.578.046.168.09.358.132.57.039.198.073.377.102.536l-6.586 1.765c.225.58.631.98 1.219 1.198.588.219 1.297.216 2.129-.006a9.132 9.132 0 001.522-.554c.492-.243.881-.48 1.167-.71l1.022 2.253c-.135.12-.322.254-.561.401a7.06 7.06 0 01-.825.43 10.76 10.76 0 01-.971.428 10.66 10.66 0 01-1.076.35c-.922.248-1.764.327-2.526.239-.748-.092-1.413-.31-1.993-.657a4.889 4.889 0 01-1.448-1.429 7.112 7.112 0 01-.876-2.02zm6.523-2.939a2.8 2.8 0 00-.33-.685 1.652 1.652 0 00-.498-.534 1.693 1.693 0 00-.685-.297c-.252-.058-.547-.041-.885.05-.325.086-.588.22-.791.399a1.696 1.696 0 00-.47.585 2.167 2.167 0 00-.198.743 4.7 4.7 0 00.018.768l3.839-1.029z" fill="url(#paint1_linear)"/>
    <rect x="23.443" y="68.349" width="123" height="44" rx="3" transform="rotate(-15 23.443 68.35)" stroke="url(#paint2_linear)" stroke-width="4"/>
    <circle cx="80" cy="102" r="9" fill="#C4C4C4"/>
    <circle cx="80" cy="102" r="9" fill="url(#paint3_linear)"/>
    <circle cx="119" cy="103" r="6" fill="#C4C4C4"/>
    <circle cx="119" cy="103" r="6" fill="url(#paint4_linear)"/>
    <circle cx="110" cy="31" r="6" fill="#C4C4C4"/>
    <circle cx="110" cy="31" r="6" fill="url(#paint5_linear)"/>
    <circle cx="53.5" cy="35.5" r="10.5" fill="#C4C4C4"/>
    <circle cx="53.5" cy="35.5" r="10.5" fill="url(#paint6_linear)"/>
    <defs>
        <linearGradient id="paint0_linear" x1="84.943" y1="68.349" x2="84.943" y2="112.349" gradientUnits="userSpaceOnUse">
            <stop stop-color="#EAB085"/>
            <stop offset="1" stop-color="#D99665"/>
        </linearGradient>
        <linearGradient id="paint1_linear" x1="85.177" y1="61.125" x2="91.906" y2="86.24" gradientUnits="userSpaceOnUse">
            <stop stop-color="#FFDEC6"/>
            <stop offset="1" stop-color="#EAB085"/>
        </linearGradient>
        <linearGradient id="paint2_linear" x1="84.943" y1="68.349" x2="84.943" y2="112.349" gradientUnits="userSpaceOnUse">
            <stop stop-color="#EAB085"/>
            <stop offset="1" stop-color="#D99665"/>
        </linearGradient>
        <linearGradient id="paint3_linear" x1="80" y1="93" x2="80" y2="111" gradientUnits="userSpaceOnUse">
            <stop stop-color="#FFDEC6"/>
            <stop offset="1" stop-color="#EAB085"/>
        </linearGradient>
        <linearGradient id="paint4_linear" x1="119" y1="97" x2="119" y2="109" gradientUnits="userSpaceOnUse">
            <stop stop-color="#FFDEC6"/>
            <stop offset="1" stop-color="#EAB085"/>
        </linearGradient>
        <linearGradient id="paint5_linear" x1="110" y1="25" x2="110" y2="37" gradientUnits="userSpaceOnUse">
            <stop stop-color="#FFDEC6"/>
            <stop offset="1" stop-color="#EAB085"/>
        </linearGradient>
        <linearGradient id="paint6_linear" x1="53.5" y1="25" x2="53.5" y2="46" gradientUnits="userSpaceOnUse">
            <stop stop-color="#FFDEC6"/>
            <stop offset="1" stop-color="#EAB085"/>
        </linearGradient>
    </defs>
</svg>
