<svg width="12" height="15" fill="none" xmlns="http://www.w3.org/2000/svg">
    <path d="M9 0H3a1 1 0 00-1 1v13a1 1 0 001 1h6a1 1 0 001-1V1a1 1 0 00-1-1z" fill="url(#paint0_linear)"/>
    <path d="M9 .5H3a.5.5 0 00-.5.5v13a.5.5 0 00.5.5h6a.5.5 0 00.5-.5V1A.5.5 0 009 .5z" fill="url(#paint1_linear)"/>
    <path d="M9 .5H3a.5.5 0 00-.5.5v13a.5.5 0 00.5.5h6a.5.5 0 00.5-.5V1A.5.5 0 009 .5z" fill="url(#paint2_linear)"/>
    <path fill-rule="evenodd" clip-rule="evenodd" d="M11.2 3a.2.2 0 10-.4 0v2a.2.2 0 10.4 0V3zm-10 6a.2.2 0 00-.4 0v2a.2.2 0 10.4 0V9z" fill="#F99853"/>
    <path fill-rule="evenodd" clip-rule="evenodd" d="M11.2 3a.2.2 0 10-.4 0v2a.2.2 0 10.4 0V3zm-10 6a.2.2 0 00-.4 0v2a.2.2 0 10.4 0V9z" fill="url(#paint3_linear)"/>
    <defs>
        <linearGradient id="paint0_linear" x1="6.255" y1="0" x2="6.255" y2="15" gradientUnits="userSpaceOnUse">
            <stop stop-color="#EAB085"/>
            <stop offset="1" stop-color="#D99665"/>
        </linearGradient>
        <linearGradient id="paint1_linear" x1="6.191" y1="1" x2="6.191" y2="14" gradientUnits="userSpaceOnUse">
            <stop stop-color="#EAB085"/>
            <stop offset="1" stop-color="#D99665"/>
        </linearGradient>
        <linearGradient id="paint2_linear" x1="6.302" y1="1.194" x2="6.302" y2="14.194" gradientUnits="userSpaceOnUse">
            <stop stop-color="#FFDEC6"/>
            <stop offset="1" stop-color="#EAB085"/>
        </linearGradient>
        <linearGradient id="paint3_linear" x1="6.331" y1="2.8" x2="6.331" y2="11.2" gradientUnits="userSpaceOnUse">
            <stop stop-color="#EAB085"/>
            <stop offset="1" stop-color="#D99665"/>
        </linearGradient>
    </defs>
</svg>
