<svg width="18" height="10" fill="none" xmlns="http://www.w3.org/2000/svg">
    <path d="M2.082 0h13.801c.422 0 .828.16 1.137.447.306.285.48.684.48 1.103v6.954c0 .404-.168.79-.464 1.065A1.61 1.61 0 0115.94 10H2.004c-.37 0-.727-.14-.998-.392C.683 9.308.5 8.887.5 8.446V1.584A1.586 1.586 0 012.082 0z" fill="url(#paint0_linear)"/>
    <path d="M6.703 5.108L1.006.417A1.587 1.587 0 012.077 0h13.811c.419 0 .823.157 1.132.44l-5.723 4.668a3.614 3.614 0 01-4.594 0z" fill="url(#paint1_linear)"/>
    <defs>
        <linearGradient id="paint0_linear" x1="9.542" y1="0" x2="9.542" y2="10" gradientUnits="userSpaceOnUse">
            <stop stop-color="#EAB085"/>
            <stop offset="1" stop-color="#D99665"/>
        </linearGradient>
        <linearGradient id="paint1_linear" x1="9.855" y1=".104" x2="9.855" y2="7.104" gradientUnits="userSpaceOnUse">
            <stop stop-color="#FFDEC6"/>
            <stop offset="1" stop-color="#EAB085"/>
        </linearGradient>
    </defs>
</svg>
