<svg width="501" height="558" fill="none" xmlns="http://www.w3.org/2000/svg">
    <path d="M261.411 501.768c9.726 5.592 19.849 7.872 30.704 10.205 2.676 1.606 1.894.439 4.374 1.679 1.835.918 2.578 1.789 4.881 1.878 9.522.366 19.121.022 28.65.022 16.031 0 31.691-1.597 47.623-3.402 13.295-1.506 27.328-2.306 40.158-6.317 7.912-2.474 15.288-6.533 20.587-13.033 5.348-6.56 8.241-14.357 7.709-22.818-.43-6.822-2.492-13.2-4.506-19.681-2.163-6.958-4.938-13.588-8.637-19.88-4.874-8.292-11.55-15.223-17.185-22.972-7.321-10.067-13.722-20.525-22.575-29.379-4.607-4.607-9.887-8.19-14.8-12.414-3.138-2.698-6.33-5.442-9.851-7.642-1.086-.679-2.4-.894-3.667-.663-1.608.292-3.119 2.054-4.55 2.827-2.233 1.206-4.016 2.886-6.053 4.374-7.646 5.585-13.677 13.737-20.41 20.388-8.12 8.021-15.753 16.87-23.149 25.557-4.778 5.611-10.466 10.319-15.595 15.595-4.999 5.142-9.981 10.284-14.579 15.793-10.14 12.151-21.421 24.83-27.434 39.694-1.208 2.985-2.597 8.519-1.458 11.751 1.249 3.543 7.067 6.888 9.725 8.416l.038.022z" fill="#49B2EC"/>
    <path d="M504.2 61.988C442.381 492.845 123.5 569.647.5 563l443.941 119.806 165.22-591.353L504.2 61.988z" fill="url(#paint0_linear)"/>
    <path d="M501.132 14.17c15.596 434.989-234.203 556.957-360.254 555.104L92 592.283l460.454 43.459 57.694-611.284L501.132 14.17z" fill="url(#paint1_linear)"/>
    <path d="M291.992 489.285c-6.473 1.533-29.887 33.864-25.992-23.785 35.052-41.792 75.375-98.79 97.5-102.5 4.167-1.333 18.5 5 12.5 30-3.69 15.375 24.429 31.986 34-8.436C417 355 401.644 354.16 385 342c-23.981-17.521-59.338 9.561-72 21-26.513-25.433-13.751-10-35 0-21.249 10-13.643 32.216 0 69.5 4 10.931-26.883 1.518-29 14.5-8.884 22.56-34.601 49.551-10 71.5 17.751 15.838 105.828 6.836 70.794-31.758-5.078-4.276-12.693 1.333-17.802 2.543z" fill="#49B2EC" stroke="#fff" stroke-linecap="round" stroke-linejoin="round"/>
    <path d="M294.992 491.285c-6.473 1.533-29.887 33.864-25.992-23.785 35.051-41.792 75.375-98.79 97.5-102.5 4.167-1.333 18.5 5 12.5 30-3.69 15.375 25 30 34-8.436 4.426-18.904-3.134-31.978-21-45.064-24.723-18.108-62.825-1.902-75.487 9.537-26.513-25.432-56.764-35.432-78.013-25.432-21.249 10-35.5 38.791-2 79.395 7.408 8.979 6.5 20.5-4.5 44.5-15.491 33.799-21.351 59.614 3.249 81.563 17.751 15.838 112.579-3.727 77.544-42.321-5.077-4.276-12.692 1.333-17.801 2.543z" fill="#49B2EC"/>
    <circle cx="222.5" cy="353.5" r="10" fill="#fff" stroke="#49B2EC"/>
    <circle cx="220.5" cy="350.5" r="3.5" fill="#4A4545"/>
    <path d="M259.5 351.5c0 5.546-4.276 10-9.5 10s-9.5-4.454-9.5-10 4.276-10 9.5-10 9.5 4.454 9.5 10z" fill="#fff" stroke="#49B2EC"/>
    <circle cx="249.5" cy="348.5" r="3.5" fill="#4A4545"/>
    <path d="M232 378c5.5 3 21.5 2.5 27-7m0 0c-1.5-.5-2-3-2-3m2 3c1.5.5 4.5-.5 4.5-.5" stroke="#4A4545" stroke-width="3" stroke-linecap="round" stroke-linejoin="round"/>
    <path d="M259.982 339.287c-3.263-5.348-5.982-5.065-10.982-4.565M225.803 337.605c-5.518-2.967-7.722-1.35-11.785 1.607" stroke="#000" stroke-width="3" stroke-linecap="round" stroke-linejoin="round"/>
    <defs>
        <linearGradient id="paint0_linear" x1="386.941" y1="29.227" x2="221.721" y2="620.58" gradientUnits="userSpaceOnUse">
            <stop stop-color="#DD6D1C"/>
            <stop offset="1" stop-color="#FFD8BB"/>
        </linearGradient>
        <linearGradient id="paint1_linear" x1="379.921" y1="2.729" x2="322.227" y2="614.013" gradientUnits="userSpaceOnUse">
            <stop stop-color="#BC5810"/>
            <stop offset="1" stop-color="#F99853"/>
        </linearGradient>
    </defs>
</svg>
