<svg width="295" height="296" fill="none" xmlns="http://www.w3.org/2000/svg">
    <path d="M90.52 183c-5.742-3.36-42.617.018 0-39 54.209-6.037 120.347-22.18 138.915-9.59 3.935 1.912 9.933 16.389-11.667 30.334-13.284 8.576-4.408 40.005 30.421 17.369 25.475-16.556 14.945-27.766 11.298-48.053-5.254-29.231-49.529-34.047-66.587-34.513-1.624-36.703-3.045-16.727-25.322-24.162-22.276-7.435-32.11 13.888-47.979 50.281-4.653 10.67-20.498-17.461-30.991-9.53-22.002 10.189-59.24 11.962-56.595 44.824 1.908 23.713 71.19 81.148 72.487 29.04-.722-6.599-9.449-4.348-13.98-7z" fill="#49B2EC" stroke="#fff" stroke-linecap="round" stroke-linejoin="round"/>
    <path d="M91.31 179.926c-5.743-3.359-45.001 3.867-2.385-35.152 54.21-6.037 122.732-19.436 141.3-6.845 3.935 1.911 9.932 16.388-11.668 30.333-13.283 8.576-2.623 38.963 30.422 17.369 16.253-10.621 19.809-25.299 15.918-47.1-5.386-30.168-44.139-44.747-61.197-45.213-1.624-36.703-16.606-64.822-38.882-72.257-22.277-7.434-52.463 3.557-56.259 56.06-.839 11.61-9.45 19.318-33.976 29.088-34.541 13.758-56.602 28.389-53.957 61.251 1.908 23.713 84.021 75.024 85.318 22.916-.722-6.599-10.103-7.798-14.635-10.45z" fill="#49B2EC"/>
    <circle cx="133.984" cy="30.197" r="10" transform="rotate(43.658 133.984 30.197)" fill="#fff" stroke="#49B2EC"/>
    <circle cx="130.653" cy="29.908" r="3.5" transform="rotate(43.658 130.653 29.908)" fill="#4A4545"/>
    <path d="M162.133 54.294c-3.828 4.012-9.997 4.283-13.776.676-3.78-3.606-3.798-9.78.03-13.793 3.829-4.013 9.998-4.283 13.777-.676 3.779 3.606 3.798 9.78-.031 13.793z" fill="#fff" stroke="#49B2EC"/>
    <circle cx="153.014" cy="48.482" r="3.5" transform="rotate(43.658 153.014 48.482)" fill="#4A4545"/>
    <path d="M123.943 54.48c1.908 5.968 13.829 16.652 24.367 13.576m0 0c-.369-.697-.215-1.581.032-2.293m-.032 2.293c.422.798 1.536 1.58 2.414 2.103M170.914 45.791c1.331-6.122-.831-7.795-4.794-10.885M147.347 20.978c-1.943-5.956-4.654-6.308-9.635-6.973" stroke="#000" stroke-width="3" stroke-linecap="round" stroke-linejoin="round"/>
</svg>
