<svg width="7" height="1547" fill="none" xmlns="http://www.w3.org/2000/svg">
    <circle cx="3.5" cy="26" r="3" transform="rotate(90 3.5 26)" fill="#DAEAFF"/>
    <circle cx="3.5" cy="49" r="3" transform="rotate(90 3.5 49)" fill="#DAEAFF"/>
    <circle cx="3.5" cy="72" r="3" transform="rotate(90 3.5 72)" fill="#DAEAFF"/>
    <circle cx="3.5" cy="95" r="3" transform="rotate(90 3.5 95)" fill="#DAEAFF"/>
    <circle cx="3.5" cy="118" r="3" transform="rotate(90 3.5 118)" fill="#DAEAFF"/>
    <circle cx="3.5" cy="141" r="3" transform="rotate(90 3.5 141)" fill="#DAEAFF"/>
    <circle cx="3.5" cy="164" r="3" transform="rotate(90 3.5 164)" fill="#DAEAFF"/>
    <circle cx="3.5" cy="187" r="3" transform="rotate(90 3.5 187)" fill="#DAEAFF"/>
    <circle cx="3.5" cy="210" r="3" transform="rotate(90 3.5 210)" fill="#DAEAFF"/>
    <circle cx="3.5" cy="233" r="3" transform="rotate(90 3.5 233)" fill="#DAEAFF"/>
    <circle cx="3.5" cy="256" r="3" transform="rotate(90 3.5 256)" fill="#DAEAFF"/>
    <circle cx="3.5" cy="279" r="3" transform="rotate(90 3.5 279)" fill="#DAEAFF"/>
    <circle cx="3.5" cy="302" r="3" transform="rotate(90 3.5 302)" fill="#DAEAFF"/>
    <circle cx="3.5" cy="325" r="3" transform="rotate(90 3.5 325)" fill="#DAEAFF"/>
    <circle cx="3.5" cy="348" r="3" transform="rotate(90 3.5 348)" fill="#DAEAFF"/>
    <circle cx="3.5" cy="371" r="3" transform="rotate(90 3.5 371)" fill="#DAEAFF"/>
    <circle cx="3.5" cy="394" r="3" transform="rotate(90 3.5 394)" fill="#DAEAFF"/>
    <circle cx="3.5" cy="417" r="3" transform="rotate(90 3.5 417)" fill="#2783FE"/>
    <circle cx="3.5" cy="440" r="3" transform="rotate(90 3.5 440)" fill="#FFD8BB"/>
    <circle cx="3.5" cy="463" r="3" transform="rotate(90 3.5 463)" fill="#FFD8BB"/>
    <circle cx="3.5" cy="486" r="3" transform="rotate(90 3.5 486)" fill="#FFD8BB"/>
    <circle cx="3.5" cy="509" r="3" transform="rotate(90 3.5 509)" fill="#FFD8BB"/>
    <circle cx="3.5" cy="532" r="3" transform="rotate(90 3.5 532)" fill="#FFD8BB"/>
    <circle cx="3.5" cy="555" r="3" transform="rotate(90 3.5 555)" fill="#FFD8BB"/>
    <circle cx="3.5" cy="578" r="3" transform="rotate(90 3.5 578)" fill="#FFD8BB"/>
    <circle cx="3.5" cy="601" r="3" transform="rotate(90 3.5 601)" fill="#FFD8BB"/>
    <circle cx="3.5" cy="624" r="3" transform="rotate(90 3.5 624)" fill="#FFD8BB"/>
    <circle cx="3.5" cy="647" r="3" transform="rotate(90 3.5 647)" fill="#FFD8BB"/>
    <circle cx="3.5" cy="670" r="3" transform="rotate(90 3.5 670)" fill="#FFD8BB"/>
    <circle cx="3.5" cy="693" r="3" transform="rotate(90 3.5 693)" fill="#FFD8BB"/>
    <circle cx="3.5" cy="716" r="3" transform="rotate(90 3.5 716)" fill="#FFD8BB"/>
    <circle cx="3.5" cy="739" r="3" transform="rotate(90 3.5 739)" fill="#FFD8BB"/>
    <circle cx="3.5" cy="762" r="3" transform="rotate(90 3.5 762)" fill="#FFD8BB"/>
    <circle cx="3.5" cy="785" r="3" transform="rotate(90 3.5 785)" fill="#FFD8BB"/>
    <circle cx="3.5" cy="808" r="3" transform="rotate(90 3.5 808)" fill="#FFD8BB"/>
    <circle cx="3.5" cy="831" r="3" transform="rotate(90 3.5 831)" fill="#FFD8BB"/>
    <circle cx="3.5" cy="854" r="3" transform="rotate(90 3.5 854)" fill="#FFD8BB"/>
    <circle cx="3.5" cy="877" r="3" transform="rotate(90 3.5 877)" fill="#FFD8BB"/>
    <circle cx="3.5" cy="900" r="3" transform="rotate(90 3.5 900)" fill="#FFD8BB"/>
    <circle cx="3.5" cy="923" r="3" transform="rotate(90 3.5 923)" fill="#FFD8BB"/>
    <circle cx="3.5" cy="946" r="3" transform="rotate(90 3.5 946)" fill="#FFD8BB"/>
    <circle cx="3.5" cy="969" r="3" transform="rotate(90 3.5 969)" fill="#FFD8BB"/>
    <circle cx="3.5" cy="992" r="3" transform="rotate(90 3.5 992)" fill="#FFD8BB"/>
    <circle cx="3.5" cy="1015" r="3" transform="rotate(90 3.5 1015)" fill="#FFD8BB"/>
    <circle cx="3.5" cy="1038" r="3" transform="rotate(90 3.5 1038)" fill="#FFD8BB"/>
    <circle cx="3.5" cy="1061" r="3" transform="rotate(90 3.5 1061)" fill="#FFD8BB"/>
    <circle cx="3.5" cy="1084" r="3" transform="rotate(90 3.5 1084)" fill="#FFD8BB"/>
    <circle cx="3.5" cy="1107" r="3" transform="rotate(90 3.5 1107)" fill="#FFD8BB"/>
    <circle cx="3.5" cy="1130" r="3" transform="rotate(90 3.5 1130)" fill="#FFD8BB"/>
    <circle cx="3.5" cy="1153" r="3" transform="rotate(90 3.5 1153)" fill="#FFD8BB"/>
    <circle cx="3.5" cy="1176" r="3" transform="rotate(90 3.5 1176)" fill="#FFD8BB"/>
    <circle cx="3.5" cy="1199" r="3" transform="rotate(90 3.5 1199)" fill="#FFD8BB"/>
    <circle cx="3.5" cy="1222" r="3" transform="rotate(90 3.5 1222)" fill="#FFD8BB"/>
    <circle cx="3.5" cy="1245" r="3" transform="rotate(90 3.5 1245)" fill="#FFD8BB"/>
    <circle cx="3.5" cy="1268" r="3" transform="rotate(90 3.5 1268)" fill="#FFD8BB"/>
    <circle cx="3.5" cy="1291" r="3" transform="rotate(90 3.5 1291)" fill="#FFD8BB"/>
    <circle cx="3.5" cy="1314" r="3" transform="rotate(90 3.5 1314)" fill="#FFD8BB"/>
    <circle cx="3.5" cy="1337" r="3" transform="rotate(90 3.5 1337)" fill="#FFD8BB"/>
</svg>
