<svg width="40" height="40" fill="none" xmlns="http://www.w3.org/2000/svg">
    <g clip-path="url(#clip0)">
        <rect width="40" height="40" rx="20" fill="#C4C4C4"/>
        <g clip-path="url(#clip1)">
            <path d="M48.948 39.967H-9.948c-.581 0-1.052-.47-1.052-1.05V1.083c0-.58.471-1.051 1.052-1.051h58.896c.581 0 1.052.47 1.052 1.05v37.833c0 .58-.471 1.051-1.052 1.051z" fill="#41479B"/>
            <path d="M50 1.084c0-.58-.471-1.051-1.052-1.051h-4.705L24.758 12.788V.034H14.242v12.756L-5.243.033h-4.705c-.581 0-1.052.47-1.052 1.05v2.719L5.716 14.745H-11v10.51H5.716L-11 36.197v2.718c0 .58.471 1.051 1.052 1.051h4.705l19.485-12.755v12.755h10.517V27.212l19.484 12.755h4.706c.58 0 1.051-.47 1.051-1.05v-2.719L33.284 25.255H50v-10.51H33.283L50 3.803V1.084z" fill="#F5F5F5"/>
            <path d="M50 16.842H22.655V0h-6.31v16.842H-11v6.316h27.345V40h6.31V23.158H50v-6.316z" fill="#FF4B55"/>
            <path d="M9.29 25.255L-12 39.063c.075.507.493.903 1.022.903h1.448l22.684-14.712H9.29zM30.269 25.255h-3.864l22.65 14.69c.529-.056.945-.486.945-1.029v-.864L30.27 25.255zM-10 2.244L9.274 14.746h3.864L-9.387.136c-.36.166-.613.525-.613.948v1.16zM29.863 14.746L51.206.903a1.037 1.037 0 00-1.015-.87h-1.507L26 14.746h3.863z" fill="#FF4B55"/>
        </g>
    </g>
    <defs>
        <clipPath id="clip0">
            <rect width="40" height="40" rx="20" fill="#fff"/>
        </clipPath>
        <clipPath id="clip1">
            <path fill="#fff" transform="translate(-11)" d="M0 0h61v40H0z"/>
        </clipPath>
    </defs>
</svg>
