<svg width="36" height="36" fill="none" xmlns="http://www.w3.org/2000/svg">
    <rect width="36" height="36" rx="18" fill="#fff"/>
    <path fill-rule="evenodd" clip-rule="evenodd" d="M13.547 7.265C14.7 7.212 15.067 7.2 18 7.2c2.934 0 3.3.013 4.452.065 1.15.052 1.936.235 2.623.502.72.271 1.373.697 1.912 1.246.55.54.975 1.192 1.246 1.913.267.687.45 1.472.502 2.622.053 1.152.065 1.519.065 4.452 0 2.934-.013 3.3-.065 4.453-.052 1.15-.235 1.935-.502 2.622a5.299 5.299 0 01-1.246 1.913c-.539.549-1.192.974-1.912 1.245-.687.267-1.473.45-2.622.502-1.152.053-1.52.065-4.453.065-2.933 0-3.3-.012-4.453-.065-1.15-.052-1.935-.235-2.622-.502a5.298 5.298 0 01-1.912-1.245 5.293 5.293 0 01-1.246-1.913c-.267-.687-.45-1.473-.502-2.622C7.212 21.3 7.2 20.934 7.2 18s.013-3.3.065-4.452c.052-1.15.235-1.935.502-2.622a5.298 5.298 0 011.246-1.913 5.294 5.294 0 011.912-1.246c.687-.267 1.473-.45 2.622-.502zm8.817 1.944c-1.138-.052-1.48-.063-4.364-.063s-3.226.011-4.364.063c-1.053.048-1.625.224-2.006.372-.504.196-.864.43-1.242.808a3.35 3.35 0 00-.807 1.242c-.148.38-.324.952-.372 2.005-.052 1.139-.063 1.48-.063 4.364s.011 3.226.063 4.365c.048 1.053.224 1.624.372 2.005.173.469.449.893.807 1.242.349.358.773.634 1.242.807.38.149.953.324 2.006.372 1.138.052 1.48.063 4.364.063s3.226-.011 4.364-.063c1.053-.048 1.625-.223 2.006-.372.504-.195.864-.43 1.242-.807.358-.349.634-.773.807-1.242.148-.38.324-.952.372-2.005.052-1.14.063-1.481.063-4.365 0-2.883-.011-3.225-.063-4.364-.048-1.053-.224-1.625-.372-2.005a3.343 3.343 0 00-.807-1.242 3.35 3.35 0 00-1.242-.808c-.38-.148-.953-.324-2.006-.372zm-5.743 12.12a3.603 3.603 0 102.758-6.658 3.603 3.603 0 00-2.758 6.659zm-2.546-7.254a5.552 5.552 0 117.85 7.851 5.552 5.552 0 01-7.85-7.851zm10.707-.799a1.312 1.312 0 10-1.855-1.855 1.312 1.312 0 001.855 1.855z" fill="#4A4545"/>
</svg>
