<svg width="102" height="40" fill="none" xmlns="http://www.w3.org/2000/svg">
    <path fill-rule="evenodd" clip-rule="evenodd" d="M11.606 3.667c0 .06-.2.11-.446.11s-.447.05-.447.112c0 .061-.077.111-.17.111-.223 0-.946.72-.946.94 0 .094-.05.171-.111.171-.062 0-.112.1-.112.222 0 .123-.05.223-.111.223-.074 0-.112 2.888-.112 8.444 0 5.556-.038 8.444-.112 8.444-.066 0-.111.408-.111 1 0 .593-.046 1-.112 1-.061 0-.111.127-.111.281 0 .383-.896 1.275-1.28 1.275-.156 0-.283.05-.283.111s-.15.111-.335.111c-.184 0-.334-.05-.334-.11 0-.062-.151-.112-.335-.112-.184 0-.335-.05-.335-.111s-.1-.111-.223-.111-.223-.05-.223-.111-.1-.111-.224-.111c-.122 0-.223-.05-.223-.112 0-.06-.1-.11-.223-.11s-.223-.05-.223-.112c0-.06-.1-.11-.223-.11s-.223-.05-.223-.112c0-.061-.1-.111-.224-.111-.122 0-.223-.05-.223-.111 0-.065-.372-.111-.893-.111-.52 0-.892.046-.892.11 0 .062-.1.112-.224.112-.122 0-.223.05-.223.111s-.079.111-.175.111c-.226 0-.494.268-.494.492 0 .096-.05.175-.112.175-.061 0-.112.1-.112.222s-.05.222-.111.222c-.062 0-.112.15-.112.334 0 .183-.05.333-.111.333-.064 0-.112.333-.112.778 0 .444.048.777.112.777.061 0 .111.15.111.334 0 .183.05.333.112.333.061 0 .111.076.111.17 0 .22 1.172 1.386 1.393 1.386.093 0 .17.05.17.11 0 .062.1.112.223.112s.223.05.223.111.1.111.223.111.224.05.224.111.1.111.223.111c.122 0 .223.05.223.111 0 .062.2.112.446.112s.447.05.447.11c0 .062.2.112.446.112s.446.05.446.11c0 .07.707.112 1.898.112 1.19 0 1.897-.041 1.897-.111 0-.061.25-.111.558-.111.307 0 .558-.05.558-.111s.15-.111.335-.111c.184 0 .334-.05.334-.112 0-.06.1-.11.224-.11.122 0 .223-.05.223-.112 0-.06.1-.11.223-.11s.223-.05.223-.112c0-.061.09-.111.199-.111.109 0 .27-.1.36-.222.088-.123.226-.223.306-.223.19 0 1.144-.95 1.144-1.139 0-.08.1-.217.223-.305s.223-.25.223-.358c0-.109.05-.198.112-.198.061 0 .111-.1.111-.222s.05-.222.112-.222c.061 0 .112-.15.112-.333 0-.184.05-.334.111-.334.062 0 .112-.2.112-.444 0-.245.05-.445.111-.445.063 0 .112-.296.112-.666 0-.37.05-.667.112-.667.073 0 .111-3.296.111-9.667 0-6.37-.038-9.666-.111-9.666-.062 0-.112-.15-.112-.334 0-.183-.05-.333-.112-.333-.06 0-.111-.077-.111-.172 0-.222-.497-.717-.72-.717-.095 0-.173-.05-.173-.11 0-.062-.1-.112-.223-.112s-.223-.05-.223-.111-.201-.111-.447-.111c-.245 0-.446-.05-.446-.111s-.201-.111-.447-.111c-.245 0-.446.05-.446.11zm14.285 6.666c0 .061-.251.111-.558.111-.307 0-.558.05-.558.112 0 .06-.151.11-.335.11-.184 0-.335.05-.335.112 0 .06-.15.11-.335.11-.184 0-.335.05-.335.112 0 .061-.1.111-.223.111-.122 0-.223.05-.223.111s-.09.111-.198.111c-.11 0-.271.1-.36.223-.088.122-.23.222-.315.222-.084 0-.294.15-.466.333-.172.183-.37.333-.438.333-.164 0-1.125.957-1.125 1.12 0 .068-.15.265-.334.436-.184.171-.335.38-.335.464 0 .085-.1.226-.223.314s-.223.249-.223.358c0 .108-.05.197-.112.197-.061 0-.112.1-.112.223 0 .122-.05.222-.111.222-.062 0-.112.1-.112.222s-.05.222-.111.222c-.062 0-.112.15-.112.334 0 .183-.05.333-.112.333-.061 0-.111.15-.111.333 0 .184-.05.334-.112.334-.061 0-.111.2-.111.444s-.05.444-.112.444c-.067 0-.112.445-.112 1.112 0 .666-.044 1.11-.111 1.11-.062 0-.112.2-.112.445s.05.445.112.445c.066 0 .111.407.111 1 0 .592.046 1 .112 1 .061 0 .112.25.112.555 0 .306.05.556.111.556.062 0 .112.15.112.333 0 .183.05.333.111.333.062 0 .112.15.112.334 0 .183.05.333.112.333.06 0 .111.1.111.222s.05.222.112.222c.061 0 .111.1.111.223 0 .122.05.222.112.222.061 0 .112.089.112.198 0 .108.1.27.223.357.122.089.223.23.223.314 0 .084.15.293.335.464.184.171.334.368.334.436 0 .162 1.185 1.342 1.348 1.342.069 0 .266.15.438.333.172.184.393.334.491.334.098 0 .179.05.179.11 0 .062.1.112.223.112s.223.05.223.111.1.111.223.111.223.05.223.111.151.111.335.111c.184 0 .335.05.335.111 0 .062.15.112.335.112.184 0 .335.05.335.11 0 .062.25.112.558.112.307 0 .558.05.558.11 0 .07.67.112 1.785.112 1.116 0 1.786-.042 1.786-.111 0-.061.2-.111.446-.111s.447-.05.447-.111.2-.111.446-.111c.245 0 .446-.05.446-.112 0-.06.1-.11.224-.11.122 0 .223-.05.223-.112 0-.06.1-.11.223-.11s.223-.05.223-.112c0-.061.1-.111.223-.111s.223-.05.223-.111.08-.111.179-.111c.098 0 .319-.15.491-.334.172-.183.369-.333.437-.333.175 0 1.795-1.631 1.795-1.807 0-.08.1-.216.223-.304s.223-.25.223-.358c0-.109.05-.198.112-.198.061 0 .112-.089.112-.197 0-.11.1-.27.223-.358a.606.606 0 00.223-.47c0-.169.05-.308.111-.308.062 0 .112-.1.112-.222s.05-.222.112-.222c.061 0 .111-.15.111-.334 0-.183.05-.333.112-.333.061 0 .111-.2.111-.445 0-.244.05-.444.112-.444s.112-.296.112-.667c0-.37.05-.666.111-.666.07 0 .112-.63.112-1.667s-.042-1.667-.112-1.667c-.062 0-.111-.296-.111-.666 0-.37-.05-.667-.112-.667-.061 0-.111-.15-.111-.333 0-.184-.05-.334-.112-.334s-.112-.15-.112-.333c0-.183-.05-.333-.111-.333-.062 0-.112-.1-.112-.223 0-.122-.05-.222-.111-.222-.062 0-.112-.139-.112-.309a.606.606 0 00-.223-.469c-.123-.088-.223-.249-.223-.357 0-.11-.05-.198-.112-.198-.061 0-.112-.09-.112-.198 0-.109-.1-.27-.223-.358-.123-.088-.223-.225-.223-.304 0-.187-1.85-2.029-2.038-2.029-.08 0-.217-.1-.306-.222-.088-.122-.25-.222-.359-.222-.11 0-.199-.05-.199-.112 0-.06-.1-.11-.223-.11s-.223-.05-.223-.112c0-.06-.1-.11-.223-.11s-.223-.05-.223-.112c0-.061-.151-.111-.335-.111-.184 0-.335-.05-.335-.111s-.15-.111-.335-.111c-.184 0-.334-.05-.334-.111 0-.062-.252-.112-.558-.112-.307 0-.559-.05-.559-.11 0-.07-.632-.112-1.673-.112-1.042 0-1.674.042-1.674.111zm63.61 0c0 .061-.2.111-.446.111s-.447.05-.447.112c0 .06-.15.11-.335.11-.184 0-.334.05-.334.112 0 .06-.1.11-.223.11s-.224.05-.224.112c0 .061-.1.111-.223.111s-.223.05-.223.111-.09.111-.199.111c-.109 0-.27.1-.359.223-.088.122-.226.222-.305.222-.188 0-2.262 2.064-2.262 2.252 0 .079-.1.215-.223.303s-.223.25-.223.358c0 .109-.05.198-.112.198-.061 0-.111.1-.111.222s-.05.222-.112.222c-.061 0-.112.1-.112.223 0 .122-.05.222-.111.222s-.112.1-.112.222-.05.222-.111.222c-.062 0-.112.15-.112.334 0 .183-.05.333-.111.333-.062 0-.112.15-.112.333 0 .184-.05.334-.112.334-.061 0-.111.2-.111.444s-.05.444-.112.444c-.065 0-.112.37-.112.89 0 .518-.046.888-.111.888-.066 0-.112.408-.112 1 0 .593.046 1 .112 1 .064 0 .111.334.111.778s.048.778.112.778c.061 0 .112.2.112.444 0 .245.05.445.111.445.062 0 .112.15.112.333 0 .183.05.333.112.333.06 0 .111.15.111.334 0 .183.05.333.112.333.061 0 .111.1.111.222s.05.222.112.222c.061 0 .111.1.111.223 0 .122.05.222.112.222.061 0 .112.1.112.222s.05.222.111.222c.062 0 .112.08.112.178 0 .098.15.318.335.489.184.171.334.367.334.435 0 .174 1.863 2.01 2.039 2.01.08 0 .216.1.305.222.088.122.25.222.36.222.109 0 .198.05.198.111s.1.111.223.111.223.05.223.111.1.111.224.111c.122 0 .223.05.223.111 0 .062.15.112.335.112.184 0 .334.05.334.11 0 .062.201.112.447.112.245 0 .446.05.446.11 0 .07.595.112 1.563.112.967 0 1.562-.042 1.562-.111 0-.061.2-.111.446-.111s.447-.05.447-.111.1-.111.223-.111.223-.05.223-.112c0-.06.1-.11.223-.11s.223-.05.223-.112c0-.06.079-.11.174-.11.095 0 .47-.3.83-.668.646-.654 1.005-.832 1.005-.497 0 .22 1.172 1.386 1.393 1.386.093 0 .17.05.17.111 0 .067.446.112 1.115.112.67 0 1.116-.045 1.116-.112 0-.06.077-.11.171-.11.221 0 1.169-.944 1.169-1.164 0-.094.05-.17.111-.17.062 0 .112-.15.112-.333 0-.184.05-.334.111-.334.074 0 .112-2.814.112-8.222 0-5.407-.038-8.222-.112-8.222-.061 0-.111-.15-.111-.333 0-.184-.05-.334-.112-.334-.061 0-.111-.076-.111-.17 0-.286-.966-1.163-1.281-1.163-.155 0-.282-.05-.282-.111 0-.066-.409-.111-1.004-.111s-1.004.045-1.004.11c0 .062-.09.112-.199.112-.11 0-.271.1-.36.222-.088.122-.25.222-.359.222a.19.19 0 00-.198.198c0 .109-.1.27-.224.358-.122.088-.223.249-.223.358 0 .376-.349.194-1.116-.58-.424-.428-.848-.778-.943-.778-.095 0-.173-.05-.173-.111s-.15-.111-.335-.111c-.184 0-.334-.05-.334-.111 0-.062-.201-.112-.447-.112-.245 0-.446-.05-.446-.11 0-.07-.595-.112-1.563-.112-.967 0-1.562.043-1.562.111zm-47.764.445c0 .06-.1.11-.223.11s-.223.05-.223.112c0 .061-.077.111-.171.111-.094 0-.345.173-.558.385-.213.212-.387.462-.387.556 0 .094-.05.17-.111.17-.068 0-.112.445-.112 1.111 0 .667.044 1.111.111 1.111.062 0 .112.15.112.334 0 .183.05.333.112.333.061 0 .111.1.111.222 0 .123.05.223.112.223.061 0 .111.15.111.333 0 .183.05.333.112.333.061 0 .112.1.112.222 0 .123.05.223.111.223.062 0 .112.15.112.333 0 .183.05.333.111.333.062 0 .112.1.112.223 0 .122.05.222.112.222.061 0 .111.1.111.222s.05.222.112.222c.061 0 .111.15.111.334 0 .183.05.333.112.333.061 0 .112.1.112.222s.05.222.111.222c.062 0 .112.15.112.334 0 .183.05.333.111.333.062 0 .112.1.112.222s.05.222.112.222c.061 0 .111.15.111.334 0 .183.05.333.112.333.061 0 .111.1.111.222 0 .123.05.223.112.223.061 0 .112.1.112.222s.05.222.111.222c.062 0 .112.15.112.333 0 .184.05.334.111.334.062 0 .112.1.112.222s.05.222.112.222c.061 0 .111.15.111.333 0 .184.05.334.112.334.061 0 .111.1.111.222s.05.222.112.222c.061 0 .112.1.112.222 0 .123.05.223.111.223s.112.15.112.333c0 .183.05.333.111.333.062 0 .112.1.112.223 0 .122.05.222.111.222.062 0 .112.15.112.333 0 .183.05.333.112.333.061 0 .111.1.111.223 0 .122.05.222.112.222.061 0 .111.1.111.222s.05.222.112.222c.061 0 .112.15.112.334 0 .183.05.333.111.333.062 0 .112.1.112.222s.05.222.111.222c.062 0 .112.15.112.334 0 .183.05.333.112.333.061 0 .111.2.111.445 0 .244-.05.444-.111.444-.062 0-.112.1-.112.222s-.05.222-.111.222c-.062 0-.112.1-.112.223 0 .122-.05.222-.112.222-.061 0-.111.1-.111.222s-.05.222-.112.222c-.061 0-.111.15-.111.334 0 .183-.05.333-.112.333-.061 0-.112.1-.112.222s-.05.222-.111.222c-.062 0-.112.1-.112.223 0 .122-.05.222-.111.222-.062 0-.112.1-.112.222s-.05.222-.112.222c-.061 0-.111.15-.111.334 0 .183-.05.333-.112.333-.061 0-.111.1-.111.222s-.05.222-.112.222c-.061 0-.112.15-.112.334 0 .183-.05.333-.111.333-.062 0-.112.1-.112.222 0 .123-.05.223-.111.223-.062 0-.112.2-.112.444s-.05.444-.112.444c-.065 0-.111.37-.111.89 0 .518.046.888.111.888.062 0 .112.1.112.222 0 .123.05.223.112.223.061 0 .111.077.111.171 0 .223.497.718.72.718.095 0 .173.05.173.11 0 .062.1.112.223.112s.223.05.223.11c0 .068.447.112 1.116.112.67 0 1.116-.044 1.116-.111 0-.061.077-.111.17-.111.222 0 1.17-.943 1.17-1.164 0-.093.05-.17.111-.17s.112-.1.112-.222.05-.222.111-.222c.062 0 .112-.1.112-.222s.05-.222.111-.222c.062 0 .112-.1.112-.223 0-.122.05-.222.112-.222.061 0 .111-.1.111-.222s.05-.222.112-.222c.061 0 .111-.15.111-.334 0-.183.05-.333.112-.333.061 0 .112-.1.112-.222s.05-.222.111-.222c.062 0 .112-.1.112-.223 0-.122.05-.222.111-.222.062 0 .112-.15.112-.333 0-.184.05-.334.112-.334.061 0 .111-.1.111-.222s.05-.222.112-.222c.061 0 .111-.1.111-.222s.05-.222.112-.222c.061 0 .112-.15.112-.334 0-.183.05-.333.111-.333.062 0 .112-.1.112-.222 0-.123.05-.223.111-.223.062 0 .112-.15.112-.333 0-.183.05-.333.112-.333.061 0 .111-.1.111-.222 0-.123.05-.223.112-.223.061 0 .111-.1.111-.222s.05-.222.112-.222c.061 0 .112-.15.112-.333 0-.184.05-.334.111-.334.062 0 .112-.1.112-.222s.05-.222.111-.222c.062 0 .112-.1.112-.222 0-.123.05-.223.112-.223.06 0 .111-.15.111-.333 0-.183.05-.333.112-.333.061 0 .111-.1.111-.223 0-.122.05-.222.112-.222.061 0 .111-.1.111-.222s.05-.222.112-.222.112-.15.112-.334c0-.183.05-.333.111-.333.062 0 .112-.1.112-.222s.05-.222.111-.222c.062 0 .112-.1.112-.223 0-.122.05-.222.112-.222.061 0 .111-.15.111-.333 0-.183.05-.333.112-.333.061 0 .111-.1.111-.223 0-.122.05-.222.112-.222s.112-.15.112-.333c0-.184.05-.334.111-.334.062 0 .112-.1.112-.222s.05-.222.111-.222c.062 0 .112-.1.112-.222s.05-.222.112-.222c.061 0 .111-.15.111-.334 0-.183.05-.333.112-.333.061 0 .111-.1.111-.222 0-.123.05-.223.112-.223s.112-.1.112-.222.05-.222.111-.222c.062 0 .112-.15.112-.333 0-.184.05-.334.111-.334.062 0 .112-.1.112-.222s.05-.222.112-.222c.061 0 .111-.1.111-.222 0-.123.05-.223.112-.223.061 0 .111-.15.111-.333 0-.183.05-.333.112-.333.061 0 .112-.1.112-.222 0-.123.05-.223.111-.223.062 0 .112-.1.112-.222s.05-.222.111-.222c.062 0 .112-.15.112-.333 0-.184.05-.334.112-.334.061 0 .111-.1.111-.222s.05-.222.112-.222c.061 0 .111-.1.111-.222 0-.123.05-.223.112-.223.061 0 .112-.15.112-.333 0-.183.05-.333.111-.333.062 0 .112-.1.112-.223 0-.122.05-.222.111-.222.062 0 .112-.15.112-.333 0-.183.05-.333.112-.333.061 0 .111-.15.111-.334 0-.183.05-.333.112-.333.061 0 .111-.2.111-.445 0-.244.05-.444.112-.444.061 0 .112-.2.112-.444 0-.245-.05-.445-.112-.445-.061 0-.112-.2-.112-.444 0-.245-.05-.445-.111-.445-.062 0-.112-.076-.112-.17 0-.221-.723-.94-.945-.94-.094 0-.17-.05-.17-.112 0-.061-.101-.111-.224-.111s-.223-.05-.223-.111c0-.066-.41-.111-1.005-.111s-1.004.045-1.004.11c0 .062-.076.112-.17.112-.22 0-1.392 1.166-1.392 1.386 0 .093-.05.17-.112.17-.061 0-.111.1-.111.222s-.05.222-.112.222c-.061 0-.112.1-.112.222s-.05.222-.111.222c-.062 0-.112.1-.112.223 0 .122-.05.222-.111.222-.062 0-.112.15-.112.333 0 .183-.05.333-.112.333-.061 0-.111.1-.111.223 0 .122-.05.222-.112.222-.061 0-.111.15-.111.333 0 .184-.05.334-.112.334-.061 0-.112.1-.112.222s-.05.222-.111.222c-.062 0-.112.15-.112.333 0 .184-.05.334-.111.334-.062 0-.112.1-.112.222s-.05.222-.112.222c-.061 0-.111.15-.111.333 0 .184-.05.334-.112.334-.061 0-.111.1-.111.222s-.05.222-.112.222c-.061 0-.112.15-.112.334 0 .183-.05.333-.111.333-.062 0-.112.1-.112.222s-.05.222-.111.222c-.062 0-.112.15-.112.334 0 .183-.05.333-.112.333-.061 0-.111.1-.111.222s-.05.222-.112.222c-.061 0-.111.15-.111.334 0 .183-.05.333-.112.333-.061 0-.112.1-.112.222 0 .123-.05.223-.111.223-.062 0-.112.1-.112.222s-.028.222-.063.222c-.131 0-.383-.324-.383-.492 0-.096-.05-.175-.112-.175-.061 0-.111-.15-.111-.333 0-.183-.05-.333-.112-.333-.061 0-.111-.15-.111-.334 0-.183-.05-.333-.112-.333s-.112-.1-.112-.222-.05-.222-.111-.222c-.062 0-.112-.15-.112-.334 0-.183-.05-.333-.111-.333-.062 0-.112-.1-.112-.222 0-.123-.05-.223-.112-.223-.061 0-.111-.15-.111-.333 0-.183-.05-.333-.112-.333-.061 0-.111-.15-.111-.334 0-.183-.05-.333-.112-.333s-.112-.1-.112-.222-.05-.222-.111-.222c-.062 0-.112-.15-.112-.334 0-.183-.05-.333-.111-.333-.062 0-.112-.15-.112-.333 0-.184-.05-.334-.112-.334-.061 0-.111-.1-.111-.222s-.05-.222-.112-.222c-.061 0-.111-.15-.111-.333 0-.184-.05-.334-.112-.334s-.112-.1-.112-.222-.05-.222-.111-.222c-.062 0-.112-.15-.112-.334 0-.183-.05-.333-.111-.333-.062 0-.112-.139-.112-.309a.606.606 0 00-.223-.469c-.123-.088-.223-.225-.223-.306 0-.202-.736-.916-.945-.916-.094 0-.171-.05-.171-.111s-.1-.111-.224-.111c-.122 0-.223-.05-.223-.111 0-.066-.41-.111-1.004-.111-.595 0-1.005.045-1.005.11zm-14.06 5.11c0 .063.297.112.669.112.372 0 .67.05.67.111s.089.111.198.111c.11 0 .27.1.36.222.088.123.226.223.307.223.19 0 .92.726.92.916 0 .08.1.218.223.306a.606.606 0 01.223.469c0 .17.05.309.112.309.061 0 .111.15.111.333 0 .183.05.333.112.333.07 0 .112.667.112 1.778s-.042 1.778-.112 1.778c-.061 0-.111.15-.111.333 0 .184-.05.334-.112.334s-.112.1-.112.222-.05.222-.111.222c-.062 0-.112.1-.112.222s-.05.222-.111.222c-.062 0-.112.077-.112.17 0 .22-.947 1.164-1.169 1.164-.094 0-.17.05-.17.11 0 .062-.1.112-.224.112-.122 0-.223.05-.223.111s-.2.111-.446.111-.447.05-.447.111-.2.111-.446.111c-.245 0-.446-.05-.446-.11 0-.062-.251-.112-.558-.112-.307 0-.558-.05-.558-.11 0-.062-.09-.112-.199-.112-.109 0-.27-.1-.36-.222-.088-.122-.227-.222-.308-.222-.192 0-.696-.502-.696-.693 0-.081-.1-.22-.223-.307-.122-.089-.223-.25-.223-.358 0-.109-.05-.198-.112-.198-.06 0-.111-.15-.111-.333 0-.184-.05-.334-.112-.334-.061 0-.111-.15-.111-.333 0-.183-.05-.333-.112-.333-.069 0-.112-.593-.112-1.556 0-.963.043-1.555.112-1.555.061 0 .112-.15.112-.334 0-.183.05-.333.111-.333.062 0 .112-.15.112-.333 0-.184.05-.334.111-.334.062 0 .112-.08.112-.177 0-.098.15-.318.335-.49.184-.17.335-.37.335-.44 0-.177.284-.448.47-.448.082 0 .222-.1.31-.223a.61.61 0 01.472-.222c.17 0 .31-.05.31-.11 0-.062.251-.112.558-.112.307 0 .558-.05.558-.111a.112.112 0 01.223 0zm65.618.223c0 .061.1.111.224.111.122 0 .223.05.223.111s.076.111.17.111c.208 0 1.169.937 1.169 1.14 0 .08.1.217.223.305a.606.606 0 01.223.469c0 .17.05.309.112.309.061 0 .112.15.112.333 0 .183.05.333.111.333.07 0 .112.667.112 1.778s-.042 1.778-.112 1.778c-.061 0-.111.15-.111.333 0 .184-.05.334-.112.334-.061 0-.112.1-.112.222s-.05.222-.111.222c-.062 0-.112.1-.112.222s-.05.222-.111.222c-.062 0-.112.077-.112.17 0 .22-.947 1.164-1.169 1.164-.094 0-.17.05-.17.11 0 .062-.1.112-.223.112s-.224.05-.224.111-.2.111-.446.111-.446.05-.446.111-.201.111-.447.111c-.245 0-.446-.05-.446-.11 0-.062-.251-.112-.558-.112-.307 0-.558-.05-.558-.11 0-.062-.09-.112-.199-.112-.109 0-.27-.1-.36-.222-.088-.122-.226-.222-.308-.222-.191 0-.695-.502-.695-.693 0-.081-.1-.22-.224-.307-.122-.089-.223-.25-.223-.358 0-.109-.05-.198-.112-.198-.06 0-.111-.15-.111-.333 0-.184-.05-.334-.112-.334-.061 0-.111-.2-.111-.444 0-.245-.05-.445-.112-.445-.069 0-.111-.555-.111-1.444 0-.889.043-1.444.111-1.444.061 0 .112-.15.112-.334 0-.183.05-.333.111-.333.062 0 .112-.15.112-.333 0-.184.05-.334.111-.334.062 0 .112-.08.112-.177 0-.098.15-.318.335-.49.184-.17.335-.39.335-.488 0-.098.08-.178.178-.178.098 0 .32-.15.491-.333.193-.205.425-.334.603-.334.16 0 .29-.05.29-.11 0-.069.52-.112 1.34-.112.818 0 1.338.043 1.338.111z" fill="#2783FE"/>
    <path fill-rule="evenodd" clip-rule="evenodd" d="M68.632 20.556c-.223-1.149-.357-3.645.893-4.445 1.563-1 4.91-1.555 7.03-3.333 2.121-1.778 2.68-3.556 1.675-4.556-1.005-1-3.906.222-5.357 2.223-1.45 2-3.571 4.888-4.352 5.777-.781.89-.781.667-.893.556-.112-.111-.446-1.334.223-2.445.67-1.11.335-1.777-.223-2-.558-.222-1.562.667-1.34 2 .224 1.334.447 1.334.224 1.667-.223.333-.893-.889-.893-1.778 0-4.11 2.232-6.889 2.009-9.778 0-1.481-.781-4.444-3.906-4.444-3.906 0-3.683 4.111-3.683 5 0 2.667 4.353 6.556 4.688 10.222.26 1.556.49 5.667-.67 9.667-1.45 5-2.519 7.889-2.232 9.889.287 2 4.017 7.333 6.473.222.223-.963.535-3.356 0-5.222-.67-2.334-2.01-2.89-1.34-4.334.67-1.444 1.674-1.11 2.79 0 1.116 1.112 2.79 4.667 4.91 5.89 2.121 1.222 3.572 1.555 4.241.777.67-.778.558-2.778-1.227-3.778-1.786-1-3.46-.889-5.915-2.555-1.964-1.334-2.901-4.037-3.125-5.222zm-2.901-18c-.447-1.156-1.6-1.445-2.12-1.445-.075.037-.067.245.557.778.782.667 1.451 2.222 1.563 2.555.09.267.335.556.446.667.037-.37 0-1.4-.446-2.555zm9.709 6.222c-.804.266-1.228 1.148-1.34 1.555.075.074.269.134.447-.222.223-.444 1.45-.889 2.009-1 .558-.111 1.227-.333.893-.444-.335-.111-1.005-.223-2.01.11zm2.567 21c-.447-.711-1.377-.89-1.786-.89-.335.112-.112.223 0 .223s1.004.445 1.34 1.333c.267.712.78.963 1.004 1 0-.259-.112-.955-.558-1.666z" fill="#F48534"/>
    <path d="M79.123 7.667c-.112-.26-.09-1.067.892-2.223C81.243 4 82.135 4.556 82.36 5c.223.444.223 1.778-.781 2.222-1.005.445-1.563 1.111-2.456.445z" fill="#F48534"/>
</svg>
