<?xml version="1.0" encoding="utf-8"?><svg xmlns="http://www.w3.org/2000/svg" xmlns:xlink="http://www.w3.org/1999/xlink"><symbol viewBox="0 0 12 2" id="minus" xmlns="http://www.w3.org/2000/svg"><path d="M1 .25a.75.75 0 100 1.5V.25zm10 1.5a.75.75 0 000-1.5v1.5zM6 1V.25 1zm-5 .75h5V.25H1v1.5zm5 0h5V.25H6v1.5z"/></symbol><symbol viewBox="0 0 12 12" id="plus" xmlns="http://www.w3.org/2000/svg"><path d="M1 5.25a.75.75 0 000 1.5v-1.5zm10 1.5a.75.75 0 000-1.5v1.5zM6.75 1a.75.75 0 00-1.5 0h1.5zm-1.5 10a.75.75 0 001.5 0h-1.5zM1 6.75h5v-1.5H1v1.5zm5 0h5v-1.5H6v1.5zM5.25 1v5h1.5V1h-1.5zm0 5v5h1.5V6h-1.5z"/></symbol><symbol viewBox="0 0 65 64" id="work_elipse" xmlns="http://www.w3.org/2000/svg"><path d="M65 32.5C65 50.45 41.786 54.714 32.5 64 22.44 53.94 0 50.45 0 32.5S14.55 0 32.5 0 65 14.55 65 32.5z"/><path d="M65 32.5C65 50.45 41.786 54.714 32.5 64 22.44 53.94 0 50.45 0 32.5S14.55 0 32.5 0 65 14.55 65 32.5z"/><defs><linearGradient id="cpaint0_linear" x1="32.5" y1="0" x2="32.5" y2="64" gradientUnits="userSpaceOnUse"><stop stop-color="#FFDEC6"/><stop offset="1" stop-color="#EAB085"/></linearGradient></defs></symbol></svg>