<svg width="1920" height="44" fill="none" xmlns="http://www.w3.org/2000/svg">
    <path d="M-365 13l-31 31v-157h2976V44l-31-31-31 31-31-31-31 31-31-31-31 31-31-31-31 31-31-31-31 31-31-31-31 31-31-31-31 31-31-31-31 31-31-31-31 31-31-31-31 31-31-31-31 31-31-31-31 31-31-31-31 31-31-31-31 31-31-31-31 31-31-31-31 31-31-31-31 31-31-31-31 31-31-31-31 31-31-31-31 31-31-31-31 31-31-31-31 31-31-31-31 31-31-31-31 31-31-31-31 31-31-31-31 31-31-31-31 31-31-31-31 31-31-31-31 31-31-31-31 31-31-31-31 31-31-31-31 31-31-31-31 31-31-31-31 31-31-31-31 31-31-31-31 31-31-31-31 31-31-31-31 31-31-31-31 31-31-31-31 31-31-31-31 31L7 13l-31 31-31-31-31 31-31-31-31 31-31-31-31 31-31-31-31 31-31-31-31 31-31-31z" fill="#FFD8BB"/>
</svg>
