<svg width="320" height="52" fill="none" xmlns="http://www.w3.org/2000/svg">
    <path d="M-322.729 41.733L-333 52V0h986v52l-10.271-10.267L632.458 52l-10.27-10.267L611.917 52l-10.271-10.267L591.375 52l-10.271-10.267L570.833 52l-10.27-10.267L550.292 52l-10.271-10.267L529.75 52l-10.271-10.267L509.208 52l-10.27-10.267L488.667 52l-10.271-10.267L468.125 52l-10.271-10.267L447.583 52l-10.271-10.267L427.042 52l-10.271-10.267L406.5 52l-10.271-10.267L385.958 52l-10.27-10.267L365.417 52l-10.271-10.267L344.875 52l-10.271-10.267L324.333 52l-10.271-10.267L303.792 52l-10.271-10.267L283.25 52l-10.271-10.267L262.708 52l-10.27-10.267L242.167 52l-10.271-10.267L221.625 52l-10.271-10.267L201.083 52l-10.271-10.267L180.542 52l-10.271-10.267L160 52l-10.271-10.267L139.458 52l-10.27-10.267L118.917 52l-10.271-10.267L98.375 52l-10.27-10.267L77.832 52l-10.27-10.267L57.291 52 47.02 41.733 36.75 52 26.48 41.733 16.207 52 5.938 41.733-4.334 52l-10.271-10.267L-24.875 52l-10.27-10.267L-45.418 52l-10.27-10.267L-65.959 52-76.23 41.733-86.5 52l-10.27-10.267L-107.043 52l-10.27-10.267L-127.583 52l-10.271-10.267L-148.125 52l-10.271-10.267L-168.667 52l-10.271-10.267L-189.208 52l-10.271-10.267L-209.75 52l-10.271-10.267L-230.292 52l-10.27-10.267L-250.833 52l-10.271-10.267L-271.375 52l-10.271-10.267L-291.917 52l-10.27-10.267L-312.458 52l-10.271-10.267z" fill="#FFD8BB"/>
</svg>
