<svg width="270" height="256" fill="none" xmlns="http://www.w3.org/2000/svg">
    <path d="M21.465 77.262h192.098c11.481 0 20.789 9.308 20.789 20.789 0 11.481-9.308 20.789-20.789 20.789h-7.268c-8.663 0-15.686 7.023-15.686 15.686 0 8.664 7.023 15.687 15.686 15.687h42.821c10.996 0 19.91 8.914 19.91 19.91 0 10.995-8.914 19.909-19.91 19.909H41.771c-10.996 0-19.91-8.914-19.91-19.909 0-10.996 8.914-19.91 19.91-19.91h23.061c8.664 0 15.687-7.023 15.687-15.687 0-8.663-7.023-15.686-15.687-15.686H21.465C9.983 118.84.676 109.532.676 98.05c0-11.48 9.307-20.788 20.789-20.788z" fill="#CBF3FF"/>
    <path d="M76.647 147.505c-9.41 7.814-15.731 35.488-16.957 48.348 0 0 0 21.672 71.278 21.672 66.505 0 66.505-21.672 66.505-21.672-1.225-12.86-6.029-40.534-15.44-48.348-4.998-4.149-12.687-7.748-20.036-10.503.863.335 2.923 2.293 1.643 6.955-1.628 5.932-8.01 12.136-13 15.978-5.345 4.116-14.822 5.81-21.3 5.81-6.478 0-15.954-1.694-21.3-5.81-4.99-3.842-11.371-10.046-13-15.978-1.279-4.662.766-6.635 1.629-6.97-7.334 2.757-15.014 6.361-20.022 10.518z" fill="#fff"/>
    <path d="M111.451 136.279c0-2.14 1.714-4.401 1.714-4.401a121.73 121.73 0 00-6.676 1.807l-.875.264s-1.714 2.262-1.714 4.401c0 2.675 10.702 15.372 25.44 15.372 14.738 0 25.44-12.697 25.44-15.372 0-2.139-1.799-4.401-1.799-4.401l-.878-.264a123.49 123.49 0 00-6.688-1.807s1.815 2.261 1.815 4.401c0 2.675-13.019 11.226-17.89 11.226-4.87 0-17.889-8.551-17.889-11.226z" fill="#fff"/>
    <path d="M103.9 138.35c0-2.139 1.714-4.401 1.714-4.401l.875-.264c-2.644.79-5.596 1.752-8.637 2.863l-1.183.439c-.863.335-2.908 2.308-1.628 6.97 1.628 5.932 8.009 12.136 12.999 15.978 5.346 4.116 14.822 5.81 21.3 5.81 6.478 0 15.955-1.694 21.3-5.81 4.99-3.842 11.372-10.046 13-15.978 1.28-4.662-.78-6.62-1.643-6.955l-.782-.291a153.337 153.337 0 00-9.112-3.026l.878.264s1.799 2.262 1.799 4.401c0 2.675-10.702 15.372-25.44 15.372-14.738 0-25.44-12.697-25.44-15.372z" fill="#fff"/>
    <path d="M113.165 131.878s-1.714 2.261-1.714 4.401c0 2.675 13.019 11.226 17.889 11.226 4.871 0 17.89-8.551 17.89-11.226 0-2.14-1.815-4.401-1.815-4.401l-.921-.126-15.154-2.072-15.248 2.072-.927.126z" fill="#fff"/>
    <path d="M113.165 131.878s-1.714 2.261-1.714 4.401c0 2.675 13.019 11.226 17.889 11.226 4.871 0 17.89-8.551 17.89-11.226 0-2.14-1.815-4.401-1.815-4.401m-32.25 0l.927-.126 15.248-2.072 15.154 2.072.921.126m-32.25 0a121.73 121.73 0 00-6.676 1.807m75.544 13.82c9.411 7.814 14.215 35.488 15.44 48.348 0 0 0 21.672-66.505 21.672-71.278 0-71.278-21.672-71.278-21.672 1.226-12.86 7.546-40.534 16.957-48.348 5.007-4.157 12.688-7.761 20.022-10.518m85.364 10.518c-5.175-4.297-13.237-8.003-20.818-10.794m20.818 10.794c-4.998-4.149-12.687-7.748-20.036-10.503m-16.582-5.124a123.49 123.49 0 016.688 1.807m-55.434 3.302c-.863.335-2.908 2.308-1.628 6.97 1.628 5.932 8.009 12.136 12.999 15.978 5.346 4.116 14.822 5.81 21.3 5.81 6.478 0 15.955-1.694 21.3-5.81 4.99-3.842 11.372-10.046 13-15.978 1.28-4.662-.78-6.62-1.643-6.955m-65.328-.015c.395-.149.79-.295 1.183-.439m-1.183.439l1.183-.439m64.145.454l-.782-.291m0 0a153.337 153.337 0 00-9.112-3.026m0 0l.878.264s1.799 2.262 1.799 4.401c0 2.675-10.702 15.372-25.44 15.372-14.738 0-25.44-12.697-25.44-15.372 0-2.139 1.714-4.401 1.714-4.401l.875-.264m0 0c-2.644.79-5.596 1.752-8.637 2.863" stroke="#2F3A3E" stroke-width="2.516"/>
    <path d="M76.648 147.505c-9.412 7.814-15.732 35.488-16.958 48.348 0 0 0 21.672 71.278 21.672 66.506 0 66.506-21.672 66.506-21.672-1.226-12.86-6.029-40.534-15.441-48.348-4.998-4.149-12.687-7.748-20.036-10.503.864.335 2.923 2.293 1.643 6.955-1.628 5.932-8.01 12.136-13 15.978-5.345 4.116-14.822 5.81-21.3 5.81-6.478 0-15.954-1.694-21.299-5.81-4.99-3.842-11.372-10.046-13-15.978-1.28-4.662.765-6.635 1.628-6.97-7.334 2.757-15.014 6.361-20.021 10.518z" fill="#2F3A3E"/>
    <path d="M111.451 136.279c0-2.14 1.714-4.401 1.714-4.401a121.73 121.73 0 00-6.676 1.807l-.875.264s-1.714 2.262-1.714 4.401c0 2.675 10.703 15.372 25.44 15.372 14.738 0 25.441-12.697 25.441-15.372 0-2.139-1.8-4.401-1.8-4.401l-.878-.264a123.487 123.487 0 00-6.687-1.807s1.814 2.261 1.814 4.401c0 2.675-13.019 11.226-17.89 11.226-4.87 0-17.889-8.551-17.889-11.226z" fill="#2F3A3E"/>
    <circle cx="228.691" cy="184.817" r="13.428" fill="#FCC49A"/>
    <circle cx="226.293" cy="180.021" r="1.918" fill="#FFF0E5"/>
    <circle cx="235.405" cy="178.583" r="1.918" fill="#FFF0E5"/>
    <path d="M239.587 185.776a7.673 7.673 0 01-14.016 4.32c-.978-1.434.185-3.145 1.889-3.47l10.571-2.017c.785-.15 1.556.368 1.556 1.167z" fill="#F99853"/>
    <circle r="8.805" transform="scale(-1 1) rotate(-12.427 259.38 1081.2)" fill="#FCC49A"/>
    <circle r="1.258" transform="scale(-1 1) rotate(-12.427 245.725 1089.996)" fill="#FFF0E5"/>
    <circle r="1.258" transform="scale(-1 1) rotate(-12.427 238.406 1063.029)" fill="#FFF0E5"/>
    <path d="M219.488 80.23a5.033 5.033 0 007.506 5.395c1.487-.894.741-2.882-.854-3.567l-5.49-2.357c-.482-.206-1.049.017-1.162.528z" fill="#F99853"/>
    <circle cx="47.779" cy="79.06" r="13.428" fill="#008FF7"/>
    <circle cx="47.779" cy="79.06" r="13.428" fill="#FCC49A"/>
    <path d="M52.265 73.91s-1.18-.137-2.573.084a10.57 10.57 0 00-2.473.715 2.554 2.554 0 115.046-.8zM43.153 75.348s-1.18-.136-2.573.085c-1.393.22-2.472.714-2.472.714a2.554 2.554 0 115.045-.799z" fill="#FFF0E5"/>
    <path d="M53.808 80.396a7.673 7.673 0 01-14.237 3.522c-.896-1.487.362-3.13 2.082-3.358l10.668-1.417c.791-.105 1.532.456 1.487 1.253z" fill="#F99853"/>
    <circle r="8.678" transform="matrix(-1 0 0 1 25.673 156.249)" fill="#008FF7"/>
    <circle r="8.678" transform="matrix(-1 0 0 1 25.673 156.249)" fill="#FCC49A"/>
    <path d="M22.774 152.921s.763-.089 1.663.054 1.598.462 1.598.462a1.65 1.65 0 10-3.26-.516zM28.663 153.85s.762-.088 1.662.055c.9.142 1.598.462 1.598.462a1.651 1.651 0 00-3.26-.517z" fill="#FFF0E5"/>
    <path d="M21.777 157.112a4.958 4.958 0 008.526 3.156c1.202-1.251-.053-2.967-1.773-3.196l-5.792-.77c-.512-.068-.99.295-.961.81z" fill="#F99853"/>
    <path d="M17.363 43.018l3 2.341 3.733-.74-1.3 3.577 1.859 3.321-3.804-.13-2.585 2.793-1.05-3.658-3.456-1.595 3.153-2.13.45-3.779z" fill="#FE4B00"/>
    <path d="M203.359 48.854l.872 4.629 4.074 2.365-4.133 2.26-.991 4.605-3.426-3.232-4.686.48 2.015-4.257-1.905-4.308 4.672.601 3.508-3.143z" fill="#008FF7"/>
    <path d="M202.838 94.5l.679 3.599 3.166 1.838-3.213 1.757-.77 3.581-2.664-2.513-3.643.373 1.567-3.31-1.481-3.349 3.632.467 2.727-2.443z" fill="#FE4B00"/>
    <path d="M182.818 171.198l.691 3.667 3.227 1.873-3.274 1.79-.785 3.648-2.714-2.56-3.712.381 1.597-3.373-1.51-3.412 3.701.476 2.779-2.49zM171.721 153.576l.987 1.33 1.652.123-.961 1.349.394 1.609-1.58-.496-1.408.871-.017-1.656-1.264-1.07 1.57-.527.627-1.533zM185.093 197.041l-.618 1.537.76 1.472-1.653-.112-1.165 1.177-.404-1.607-1.479-.744 1.403-.88.251-1.638 1.271 1.063 1.634-.268zM147.669 170.9l1.32 1.603 2.076.049-1.117 1.75.595 1.99-2.01-.522-1.708 1.181-.125-2.072-1.651-1.26 1.932-.76.688-1.959zM79.472 167.22l2.492 3.026 3.919.092-2.108 3.305 1.123 3.756-3.795-.983-3.224 2.228-.237-3.912-3.117-2.379 3.648-1.434 1.299-3.699zM108.085 170.219l.654 2.242 2.124.971-1.931 1.315-.266 2.32-1.847-1.429-2.29.463.789-2.198-1.148-2.035 2.335.071 1.58-1.72zM75.081 193.76l.631 2.164 2.05.937-1.863 1.269-.257 2.239-1.782-1.38-2.21.447.762-2.121-1.108-1.963 2.253.068 1.524-1.66z" fill="#fff"/>
    <path d="M183.859 223.22l.49 2.601 2.289 1.329-2.322 1.27-.557 2.587-1.925-1.816-2.633.27 1.133-2.392-1.071-2.421 2.625.338 1.971-1.766zM212.548 209.639l3.232 2.161 3.748-1.034-1.056 3.742 2.141 3.244-3.884.152-2.425 3.04-1.345-3.648-3.639-1.366 3.053-2.407.175-3.884zM61.844 217.944l2.619 2.519 3.618-.335-1.587 3.269 1.437 3.338-3.6-.499-2.73 2.398-.637-3.578-3.125-1.856 3.206-1.711.8-3.545zM59.329 113.776l3.283 3.353 4.684-.294-2.173 4.159 1.727 4.364-4.628-.783-3.616 2.991-.686-4.642-3.962-2.515 4.203-2.088 1.168-4.545z" fill="#008FF7"/>
    <path d="M38.837 168.788l1.858 1.896 2.65-.166-1.23 2.354.978 2.469-2.619-.443-2.046 1.692-.388-2.626-2.242-1.424 2.378-1.181.661-2.571z" fill="#FE4B00"/>
    <path d="M87.698 179.49l1.734-1.748 1.49-1.501a2.367 2.367 0 011.672-.701l35.308-.146 35.308-.145a2.364 2.364 0 011.678.687l1.625 1.611 1.625 1.612c.446.442.698 1.043.7 1.672l.168 40.692a2.364 2.364 0 01-.687 1.678l-1.532 1.545-1.532 1.545a2.37 2.37 0 01-1.672.701l-35.468.146-35.468.146a2.37 2.37 0 01-1.677-.687l-1.342-1.331-1.748-1.733a2.37 2.37 0 01-.7-1.672l-.169-40.693a2.37 2.37 0 01.687-1.678z" fill="#FCC49A"/>
    <path d="M126.464 210.768l-9.509-8.48-27.523-24.546 1.49-1.501a2.367 2.367 0 011.672-.701l35.308-.146 35.308-.145a2.364 2.364 0 011.678.687l1.625 1.611-27.443 24.65-9.438 8.558a2.37 2.37 0 01-3.168.013z" fill="#F99853"/>
    <path fill-rule="evenodd" clip-rule="evenodd" d="M115.003 182.568c0 .018-.056.032-.124.032s-.124.014-.124.031-.021.032-.047.032c-.062 0-.263.203-.263.266 0 .026-.014.048-.031.048s-.031.028-.031.063-.013.063-.03.063c-.021 0-.031.817-.031 2.39 0 1.572-.011 2.389-.031 2.389-.019 0-.031.116-.031.283 0 .168-.013.283-.031.283-.017 0-.031.036-.031.08 0 .108-.249.361-.356.361-.043 0-.078.014-.078.031s-.042.032-.093.032-.093-.015-.093-.032-.041-.031-.092-.031c-.052 0-.093-.015-.093-.032s-.028-.031-.062-.031-.062-.014-.062-.032c0-.017-.028-.031-.062-.031s-.062-.014-.062-.032c0-.017-.028-.031-.062-.031s-.062-.014-.062-.031c0-.018-.028-.032-.062-.032s-.062-.014-.062-.031c0-.018-.028-.032-.062-.032s-.062-.014-.062-.031c0-.019-.103-.032-.247-.032-.145 0-.248.013-.248.032 0 .017-.028.031-.062.031s-.062.014-.062.032c0 .017-.022.031-.048.031-.063 0-.138.076-.138.139 0 .028-.014.05-.031.05s-.031.028-.031.063c0 .034-.013.063-.031.063-.017 0-.03.042-.03.094s-.014.094-.031.094c-.018 0-.031.095-.031.22 0 .126.013.22.031.22.017 0 .031.043.031.095 0 .052.013.094.03.094.018 0 .031.022.031.048 0 .062.325.392.387.392.026 0 .047.014.047.032 0 .017.028.031.062.031s.062.014.062.032c0 .017.028.031.062.031s.062.014.062.032c0 .017.027.031.062.031.034 0 .061.014.061.031 0 .018.056.032.124.032s.124.014.124.031c0 .018.056.032.124.032s.124.014.124.031c0 .02.196.032.526.032.331 0 .527-.012.527-.032 0-.017.069-.031.154-.031.086 0 .155-.014.155-.032 0-.017.042-.031.093-.031s.093-.014.093-.032c0-.017.028-.031.062-.031s.062-.014.062-.031c0-.018.028-.032.062-.032s.062-.014.062-.031c0-.018.025-.032.055-.032s.075-.028.1-.063c.024-.034.062-.063.085-.063.052 0 .317-.269.317-.322 0-.023.028-.061.062-.086.034-.025.062-.071.062-.102 0-.03.014-.056.031-.056s.031-.028.031-.062c0-.035.014-.063.031-.063s.031-.043.031-.095c0-.052.014-.094.031-.094s.031-.057.031-.126.014-.126.031-.126.031-.083.031-.188.013-.189.031-.189c.02 0 .031-.933.031-2.736 0-1.802-.011-2.735-.031-2.735-.017 0-.031-.043-.031-.095 0-.051-.014-.094-.031-.094s-.031-.022-.031-.048c0-.063-.138-.203-.2-.203-.027 0-.048-.015-.048-.032s-.028-.031-.062-.031-.062-.015-.062-.032-.056-.031-.124-.031-.124-.014-.124-.032c0-.017-.055-.031-.123-.031-.069 0-.124.014-.124.031zm3.963 1.887c0 .017-.07.031-.155.031-.085 0-.155.015-.155.032s-.041.031-.093.031c-.051 0-.092.014-.092.032 0 .017-.042.031-.093.031s-.093.014-.093.032c0 .017-.028.031-.062.031s-.062.014-.062.032c0 .017-.025.031-.055.031s-.075.028-.1.063c-.024.034-.064.063-.087.063-.024 0-.082.042-.13.094-.047.052-.102.094-.121.094-.046 0-.312.271-.312.317 0 .02-.042.075-.093.124-.051.048-.093.107-.093.131 0 .024-.028.064-.062.089-.034.025-.062.07-.062.101s-.014.056-.031.056-.031.028-.031.063c0 .034-.014.063-.031.063s-.031.028-.031.063c0 .034-.014.063-.031.063s-.031.042-.031.094-.013.094-.03.094-.031.043-.031.095c0 .051-.014.094-.031.094s-.031.056-.031.126c0 .069-.014.125-.031.125-.019 0-.031.126-.031.315s-.013.314-.031.314c-.017 0-.031.057-.031.126s.014.126.031.126c.018 0 .031.115.031.283 0 .168.012.283.031.283.017 0 .031.071.031.157 0 .087.014.157.031.157s.031.043.031.095c0 .052.014.094.031.094s.03.042.03.094.014.095.031.095.031.028.031.063c0 .034.014.062.031.062s.031.029.031.063c0 .035.014.063.031.063s.031.025.031.056.028.076.062.101c.034.025.062.065.062.089 0 .024.042.083.093.132.051.048.093.104.093.123 0 .046.329.38.374.38.019 0 .074.042.121.094.048.052.109.094.137.094.027 0 .049.014.049.032 0 .017.028.031.062.031s.062.014.062.032c0 .017.028.031.062.031s.062.014.062.032c0 .017.042.031.093.031s.093.014.093.031c0 .018.041.032.092.032.052 0 .093.014.093.031 0 .018.07.032.155.032.085 0 .155.014.155.031 0 .02.186.032.495.032.31 0 .496-.012.496-.032 0-.017.056-.031.124-.031s.123-.014.123-.032c0-.017.056-.031.124-.031s.124-.014.124-.032c0-.017.028-.031.062-.031s.062-.014.062-.031c0-.018.028-.032.062-.032s.062-.014.062-.031c0-.018.028-.032.062-.032s.062-.014.062-.031c0-.018.022-.032.049-.032.027 0 .089-.042.137-.094.047-.052.102-.094.121-.094.048 0 .498-.462.498-.512 0-.022.028-.061.062-.086.034-.025.062-.07.062-.101s.014-.056.031-.056.031-.025.031-.056.027-.076.061-.101a.172.172 0 00.062-.133c0-.048.014-.087.031-.087s.031-.029.031-.063c0-.035.014-.063.031-.063s.031-.043.031-.094c0-.052.014-.095.031-.095s.031-.056.031-.126c0-.069.014-.125.031-.125s.031-.084.031-.189.014-.189.031-.189c.019 0 .031-.178.031-.471 0-.294-.012-.472-.031-.472-.017 0-.031-.084-.031-.189 0-.104-.014-.188-.031-.188s-.031-.043-.031-.095c0-.052-.014-.094-.031-.094s-.031-.042-.031-.094-.014-.095-.031-.095-.031-.028-.031-.063c0-.034-.014-.062-.031-.062s-.031-.04-.031-.088a.172.172 0 00-.062-.133c-.034-.025-.061-.07-.061-.101s-.014-.056-.031-.056-.031-.025-.031-.056-.028-.076-.062-.101c-.034-.025-.062-.064-.062-.086 0-.053-.514-.574-.566-.574-.022 0-.06-.029-.084-.063-.025-.035-.07-.063-.1-.063s-.055-.014-.055-.032c0-.017-.028-.031-.062-.031s-.062-.014-.062-.031c0-.018-.028-.032-.062-.032s-.062-.014-.062-.031c0-.018-.042-.032-.093-.032s-.093-.014-.093-.031c0-.018-.042-.032-.093-.032s-.093-.014-.093-.031-.069-.032-.154-.032c-.085 0-.155-.014-.155-.031 0-.02-.176-.031-.465-.031-.289 0-.464.011-.464.031zm17.649 0c0 .017-.056.031-.124.031s-.124.015-.124.032-.042.031-.093.031-.093.014-.093.032c0 .017-.028.031-.062.031s-.062.014-.062.032c0 .017-.027.031-.061.031-.035 0-.062.014-.062.032 0 .017-.025.031-.056.031-.03 0-.075.028-.099.063-.025.034-.063.063-.085.063-.052 0-.627.584-.627.637 0 .022-.028.061-.062.086-.034.025-.062.07-.062.101s-.014.056-.031.056-.031.028-.031.063-.014.063-.031.063-.031.028-.031.063c0 .034-.014.063-.031.063s-.031.028-.031.063c0 .034-.014.063-.031.063s-.031.042-.031.094-.014.094-.031.094-.031.043-.031.095c0 .051-.014.094-.031.094s-.031.056-.031.126c0 .069-.014.125-.031.125-.018 0-.031.105-.031.252 0 .147-.013.252-.031.252-.018 0-.031.115-.031.283 0 .167.013.283.031.283.018 0 .031.094.031.22 0 .125.014.22.031.22s.031.056.031.126c0 .069.014.125.031.125s.031.043.031.095c0 .052.014.094.031.094s.031.042.031.094.014.095.031.095.031.028.031.063c0 .034.014.062.031.062s.031.029.031.063c0 .035.014.063.031.063s.031.028.031.063.014.063.031.063.031.023.031.05c0 .028.042.09.093.139.051.048.093.104.093.123 0 .049.516.568.565.568.022 0 .06.029.085.063.024.035.069.063.099.063.031 0 .056.014.056.032 0 .017.027.031.062.031.034 0 .061.014.061.032 0 .017.028.031.062.031s.062.014.062.031c0 .018.042.032.093.032s.093.014.093.031c0 .018.056.032.124.032s.124.014.124.031c0 .02.165.032.433.032.269 0 .434-.012.434-.032 0-.017.055-.031.124-.031.068 0 .123-.014.123-.032 0-.017.028-.031.062-.031s.062-.014.062-.032c0-.017.028-.031.062-.031s.062-.014.062-.031c0-.018.022-.032.048-.032.027 0 .131-.085.231-.189.179-.185.278-.235.278-.14 0 .062.326.392.387.392.026 0 .047.014.047.031 0 .019.124.032.31.032.185 0 .309-.013.309-.032 0-.017.021-.031.047-.031.062 0 .325-.267.325-.329 0-.027.014-.048.031-.048s.031-.043.031-.095c0-.052.014-.094.031-.094.02 0 .031-.797.031-2.327 0-1.53-.011-2.327-.031-2.327-.017 0-.031-.042-.031-.094s-.014-.094-.031-.094-.031-.022-.031-.048c0-.082-.268-.33-.356-.33-.043 0-.078-.014-.078-.031 0-.019-.113-.032-.278-.032-.166 0-.279.013-.279.032 0 .017-.025.031-.055.031s-.075.028-.1.063c-.024.035-.069.063-.1.063-.032 0-.055.023-.055.056 0 .031-.028.076-.062.101-.034.025-.062.071-.062.101 0 .107-.096.056-.309-.164-.118-.121-.235-.22-.262-.22-.026 0-.048-.014-.048-.031 0-.018-.042-.032-.093-.032s-.093-.014-.093-.031-.055-.032-.123-.032c-.069 0-.124-.014-.124-.031 0-.019-.165-.031-.434-.031-.268 0-.433.012-.433.031zm-13.252.126c0 .017-.028.031-.062.031s-.062.014-.062.032c0 .017-.022.031-.048.031-.026 0-.095.049-.154.109s-.108.131-.108.157c0 .027-.014.049-.031.049-.018 0-.031.125-.031.314s.013.314.031.314c.017 0 .031.043.031.095 0 .052.014.094.031.094s.031.028.031.063.014.063.031.063.031.042.031.094.014.095.031.095.031.028.031.062c0 .035.014.063.031.063s.031.043.031.095c0 .052.014.094.031.094s.031.028.031.063c0 .034.014.063.031.063s.031.028.031.063c0 .034.014.063.031.063s.031.042.031.094.014.094.031.094.031.028.031.063.014.063.031.063.031.042.031.094.013.095.03.095c.018 0 .031.028.031.063 0 .034.014.062.031.062s.031.043.031.095c0 .052.014.094.031.094s.031.028.031.063.014.063.031.063.031.028.031.063c0 .034.014.063.031.063s.031.042.031.094.014.094.031.094.031.029.031.063c0 .035.014.063.031.063s.031.043.031.094c0 .052.014.095.031.095s.031.028.031.063c0 .034.014.063.031.063s.031.028.031.062c0 .035.014.063.031.063s.031.043.031.095c0 .052.014.094.031.094s.031.028.031.063c0 .034.014.063.031.063s.031.042.031.094.014.094.031.094.031.029.031.063c0 .035.013.063.031.063.017 0 .03.028.03.063s.014.063.031.063.031.042.031.094.014.095.031.095.031.028.031.063c0 .034.014.062.031.062s.031.043.031.095c0 .052.014.094.031.094s.031.057.031.126-.014.126-.031.126-.031.028-.031.063c0 .034-.014.062-.031.062s-.031.029-.031.063c0 .035-.014.063-.031.063s-.031.028-.031.063-.014.063-.031.063-.031.042-.031.094-.013.095-.03.095c-.018 0-.031.028-.031.063 0 .034-.014.062-.031.062s-.031.029-.031.063c0 .035-.014.063-.031.063s-.031.028-.031.063-.014.063-.031.063-.031.042-.031.094-.014.095-.031.095-.031.028-.031.063c0 .034-.014.062-.031.062s-.031.043-.031.095c0 .052-.014.094-.031.094s-.031.028-.031.063-.014.063-.031.063-.031.056-.031.126c0 .069-.014.125-.031.125-.018 0-.031.105-.031.252 0 .147.013.252.031.252.017 0 .031.028.031.062 0 .035.014.063.031.063s.031.022.031.049c0 .063.138.203.2.203.026 0 .048.014.048.031 0 .018.028.032.062.032s.062.014.062.031c0 .019.123.032.309.032s.31-.013.31-.032c0-.017.021-.031.047-.031.062 0 .324-.267.324-.33 0-.026.014-.048.031-.048s.031-.028.031-.062c0-.035.014-.063.031-.063s.031-.029.031-.063c0-.035.014-.063.031-.063s.031-.028.031-.063.014-.063.031-.063.031-.028.031-.063c0-.034.014-.063.031-.063s.031-.042.031-.094.014-.094.031-.094.031-.029.031-.063c0-.035.014-.063.031-.063s.031-.028.031-.063.014-.063.031-.063.031-.042.031-.094.014-.095.031-.095.031-.028.031-.062c0-.035.014-.063.031-.063s.031-.029.031-.063c0-.035.014-.063.031-.063s.031-.043.031-.094c0-.052.013-.095.031-.095.017 0 .03-.028.03-.063 0-.034.014-.063.031-.063s.031-.042.031-.094.014-.094.031-.094.031-.029.031-.063c0-.035.014-.063.031-.063s.031-.028.031-.063.014-.063.031-.063.031-.042.031-.094.014-.094.031-.094.031-.029.031-.063c0-.035.014-.063.031-.063s.031-.029.031-.063c0-.035.014-.063.031-.063s.031-.042.031-.094.014-.095.031-.095.031-.028.031-.063c0-.034.014-.062.031-.062s.031-.029.031-.063c0-.035.014-.063.031-.063s.031-.043.031-.095c0-.051.014-.094.031-.094s.031-.028.031-.063c0-.034.014-.063.031-.063s.031-.028.031-.063c0-.034.014-.062.031-.062s.031-.043.031-.095c0-.052.013-.094.03-.094.018 0 .031-.028.031-.063s.014-.063.031-.063.031-.042.031-.094.014-.095.031-.095.031-.028.031-.062c0-.035.014-.063.031-.063s.031-.029.031-.063c0-.035.014-.063.031-.063s.031-.043.031-.094c0-.052.014-.095.031-.095s.031-.028.031-.063c0-.034.014-.063.031-.063s.031-.028.031-.062c0-.035.014-.063.031-.063s.031-.043.031-.095c0-.052.014-.094.031-.094s.031-.028.031-.063.014-.063.031-.063.031-.028.031-.063c0-.034.014-.063.031-.063s.031-.042.031-.094.014-.094.031-.094.031-.029.031-.063c0-.035.014-.063.031-.063s.031-.028.031-.063.013-.063.031-.063c.017 0 .03-.042.03-.094s.014-.094.031-.094.031-.029.031-.063c0-.035.014-.063.031-.063s.031-.029.031-.063c0-.035.014-.063.031-.063s.031-.042.031-.094.014-.095.031-.095.031-.028.031-.063c0-.034.014-.062.031-.062s.031-.043.031-.095c0-.052.014-.094.031-.094s.031-.043.031-.094c0-.052.014-.095.031-.095s.031-.056.031-.126c0-.069.014-.125.031-.125s.031-.057.031-.126-.014-.126-.031-.126-.031-.057-.031-.126-.014-.125-.031-.125-.031-.022-.031-.049c0-.062-.2-.266-.262-.266-.026 0-.048-.014-.048-.031 0-.018-.027-.032-.062-.032-.034 0-.061-.014-.061-.031 0-.019-.114-.032-.279-.032-.165 0-.279.013-.279.032 0 .017-.021.031-.047.031-.061 0-.386.33-.386.393 0 .026-.014.047-.031.047s-.031.029-.031.063c0 .035-.014.063-.031.063s-.031.028-.031.063-.014.063-.031.063-.031.028-.031.063c0 .034-.014.063-.031.063s-.031.042-.031.094-.014.094-.031.094-.031.029-.031.063c0 .035-.014.063-.031.063s-.031.043-.031.095c0 .051-.014.094-.031.094s-.031.028-.031.063c0 .034-.014.063-.031.063s-.031.042-.031.094-.014.094-.031.094-.031.029-.031.063c0 .035-.014.063-.031.063s-.031.043-.031.094c0 .052-.013.095-.03.095-.018 0-.031.028-.031.063 0 .034-.014.063-.031.063s-.031.042-.031.094-.014.094-.031.094-.031.028-.031.063-.014.063-.031.063-.031.042-.031.094-.014.095-.031.095-.031.028-.031.063c0 .034-.014.062-.031.062s-.031.043-.031.095c0 .052-.014.094-.031.094s-.031.028-.031.063-.014.063-.031.063-.031.028-.031.063c0 .034-.008.063-.018.063-.036 0-.106-.092-.106-.14 0-.027-.014-.049-.031-.049s-.031-.042-.031-.094-.014-.095-.031-.095-.031-.042-.031-.094-.014-.094-.031-.094-.031-.029-.031-.063c0-.035-.013-.063-.031-.063-.017 0-.03-.043-.03-.094 0-.052-.014-.095-.031-.095s-.031-.028-.031-.063c0-.034-.014-.063-.031-.063s-.031-.042-.031-.094-.014-.094-.031-.094-.031-.043-.031-.095c0-.051-.014-.094-.031-.094s-.031-.028-.031-.063c0-.034-.014-.063-.031-.063s-.031-.042-.031-.094-.014-.094-.031-.094-.031-.043-.031-.095c0-.052-.014-.094-.031-.094s-.031-.028-.031-.063-.014-.063-.031-.063-.031-.042-.031-.094-.014-.094-.031-.094-.031-.029-.031-.063c0-.035-.014-.063-.031-.063s-.031-.043-.031-.095c0-.051-.014-.094-.031-.094s-.031-.039-.031-.087a.17.17 0 00-.062-.133c-.034-.025-.062-.064-.062-.087 0-.057-.204-.259-.262-.259-.026 0-.047-.014-.047-.031 0-.018-.028-.032-.062-.032s-.062-.014-.062-.031c0-.019-.114-.032-.279-.032-.165 0-.278.013-.278.032zm-3.902 1.446c0 .018.083.032.186.032s.186.014.186.031.025.032.055.032.075.028.1.062c.024.035.063.063.085.063.053 0 .255.206.255.26 0 .022.028.061.062.086a.172.172 0 01.062.133c0 .048.014.087.031.087s.031.043.031.095c0 .052.014.094.031.094.019 0 .031.189.031.503 0 .315-.012.503-.031.503-.017 0-.031.043-.031.095 0 .051-.014.094-.031.094s-.031.028-.031.063c0 .034-.014.063-.031.063s-.031.028-.031.063c0 .034-.014.062-.031.062s-.031.022-.031.048c0 .063-.263.33-.324.33-.026 0-.047.014-.047.031s-.028.032-.062.032-.062.014-.062.031-.056.032-.124.032-.124.014-.124.031-.056.031-.124.031-.123-.014-.123-.031-.07-.031-.155-.031c-.085 0-.155-.015-.155-.032s-.025-.031-.055-.031c-.031 0-.075-.029-.1-.063-.024-.035-.063-.063-.086-.063-.053 0-.193-.142-.193-.196 0-.023-.027-.062-.062-.087-.034-.025-.061-.071-.061-.101 0-.031-.014-.056-.031-.056s-.031-.043-.031-.095c0-.052-.014-.094-.031-.094s-.031-.042-.031-.094-.014-.095-.031-.095c-.019 0-.031-.167-.031-.44 0-.272.012-.44.031-.44.017 0 .031-.043.031-.094 0-.052.014-.095.031-.095s.031-.042.031-.094.014-.094.031-.094.031-.023.031-.051c0-.027.041-.09.092-.138.052-.049.093-.105.093-.125 0-.05.079-.127.131-.127.023 0 .062-.028.086-.063a.17.17 0 01.131-.062c.047 0 .086-.015.086-.032s.069-.031.155-.031c.085 0 .154-.015.154-.032s.014-.031.031-.031.031.014.031.031zm18.206.063c0 .017.028.032.062.032s.062.014.062.031.022.031.048.031c.057 0 .324.266.324.323 0 .022.028.061.062.086a.176.176 0 01.062.133c0 .048.014.087.031.087s.031.043.031.095c0 .052.014.094.031.094.019 0 .031.189.031.503 0 .315-.012.503-.031.503-.017 0-.031.043-.031.095 0 .051-.014.094-.031.094s-.031.028-.031.063c0 .034-.014.063-.031.063s-.031.028-.031.063c0 .034-.014.062-.031.062s-.031.022-.031.048c0 .063-.263.33-.324.33-.026 0-.048.014-.048.031s-.028.032-.062.032-.062.014-.062.031-.055.032-.123.032-.124.014-.124.031-.056.031-.124.031-.124-.014-.124-.031-.07-.031-.155-.031c-.085 0-.155-.015-.155-.032s-.024-.031-.055-.031c-.03 0-.075-.029-.099-.063-.025-.035-.063-.063-.086-.063-.053 0-.193-.142-.193-.196 0-.023-.028-.062-.062-.087-.034-.025-.062-.071-.062-.101 0-.031-.014-.056-.031-.056s-.031-.043-.031-.095c0-.052-.014-.094-.031-.094s-.031-.057-.031-.126-.014-.126-.031-.126c-.019 0-.031-.157-.031-.408 0-.252.012-.409.031-.409.017 0 .031-.043.031-.094 0-.052.014-.095.031-.095s.031-.042.031-.094.014-.094.031-.094.031-.023.031-.051c0-.027.042-.09.093-.138.051-.049.093-.111.093-.139a.05.05 0 01.049-.05c.028 0 .089-.042.137-.094.053-.058.117-.094.167-.094.044 0 .08-.015.08-.032 0-.019.145-.031.372-.031s.371.012.371.031zM130.825 187.348c-.062-.325-.099-1.032.247-1.258.434-.283 1.363-.44 1.951-.943.588-.503.743-1.006.464-1.289-.278-.283-1.083.062-1.486.628-.402.566-.991 1.384-1.207 1.636-.217.251-.217.188-.248.157-.031-.032-.124-.378.062-.692.186-.314.093-.503-.062-.566-.155-.063-.434.189-.372.566.062.377.124.377.062.472-.062.094-.247-.252-.247-.503 0-1.164.619-1.95.557-2.768 0-.419-.217-1.257-1.084-1.257-1.083 0-1.022 1.163-1.022 1.415 0 .754 1.208 1.855 1.301 2.893.072.44.136 1.603-.186 2.735-.402 1.415-.699 2.233-.619 2.799.079.566 1.115 2.075 1.796.063.062-.273.148-.95 0-1.478-.186-.661-.558-.818-.372-1.227.186-.408.465-.314.774 0 .31.315.774 1.321 1.363 1.667.588.346.99.44 1.176.22.186-.22.155-.786-.34-1.069-.496-.283-.96-.252-1.641-.723-.545-.378-.805-1.143-.867-1.478zm-.805-5.094a.647.647 0 00-.589-.409c-.02.011-.018.069.155.22.217.189.403.629.434.723a.556.556 0 00.123.189c.011-.105 0-.396-.123-.723zm2.693 1.761c-.223.075-.34.325-.371.44.02.021.074.038.124-.063.062-.126.402-.251.557-.283.155-.031.341-.094.248-.126-.093-.031-.279-.063-.558.032zm.712 5.943c-.123-.201-.381-.252-.495-.252-.093.032-.031.063 0 .063s.279.126.372.377c.074.202.216.273.278.283 0-.073-.031-.27-.155-.471z" fill="#fff"/>
    <path d="M133.735 183.7c-.031-.073-.025-.302.248-.629.34-.408.588-.251.65-.125.062.125.062.503-.217.629-.278.125-.433.314-.681.125z" fill="#fff"/>
    <path d="M77.254 58.027c0 44.024 16.738 36.197 16.738 68.726 5.202 0 9.272-8.315 9.272-8.315 17.191 24.458 66.954 7.337 76.228 0 0 0-13.346-4.333-13.346-33.508 0-31.795 13.346-28.615 13.346-51.117 0-16.876-13.346-33.339-34.156-33.339 0 0-10.205.465-14.879 4.455-1.93-2.088-6.582-2.91-10.905-2.91-24.66 0-42.298 20.3-42.298 56.008z" fill="#F99853"/>
    <path d="M77.254 58.027c0 44.024 16.738 36.197 16.738 68.726 5.202 0 9.272-8.315 9.272-8.315 17.191 24.458 66.954 7.337 76.228 0 0 0-13.346-4.333-13.346-33.508 0-31.795 13.346-28.615 13.346-51.117 0-16.876-13.346-33.339-34.156-33.339 0 0-10.205.465-14.879 4.455-1.93-2.088-6.582-2.91-10.905-2.91-24.66 0-42.298 20.3-42.298 56.008z" fill="#2F3A3E"/>
    <path d="M111.452 136.303c0-2.147 1.714-4.417 1.714-4.417.708-.432 2.125-2.17 2.125-5.669V105.14h28v21.077c0 3.499 1.417 5.237 2.125 5.669 0 0 1.814 2.27 1.814 4.417 0 2.685-13.019 11.268-17.889 11.268-4.87 0-17.889-8.583-17.889-11.268z" fill="#fff"/>
    <path fill-rule="evenodd" clip-rule="evenodd" d="M143.291 119.787v-15.43h-28v2.697c4.341-.4 12.964 5.971 17.427 7.608 4.791 1.759 9.048 4.1 10.573 5.125z" fill="#F99853"/>
    <path d="M94.454 61.511a136.99 136.99 0 00-.058 6.376c.07 5.489.427 11.431 1.443 14.004l.184.468c2.346 6 11.584 29.615 33.391 29.615s31.045-23.615 33.392-29.615l.184-.468c1.015-2.573 1.373-8.515 1.443-14.004.014-1.128.016-2.236.01-3.293l-.069-3.075c-.031-3.716-.352-11.753-1.384-14.17-1.29-3.02-14.591-6.48-23.8-15.688-5.408 5.408-12.668 14.52-23.484 15.104-10.816.585-21.252 8.37-21.252 14.746z" fill="#fff"/>
    <path d="M162.99 81.89c3.841-.885 9.869-4.924 9.869-14.003 0-8.425-5.854-8.998-8.485-6.368.034 1.152.06 1.652.069 3.075.006 1.057.004 2.165-.01 3.293-.07 5.489-.428 11.431-1.443 14.004z" fill="#fff"/>
    <path d="M164.945 71.098c.107-.474.393-1.378.882-2.347.538-1.065 1.321-2.21 2.381-2.95" stroke="#2F3A3E" stroke-width="1.258" stroke-linecap="round" stroke-linejoin="round"/>
    <mask id="a" maskUnits="userSpaceOnUse" x="116" y="88" width="23" height="8">
        <path d="M128.429 88.138c-6.183 0-10.305.934-11.593 1.401 1.143 1.884 4.927 5.652 10.917 5.652s9.548-3.768 10.579-5.652c-.725-.467-3.72-1.4-9.903-1.4z" fill="#C4C4C4"/>
    </mask>
    <g mask="url(#a)">
        <path d="M128.429 88.138c-6.183 0-10.305.934-11.593 1.401 1.143 1.884 4.927 5.652 10.917 5.652s9.548-3.768 10.579-5.652c-.725-.467-3.72-1.4-9.903-1.4z" fill="#2F3A3E"/>
        <path d="M125.483 92.066c-1.971 0-3.559 1.385-4.106 2.077 0 2.995 4.106 3.381 6.521 3.381s6.183-.676 6.183-3.043c0-1.298-1.98-2.415-3.864-2.415-.817 0-1.848.23-2.224.497-.378-.322-1.636-.497-2.51-.497z" fill="#FCC49A"/>
    </g>
    <path d="M126.323 80.998c1.791.223 5.694.376 6.984-.806 1.611-1.477-3.627-4.97-1.209-24.04" stroke="#2F3A3E" stroke-width="1.258" stroke-linecap="round" stroke-linejoin="round"/>
    <path d="M149.456 65.43a2.854 2.854 0 00-2.789-2.479 2.85 2.85 0 00-2.853 2.403l.697.11a2.143 2.143 0 012.147-1.807 2.145 2.145 0 012.098 1.865l.7-.093zM112.312 65.43a2.848 2.848 0 00-4.662-1.809 2.848 2.848 0 00-.979 1.733l.697.11a2.141 2.141 0 012.147-1.807 2.145 2.145 0 012.098 1.865l.699-.093zM111.313 54.012c-3.237-.21-4.946 1.34-5.395 2.14.36-2.036.404-3.967 4.091-4.541 2.95-.46 5.935 1.966 7.059 3.236-.569-.192-2.517-.627-5.755-.835zM145.402 54.012c2.485 0 4.542.835 5.406 1.743 0-1.743-.74-3.91-4.102-4.144-2.978-.208-5.935 1.966-7.059 3.236.569-.191 2.511-.835 5.755-.835z" fill="#2F3A3E"/>
    <circle cx="111.493" cy="65.801" r="12.001" stroke="#FCC49A" stroke-width="2.516"/>
    <circle cx="147.243" cy="65.801" r="12.001" stroke="#FCC49A" stroke-width="2.516"/>
    <path fill-rule="evenodd" clip-rule="evenodd" d="M174.322 233.572c.216-.66.927-1.02 1.587-.804l13.648 4.474a1.258 1.258 0 01-.783 2.39l-13.649-4.473a1.257 1.257 0 01-.803-1.587zm-91.884-.216a1.258 1.258 0 01-.493 1.709l-11.822 6.524a1.259 1.259 0 01-1.215-2.203l11.822-6.524a1.259 1.259 0 011.708.494zm72.653 3.893a1.258 1.258 0 011.601.775l3.797 10.913a1.258 1.258 0 01-2.376.827l-3.797-10.914a1.257 1.257 0 01.775-1.601zm-14.263-.017a1.26 1.26 0 011.567.843l2.697 8.987a1.257 1.257 0 11-2.409.723l-2.698-8.986a1.26 1.26 0 01.843-1.567zm-31.699.042c.642.265.948 1 .683 1.642l-2.911 7.064a1.257 1.257 0 01-2.326-.959l2.912-7.063a1.257 1.257 0 011.642-.684zm-14.876.1c.587.371.762 1.148.39 1.735l-10.192 16.116a1.258 1.258 0 11-2.126-1.345l10.193-16.115a1.258 1.258 0 011.735-.391zm30.577-.183c.689.094 1.17.728 1.076 1.416l-1.966 14.382a1.26 1.26 0 01-2.493-.341l1.967-14.381a1.257 1.257 0 011.416-1.076zm42.112.279a1.259 1.259 0 011.772.162l9.087 10.914a1.257 1.257 0 11-1.933 1.609l-9.087-10.913a1.259 1.259 0 01.161-1.772z" fill="#2F3A3E"/>
    <path d="M228.565 148.706c-.691 3.208-6.407 4.697-6.407 4.697s-4.596-3.711-3.904-6.919c.691-3.208 4.601-3.097 5.488-.433 1.721-1.989 5.515-.553 4.823 2.655zM14.356 107.874c2.912 2.979.485 10.073.485 10.073s-7.148 2.265-10.06-.713c-2.911-2.979-.056-7.039 3.387-6.113-.901-3.215 3.276-6.225 6.188-3.247z" fill="#008FF7"/>
</svg>
