<svg width="309" height="235" fill="none" xmlns="http://www.w3.org/2000/svg">
    <path d="M21.067 70.791h231.915c11.481 0 20.788 9.308 20.788 20.789v2.368c0 10.173-8.247 18.42-18.42 18.42h-2.734c-8.664 0-15.687 7.024-15.687 15.687 0 8.664 7.023 15.687 15.687 15.687h35.918c10.996 0 19.91 8.914 19.91 19.909 0 10.996-8.914 19.91-19.91 19.91H48.361c-10.996 0-19.91-8.914-19.91-19.91 0-10.995 8.914-19.909 19.91-19.909h62.791c8.664 0 15.687-7.023 15.687-15.687 0-8.663-7.023-15.687-15.687-15.687H21.067C9.586 112.368.28 103.061.28 91.58S9.586 70.79 21.067 70.79z" fill="#CBF3FF"/>
    <rect x="51.455" y="118.862" width="25.727" height="48.368" rx="3.144" transform="rotate(-25.868 51.455 118.862)" fill="#2F3A3E"/>
    <path d="M118.576 141.034c-9.411 7.814-14.215 35.488-15.44 48.348h136.266c-1.226-12.86-6.029-40.534-15.44-48.348-4.998-4.149-12.688-7.748-20.037-10.503.864.335 2.923 2.293 1.643 6.955-1.628 5.931-8.009 12.136-12.999 15.978-5.346 4.116-14.822 5.81-21.3 5.81-6.478 0-15.955-1.694-21.3-5.81-4.99-3.842-11.372-10.047-13-15.978-1.28-4.662.765-6.635 1.628-6.97-7.334 2.757-15.014 6.361-20.021 10.518z" fill="#2F3A3E"/>
    <path d="M153.379 129.808c0-2.14 1.714-4.401 1.714-4.401a121.484 121.484 0 00-6.675 1.807l-.876.264s-1.713 2.262-1.713 4.401c0 2.675 10.702 15.372 25.44 15.372 14.738 0 25.44-12.697 25.44-15.372 0-2.139-1.8-4.401-1.8-4.401l-.878-.264a123.487 123.487 0 00-6.687-1.807s1.814 2.261 1.814 4.401c0 2.675-13.019 11.226-17.889 11.226-4.871 0-17.89-8.551-17.89-11.226z" fill="#2F3A3E"/>
    <path d="M153.379 129.808c0-2.14 1.714-4.401 1.714-4.401a121.484 121.484 0 00-6.675 1.807l-.876.264s-1.713 2.262-1.713 4.401c0 2.675 10.702 15.372 25.44 15.372 14.738 0 25.44-12.697 25.44-15.372 0-2.139-1.8-4.401-1.8-4.401l-.878-.264a123.487 123.487 0 00-6.687-1.807s1.814 2.261 1.814 4.401c0 2.675-13.019 11.226-17.889 11.226-4.871 0-17.89-8.551-17.89-11.226z" fill="#2F3A3E"/>
    <path d="M145.829 131.879c0-2.139 1.713-4.401 1.713-4.401a153.246 153.246 0 00-7.762 2.599l-1.183.439c-.863.335-2.908 2.308-1.628 6.97 1.628 5.931 8.01 12.136 13 15.978 5.345 4.116 14.822 5.81 21.3 5.81 6.478 0 15.954-1.694 21.3-5.81 4.99-3.842 11.371-10.047 12.999-15.978 1.28-4.662-.779-6.62-1.643-6.955l-.782-.291a153.097 153.097 0 00-9.112-3.026l.878.264s1.8 2.262 1.8 4.401c0 2.675-10.702 15.372-25.44 15.372-14.738 0-25.44-12.697-25.44-15.372z" fill="#fff"/>
    <path d="M155.093 125.407s-1.714 2.261-1.714 4.401c0 2.675 13.019 11.226 17.89 11.226 4.87 0 17.889-8.551 17.889-11.226 0-2.14-1.814-4.401-1.814-4.401l-.922-.126-15.153-2.072-15.249 2.072-.927.126z" fill="#fff"/>
    <path d="M155.093 125.407s-1.714 2.261-1.714 4.401c0 2.675 13.019 11.226 17.89 11.226 4.87 0 17.889-8.551 17.889-11.226 0-2.14-1.814-4.401-1.814-4.401m-32.251 0l.927-.126 15.249-2.072 15.153 2.072.922.126m-32.251 0a121.484 121.484 0 00-6.675 1.807m75.544 13.82c9.411 7.814 14.214 35.488 15.44 48.348H101.2c1.226-12.86 7.965-40.534 17.376-48.348 5.007-4.157 12.687-7.761 20.021-10.518m85.365 10.518c-5.176-4.297-13.238-8.003-20.819-10.794m20.819 10.794c-4.998-4.149-12.688-7.748-20.037-10.503m-16.581-5.124c1.793.424 4.091 1.033 6.687 1.807m-46.489.264s-1.713 2.262-1.713 4.401c0 2.675 10.702 15.372 25.44 15.372 14.738 0 25.44-12.697 25.44-15.372 0-2.139-1.8-4.401-1.8-4.401l-.878-.264m-46.489.264l.876-.264m-.876.264a153.246 153.246 0 00-7.762 2.599m-1.183.439c-.863.335-2.908 2.308-1.628 6.97 1.628 5.932 8.01 12.136 13 15.978 5.345 4.116 14.822 5.81 21.3 5.81 6.478 0 15.954-1.694 21.3-5.81 4.99-3.842 11.371-10.046 12.999-15.978 1.28-4.662-.779-6.62-1.643-6.955m-65.328-.015c.396-.149.79-.295 1.183-.439m-1.183.439l1.183-.439m64.145.454l-.782-.291m0 0a153.097 153.097 0 00-9.112-3.026m-45.613 0c-2.645.79-5.597 1.751-8.638 2.863" stroke="#2F3A3E" stroke-width="2.516"/>
    <path fill-rule="evenodd" clip-rule="evenodd" d="M105.578 162.926c-3.119 9.565-5.214 19.78-5.837 26.316-.226 2.375-.52 4.808-.754 6.624a217.211 217.211 0 01-.395 2.924l-20.228-44.078-15.717 7.586 14.33 51.15a28.254 28.254 0 0014.5 17.613l.331.166a26.22 26.22 0 009.054 2.658l2.027.213a18.453 18.453 0 0016.744-7.348l.749-1.009a23.193 23.193 0 002.497-4.238l1.632-5.395a154.392 154.392 0 004.971-22.243l.51-3.468a.943.943 0 111.867.274l-.51 3.469a156.352 156.352 0 01-5.032 22.514l-.179.591c10.249 3.917 24.482 6.62 44.261 6.62 25.531 0 51.542-3.014 63.54-4.612 3.96-.528 6.864-3.891 6.891-7.885.047-6.942.085-17.277-.058-22.085-.29-9.817-1.929-15.952-4.254-24.648l-.433-1.622c-1.276-4.792-2.818-9.46-4.652-13.442-1.822-3.959-3.983-7.353-6.549-9.484-4.975-4.13-12.438-7.673-19.565-10.398-.117-.044-.232-.093-.347-.141-.107-.045-.213-.09-.321-.132a2.433 2.433 0 00-.091-.032l-.86-.302-.438 1.179-.435 1.18c.254.094.509.188.764.284a.69.69 0 01.107.064c.067.046.151.115.244.211.185.19.395.479.565.889.335.806.548 2.167-.033 4.285-.741 2.7-2.603 5.564-4.974 8.278-2.355 2.695-5.133 5.152-7.58 7.036-2.477 1.907-5.993 3.305-9.756 4.223-3.747.914-7.635 1.326-10.777 1.326-3.141 0-7.03-.412-10.776-1.326-3.764-.918-7.279-2.316-9.756-4.223-2.448-1.884-5.226-4.341-7.581-7.036-2.371-2.714-4.232-5.578-4.973-8.278-.582-2.119-.373-3.486-.039-4.297a2.82 2.82 0 01.562-.894c.092-.096.176-.165.242-.211.059-.041.095-.058.103-.062l1.162-.431.005-.002-.869-2.36c-.397.144-.795.292-1.194.442-7.364 2.768-15.207 6.432-20.382 10.728-2.545 2.113-4.845 5.481-6.879 9.428-2.045 3.968-3.872 8.624-5.434 13.411z" fill="#2F3A3E"/>
    <path d="M178.893 224.011l-14.438.317a3.717 3.717 0 01-3.799-3.717c0-8.668 7.027-15.695 15.695-15.695h.779l-1.153 1.751c-3.722 5.652-2.45 13.22 2.916 17.344z" fill="#fff"/>
    <path d="M143.604 118.31c6.955 1.644 13.025.885 13.025 6.196h29.142c0-5.311 6.07-4.552 13.026-6.196 6.955-1.644 18.21-5.565 18.21-12.646v-60.44c0-24.66-19.991-44.65-44.651-44.65h-1.76c-24.661 0-45.203 19.99-45.203 44.65v60.44c0 7.081 11.255 11.002 18.211 12.646z" fill="#F99853"/>
    <path d="M143.604 118.31c6.955 1.644 13.025.885 13.025 6.196h29.142c0-5.311 6.07-4.552 13.026-6.196 6.955-1.644 18.21-5.565 18.21-12.646v-60.44c0-24.66-19.991-44.65-44.651-44.65h-1.76c-24.661 0-45.203 19.99-45.203 44.65v60.44c0 7.081 11.255 11.002 18.211 12.646z" fill="#FCC49A"/>
    <path d="M153.38 129.832c0-2.147 1.713-4.417 1.713-4.417.709-.432 2.126-2.17 2.126-5.669V98.669h28v21.077c0 3.499 1.416 5.237 2.125 5.669 0 0 1.814 2.27 1.814 4.417 0 2.685-13.019 11.268-17.889 11.268-4.87 0-17.889-8.583-17.889-11.268z" fill="#fff"/>
    <path fill-rule="evenodd" clip-rule="evenodd" d="M185.219 113.316v-15.43h-28v2.697c4.34-.4 12.964 5.971 17.426 7.609 4.791 1.758 9.049 4.099 10.574 5.124z" fill="#F99853"/>
    <path fill-rule="evenodd" clip-rule="evenodd" d="M171.908 106.302c-21.807 0-31.045-23.615-33.392-29.614l-.184-.47c-3.841-.885-11.523-4.924-11.523-14.003 0-8.425 5.919-9.176 10.139-6.375 4.488 0 9.264-5.049 9.264-9.062v-.284c0-10.903 8.842-19.741 19.745-19.741h1.246c2.399 0 3.206.392 4.101.827 1.115.542 2.367 1.15 6.999 1.15 6.682 0 10.771-2.344 11.98-3.516 0 0 2.121 6.987 4.726 10.77 1.112 1.617 2.505 2.562 3.848 3.474 1.689 1.147 3.3 2.24 4.174 4.55.603 1.59-.13 3.949-.791 6.075-.823 2.648-1.534 4.936.585 4.936 1.352 0 2.69.267 3.939.785l.104.043.068 3.075c-.009-1.423-.034-1.923-.068-3.075 2.63-2.63 8.485-2.057 8.485 6.368 0 9.079-6.028 13.118-9.869 14.004l-.184.467v.002c-2.347 5.999-11.585 29.614-33.392 29.614z" fill="#fff"/>
    <path d="M207.474 63.767c.107-.474.393-1.377.882-2.346.538-1.065 1.32-2.21 2.381-2.95M136.071 63.767c-.108-.474-.394-1.377-.882-2.346-.538-1.065-1.321-2.21-2.381-2.95" stroke="#2F3A3E" stroke-width="1.258" stroke-linecap="round" stroke-linejoin="round"/>
    <mask id="a" maskUnits="userSpaceOnUse" x="159" y="80" width="22" height="8">
        <path d="M170.958 80.808c-6.183 0-10.305.933-11.593 1.4 1.143 1.884 4.927 5.652 10.917 5.652s9.548-3.768 10.578-5.651c-.724-.468-3.719-1.401-9.902-1.401z" fill="#C4C4C4"/>
    </mask>
    <g mask="url(#a)">
        <path d="M170.958 80.808c-6.183 0-10.305.933-11.593 1.4 1.143 1.884 4.927 5.652 10.917 5.652s9.548-3.768 10.578-5.651c-.724-.468-3.719-1.401-9.902-1.401z" fill="#2F3A3E"/>
        <path d="M168.011 84.735c-1.971 0-3.558 1.385-4.106 2.077 0 2.995 4.106 3.382 6.522 3.382 2.415 0 6.183-.677 6.183-3.044 0-1.297-1.981-2.415-3.865-2.415-.816 0-1.847.23-2.223.497-.379-.322-1.637-.497-2.511-.497z" fill="#FCC49A"/>
    </g>
    <path d="M168.852 73.667c1.79.224 5.694.376 6.983-.806 1.612-1.477-3.626-4.969-1.208-24.04" stroke="#2F3A3E" stroke-width="1.258" stroke-linecap="round" stroke-linejoin="round"/>
    <circle cx="152.641" cy="58.471" r="2.851" fill="#2F3A3E"/>
    <circle cx="181.148" cy="58.471" r="2.851" fill="#2F3A3E"/>
    <path d="M153.842 46.681c-3.237-.209-4.946 1.34-5.395 2.14.359-2.035.404-3.967 4.091-4.54 2.95-.46 5.935 1.965 7.059 3.235-.569-.191-2.518-.626-5.755-.835zM187.931 46.681c2.485 0 4.542.835 5.406 1.743 0-1.743-.741-3.909-4.102-4.143-2.978-.208-5.935 1.965-7.059 3.235.569-.191 2.511-.835 5.755-.835z" fill="#2F3A3E"/>
    <path d="M156.786 67.378c0 .538-.177.974-.496 1.336-.325.368-.81.672-1.442.912-1.269.482-3.05.676-5.057.676-2.007 0-3.788-.194-5.057-.676-.632-.24-1.117-.544-1.442-.912a1.945 1.945 0 01-.496-1.336c0-.538.176-.947.487-1.273.32-.334.8-.597 1.434-.796 1.272-.399 3.056-.507 5.074-.507s3.802.108 5.074.507c.634.2 1.114.462 1.434.796.311.326.487.735.487 1.273zM198.473 67.378c0 .538-.176.974-.496 1.336-.325.368-.81.672-1.442.912-1.268.482-3.05.676-5.057.676-2.007 0-3.788-.194-5.057-.676-.632-.24-1.117-.544-1.442-.912a1.945 1.945 0 01-.496-1.336c0-.538.176-.947.488-1.273.319-.334.799-.597 1.433-.796 1.272-.399 3.056-.507 5.074-.507s3.802.108 5.075.507c.633.2 1.113.462 1.433.796.312.326.487.735.487 1.273z" fill="#FCC49A" stroke="#F99853" stroke-width=".629"/>
    <path d="M64.715 161.391l13.105-4.605a.094.094 0 01.053-.004.103.103 0 00.12-.115l-.333-2.535a1.886 1.886 0 01.901-1.865l2.781-1.665c.224-.133.402-.331.513-.567a3.27 3.27 0 00-1.709-4.409l-.47-.195 1.011-.572a.967.967 0 00.49-.841v-1.121a3.256 3.256 0 00-2.894-3.236l.993-.435a.812.812 0 00.474-.605 3.789 3.789 0 00-2.573-4.252.811.811 0 00-.598.041l-2.678 1.28.063-.233a3.889 3.889 0 00-3.305-4.864.836.836 0 00-.436.067l-9.132 4.065c-1.09.485-2.212-.61-1.754-1.711l-2.808-5.196-2.318 3.083a9.604 9.604 0 00-1.637 8.113l.398 1.58a18.928 18.928 0 001.424 3.842l8.006 16.018a1.887 1.887 0 002.313.937z" fill="#fff"/>
    <path d="M77.846 156.777v0a.123.123 0 00.144-.137l-.33-2.508a1.886 1.886 0 01.901-1.865l2.781-1.665c.224-.133.402-.331.513-.567v0a3.27 3.27 0 00-1.709-4.409l-.47-.195m-23.147-17.613l2.808 5.196v0c-.458 1.101.664 2.196 1.754 1.711l9.132-4.065a.836.836 0 01.436-.067v0a3.889 3.889 0 013.304 4.864l-.062.233m0 0l-11.325 4.972M73.9 135.69l2.678-1.28a.811.811 0 01.598-.041v0a3.789 3.789 0 012.573 4.252v0a.812.812 0 01-.474.605l-.993.435m-12.336 5.77l12.336-5.77m-9.746 10.736l11.138-4.966m0 0l1.012-.572a.967.967 0 00.49-.841v-1.121a3.256 3.256 0 00-2.894-3.236v0" stroke="#2F3A3E" stroke-width="1.258" stroke-linecap="round" stroke-linejoin="round"/>
    <circle cx="46.224" cy="85.241" r="13.428" fill="#FCC49A"/>
    <circle cx="43.826" cy="80.445" r="1.918" fill="#FFF0E5"/>
    <circle cx="52.938" cy="79.006" r="1.918" fill="#FFF0E5"/>
    <circle cx="87.468" cy="71.813" r="13.428" fill="#008FF7"/>
    <circle cx="87.468" cy="71.813" r="13.428" fill="#FCC49A"/>
    <path d="M91.954 66.662s-1.18-.136-2.573.084c-1.393.221-2.473.715-2.473.715a2.554 2.554 0 015.046-.799zM82.842 68.101s-1.18-.136-2.573.084a10.57 10.57 0 00-2.473.715 2.554 2.554 0 115.046-.799z" fill="#FFF0E5"/>
    <path d="M57.12 86.2a7.673 7.673 0 01-14.016 4.32c-.978-1.434.185-3.145 1.89-3.47l10.57-2.017c.785-.15 1.556.368 1.556 1.167zM93.497 73.149a7.673 7.673 0 01-14.238 3.521c-.895-1.486.363-3.129 2.083-3.357l10.667-1.418c.792-.105 1.533.456 1.488 1.254z" fill="#F99853"/>
    <circle cx="71.162" cy="91.475" r="1.918" fill="#F99853"/>
    <circle cx="76.917" cy="91.475" r="1.918" fill="#F99853"/>
    <circle cx="82.672" cy="91.475" r="1.918" fill="#F99853"/>
    <path fill-rule="evenodd" clip-rule="evenodd" d="M40.379 55.727c0 .02-.066.036-.146.036-.08 0-.146.017-.146.037 0 .02-.025.037-.056.037-.072 0-.309.237-.309.31 0 .031-.016.056-.036.056-.02 0-.037.033-.037.074 0 .04-.016.073-.036.073-.024 0-.036.954-.036 2.788 0 1.834-.013 2.788-.037 2.788-.022 0-.036.135-.036.33 0 .196-.015.33-.037.33-.02 0-.036.042-.036.093 0 .127-.293.421-.419.421-.05 0-.092.017-.092.037 0 .02-.05.037-.11.037s-.109-.017-.109-.037c0-.02-.049-.037-.11-.037-.06 0-.108-.016-.108-.037 0-.02-.033-.036-.073-.036-.04 0-.073-.017-.073-.037 0-.02-.033-.037-.073-.037-.04 0-.073-.016-.073-.036 0-.02-.033-.037-.073-.037-.04 0-.073-.016-.073-.037 0-.02-.033-.036-.073-.036-.04 0-.073-.017-.073-.037 0-.02-.033-.037-.073-.037-.04 0-.073-.016-.073-.036 0-.022-.121-.037-.292-.037-.17 0-.291.015-.291.037 0 .02-.033.036-.073.036-.04 0-.073.017-.073.037 0 .02-.026.037-.057.037-.074 0-.162.088-.162.162 0 .032-.016.058-.036.058-.02 0-.037.033-.037.073 0 .04-.016.074-.036.074-.02 0-.037.05-.037.11s-.016.11-.036.11c-.021 0-.037.11-.037.257 0 .146.016.256.037.256.02 0 .036.05.036.11s.017.11.037.11c.02 0 .036.026.036.056 0 .073.383.458.455.458.03 0 .056.016.056.037 0 .02.032.036.072.036.04 0 .073.017.073.037 0 .02.033.037.073.037.04 0 .073.016.073.036 0 .02.033.037.073.037.04 0 .073.017.073.037 0 .02.066.037.146.037.08 0 .146.016.146.036 0 .02.066.037.146.037.08 0 .146.016.146.037 0 .022.23.036.62.036.389 0 .62-.014.62-.037 0-.02.082-.036.182-.036.1 0 .182-.017.182-.037 0-.02.05-.037.11-.037s.109-.016.109-.036c0-.02.033-.037.073-.037.04 0 .073-.016.073-.037 0-.02.033-.036.073-.036.04 0 .073-.017.073-.037 0-.02.029-.037.065-.037.035 0 .088-.033.117-.073.029-.04.074-.073.1-.073.062 0 .374-.314.374-.376 0-.027.033-.072.073-.101.04-.03.073-.082.073-.118 0-.036.017-.066.037-.066.02 0 .036-.033.036-.073 0-.04.016-.073.036-.073.02 0 .037-.05.037-.11 0-.061.016-.11.036-.11.02 0 .037-.067.037-.147 0-.081.016-.147.036-.147.02 0 .037-.098.037-.22s.016-.22.036-.22c.024 0 .037-1.089.037-3.192s-.013-3.192-.037-3.192c-.02 0-.036-.049-.036-.11 0-.06-.017-.11-.037-.11-.02 0-.036-.025-.036-.056 0-.074-.163-.237-.236-.237-.03 0-.056-.017-.056-.037 0-.02-.033-.036-.073-.036-.04 0-.073-.017-.073-.037 0-.02-.065-.037-.146-.037-.08 0-.146-.016-.146-.036 0-.02-.065-.037-.145-.037-.08 0-.146.016-.146.037zm4.668 2.2c0 .02-.082.037-.183.037-.1 0-.182.017-.182.037 0 .02-.05.037-.11.037s-.109.016-.109.036c0 .02-.05.037-.11.037s-.109.017-.109.037c0 .02-.032.036-.073.036-.04 0-.073.017-.073.037 0 .02-.029.037-.064.037-.036 0-.089.033-.118.073-.029.04-.075.073-.103.073-.027 0-.096.05-.152.11-.056.061-.12.11-.143.11-.054 0-.368.316-.368.37 0 .023-.049.088-.11.144-.06.057-.108.126-.108.154 0 .027-.033.074-.074.103-.04.03-.072.082-.072.118 0 .036-.017.065-.037.065-.02 0-.036.033-.036.074 0 .04-.017.073-.037.073-.02 0-.036.033-.036.074 0 .04-.017.073-.037.073-.02 0-.036.05-.036.11s-.017.11-.037.11c-.02 0-.036.05-.036.11s-.017.11-.037.11c-.02 0-.036.066-.036.147 0 .08-.017.147-.036.147-.022 0-.037.146-.037.366s-.015.367-.036.367c-.02 0-.037.066-.037.147 0 .08.017.147.037.147.021 0 .036.134.036.33s.015.33.037.33c.02 0 .036.083.036.184 0 .1.016.183.036.183.02 0 .037.05.037.11s.016.11.036.11c.02 0 .037.05.037.11s.016.11.036.11c.02 0 .037.033.037.074 0 .04.016.073.036.073.02 0 .037.033.037.073 0 .04.016.074.036.074.02 0 .037.03.037.065 0 .036.032.089.072.118.04.03.074.076.074.104 0 .027.049.096.109.153.06.056.11.121.11.144 0 .053.386.443.44.443.022 0 .087.05.143.11.056.06.128.11.16.11s.059.016.059.037c0 .02.032.036.072.036.04 0 .073.017.073.037 0 .02.033.037.073.037.04 0 .073.016.073.036 0 .02.05.037.11.037s.11.017.11.037c0 .02.048.037.108.037s.11.016.11.036c0 .02.082.037.182.037.1 0 .183.016.183.037 0 .022.218.036.583.036s.584-.014.584-.037c0-.02.065-.036.145-.036.08 0 .146-.017.146-.037 0-.02.066-.037.146-.037.08 0 .146-.016.146-.036 0-.02.033-.037.073-.037.04 0 .073-.016.073-.037 0-.02.033-.036.073-.036.04 0 .073-.017.073-.037 0-.02.033-.037.073-.037.04 0 .073-.016.073-.036 0-.02.026-.037.058-.037s.104-.05.16-.11c.057-.06.12-.11.143-.11.057 0 .587-.539.587-.597 0-.026.033-.071.073-.1.04-.03.073-.082.073-.118 0-.036.016-.066.036-.066.02 0 .037-.029.037-.065 0-.036.032-.089.072-.118a.2.2 0 00.073-.155c0-.056.017-.102.037-.102.02 0 .036-.033.036-.073 0-.04.017-.074.037-.074.02 0 .036-.049.036-.11 0-.06.017-.11.037-.11.02 0 .036-.066.036-.146 0-.081.017-.147.037-.147.02 0 .036-.098.036-.22 0-.123.016-.22.037-.22.022 0 .036-.208.036-.55 0-.343-.014-.55-.036-.55-.02 0-.037-.099-.037-.221s-.016-.22-.036-.22c-.02 0-.037-.05-.037-.11s-.016-.11-.036-.11c-.02 0-.037-.05-.037-.11s-.016-.11-.036-.11c-.02 0-.037-.033-.037-.074 0-.04-.016-.073-.036-.073-.02 0-.037-.046-.037-.102 0-.06-.03-.124-.072-.155-.04-.029-.073-.082-.073-.118 0-.036-.017-.065-.037-.065-.02 0-.036-.03-.036-.066 0-.035-.033-.089-.073-.118-.04-.029-.073-.074-.073-.1 0-.062-.605-.67-.666-.67-.026 0-.071-.033-.1-.074-.029-.04-.082-.073-.117-.073-.036 0-.065-.016-.065-.037 0-.02-.033-.036-.073-.036-.04 0-.073-.017-.073-.037 0-.02-.033-.037-.073-.037-.04 0-.073-.016-.073-.036 0-.02-.05-.037-.11-.037s-.109-.017-.109-.037c0-.02-.05-.036-.11-.036s-.109-.017-.109-.037c0-.02-.082-.037-.182-.037-.1 0-.182-.016-.182-.036 0-.023-.207-.037-.547-.037-.34 0-.547.014-.547.037zm20.786 0c0 .02-.066.037-.146.037-.08 0-.146.017-.146.037 0 .02-.049.037-.11.037-.06 0-.109.016-.109.036 0 .02-.032.037-.073.037-.04 0-.072.017-.072.037 0 .02-.033.036-.073.036-.04 0-.073.017-.073.037 0 .02-.03.037-.065.037-.036 0-.089.033-.118.073-.029.04-.073.073-.1.073-.06 0-.738.682-.738.744 0 .026-.033.071-.073.1-.04.03-.073.083-.073.118 0 .036-.017.066-.037.066-.02 0-.036.033-.036.073 0 .04-.017.073-.037.073-.02 0-.036.033-.036.074 0 .04-.017.073-.037.073-.02 0-.036.033-.036.074 0 .04-.017.073-.037.073-.02 0-.036.05-.036.11s-.016.11-.037.11c-.02 0-.036.05-.036.11s-.016.11-.036.11c-.02 0-.037.066-.037.147 0 .08-.016.147-.036.147-.022 0-.037.122-.037.293 0 .171-.015.294-.036.294-.022 0-.037.134-.037.33 0 .195.015.33.037.33.02 0 .036.11.036.257 0 .147.016.257.037.257.02 0 .036.066.036.146 0 .081.017.147.037.147.02 0 .036.05.036.11s.016.11.036.11c.02 0 .037.05.037.11s.016.11.036.11c.02 0 .037.033.037.074 0 .04.016.073.036.073.02 0 .037.033.037.073 0 .04.016.074.036.074.02 0 .037.033.037.073 0 .04.016.073.036.073.02 0 .037.027.037.06 0 .031.049.104.11.16.06.057.108.122.108.144 0 .057.61.664.667.664.026 0 .07.033.1.073.028.04.081.073.117.073.035 0 .065.017.065.037 0 .02.032.037.073.037.04 0 .073.016.073.036 0 .02.032.037.072.037.04 0 .073.017.073.037 0 .02.05.037.11.037s.11.016.11.036c0 .02.065.037.145.037.08 0 .146.016.146.037 0 .022.194.036.51.036s.511-.014.511-.037c0-.02.066-.036.146-.036.08 0 .146-.017.146-.037 0-.02.033-.037.073-.037.04 0 .073-.016.073-.036 0-.02.032-.037.073-.037.04 0 .073-.016.073-.037 0-.02.025-.036.056-.036s.154-.1.272-.22c.21-.216.328-.275.328-.165 0 .073.383.458.455.458.03 0 .055.017.055.037 0 .022.146.037.365.037s.365-.015.365-.037c0-.02.025-.037.055-.037.073 0 .382-.311.382-.384 0-.03.017-.056.037-.056.02 0 .036-.05.036-.11s.017-.11.037-.11c.024 0 .036-.93.036-2.715 0-1.785-.012-2.715-.036-2.715-.02 0-.037-.05-.037-.11s-.016-.11-.036-.11c-.02 0-.037-.025-.037-.056 0-.094-.315-.384-.418-.384-.05 0-.092-.017-.092-.037 0-.021-.134-.036-.328-.036-.195 0-.329.015-.329.036 0 .02-.029.037-.064.037-.036 0-.089.033-.118.073-.029.04-.082.074-.117.074a.063.063 0 00-.065.065c0 .036-.033.09-.073.118-.04.03-.073.082-.073.118 0 .124-.114.065-.365-.191-.138-.141-.277-.257-.308-.257-.031 0-.056-.017-.056-.037 0-.02-.05-.036-.11-.036s-.11-.017-.11-.037c0-.02-.065-.037-.145-.037-.08 0-.146-.016-.146-.036 0-.023-.195-.037-.51-.037-.317 0-.511.014-.511.037zm-15.608.147c0 .02-.033.037-.073.037-.04 0-.073.017-.073.037 0 .02-.025.036-.056.036-.03 0-.113.058-.182.128-.07.07-.127.152-.127.183s-.016.056-.036.056c-.022 0-.036.147-.036.367s.014.367.036.367c.02 0 .036.05.036.11s.017.11.037.11c.02 0 .036.033.036.073 0 .04.017.074.037.074.02 0 .036.05.036.11s.017.11.037.11c.02 0 .036.033.036.073 0 .04.017.074.037.074.02 0 .036.05.036.11s.017.11.037.11c.02 0 .036.033.036.073 0 .04.017.074.036.074.02 0 .037.032.037.073 0 .04.016.073.036.073.02 0 .037.05.037.11s.016.11.036.11c.02 0 .037.033.037.074 0 .04.016.073.036.073.02 0 .037.05.037.11s.016.11.036.11c.02 0 .037.033.037.074 0 .04.016.073.036.073.02 0 .037.05.037.11s.016.11.036.11c.02 0 .037.033.037.073 0 .04.016.074.036.074.02 0 .037.033.037.073 0 .04.016.074.036.074.02 0 .037.05.037.11s.016.11.036.11c.02 0 .036.033.036.073 0 .04.017.073.037.073.02 0 .036.05.036.11 0 .061.017.11.037.11.02 0 .036.034.036.074 0 .04.017.073.037.073.02 0 .036.033.036.074 0 .04.017.073.037.073.02 0 .036.05.036.11s.017.11.037.11c.02 0 .036.033.036.073 0 .04.017.074.037.074.02 0 .036.05.036.11s.016.11.036.11c.02 0 .037.033.037.073 0 .04.016.074.036.074.02 0 .037.033.037.073 0 .04.016.073.036.073.02 0 .037.05.037.11 0 .061.016.11.036.11.02 0 .037.034.037.074 0 .04.016.073.036.073.02 0 .037.05.037.11s.016.11.036.11c.02 0 .037.066.037.147 0 .08-.017.147-.037.147-.02 0-.036.033-.036.073 0 .04-.017.074-.037.074-.02 0-.036.033-.036.073 0 .04-.017.073-.037.073-.02 0-.036.033-.036.074 0 .04-.017.073-.037.073-.02 0-.036.05-.036.11s-.017.11-.037.11c-.02 0-.036.033-.036.074 0 .04-.017.073-.037.073-.02 0-.036.033-.036.073 0 .04-.016.074-.036.074-.02 0-.037.033-.037.073 0 .04-.016.073-.036.073-.02 0-.037.05-.037.11 0 .061-.016.11-.036.11-.02 0-.037.034-.037.074 0 .04-.016.073-.036.073-.02 0-.037.05-.037.11s-.016.11-.036.11c-.02 0-.037.033-.037.074 0 .04-.016.073-.036.073-.02 0-.037.066-.037.147 0 .08-.016.147-.036.147-.021 0-.036.122-.036.293 0 .171.015.294.036.294.02 0 .036.033.036.073 0 .04.017.073.037.073.02 0 .036.026.036.057 0 .073.163.237.236.237.03 0 .056.016.056.037 0 .02.033.036.073.036.04 0 .073.017.073.037 0 .022.146.037.365.037.218 0 .364-.015.364-.037 0-.02.025-.037.056-.037.072 0 .382-.311.382-.384 0-.03.016-.056.036-.056.02 0 .037-.033.037-.073 0-.04.016-.074.036-.074.02 0 .037-.033.037-.073 0-.04.016-.074.036-.074.02 0 .037-.033.037-.073 0-.04.016-.073.036-.073.02 0 .037-.033.037-.074 0-.04.016-.073.036-.073.02 0 .037-.05.037-.11s.016-.11.036-.11c.02 0 .036-.033.036-.073 0-.04.017-.074.037-.074.02 0 .036-.033.036-.073 0-.04.017-.074.037-.074.02 0 .036-.05.036-.11s.017-.11.037-.11c.02 0 .036-.033.036-.073 0-.04.017-.073.037-.073.02 0 .036-.034.036-.074 0-.04.017-.073.037-.073.02 0 .036-.05.036-.11s.017-.11.037-.11c.02 0 .036-.033.036-.074 0-.04.017-.073.037-.073.02 0 .036-.05.036-.11s.017-.11.037-.11c.02 0 .036-.033.036-.073 0-.04.016-.074.037-.074.02 0 .036-.033.036-.073 0-.04.016-.074.036-.074.02 0 .037-.05.037-.11s.016-.11.036-.11c.02 0 .037-.033.037-.073 0-.04.016-.074.036-.074.02 0 .037-.032.037-.073 0-.04.016-.073.036-.073.02 0 .037-.05.037-.11s.016-.11.036-.11c.02 0 .037-.033.037-.074 0-.04.016-.073.036-.073.02 0 .036-.033.036-.073 0-.04.017-.074.037-.074.02 0 .036-.05.036-.11s.017-.11.037-.11c.02 0 .036-.033.036-.073 0-.04.017-.074.037-.074.02 0 .036-.033.036-.073 0-.04.017-.073.037-.073.02 0 .036-.05.036-.11 0-.061.017-.11.037-.11.02 0 .036-.034.036-.074 0-.04.017-.073.037-.073.02 0 .036-.05.036-.11s.017-.11.037-.11c.02 0 .036-.033.036-.074 0-.04.017-.073.037-.073.02 0 .036-.033.036-.073 0-.04.016-.074.037-.074.02 0 .036-.05.036-.11s.016-.11.036-.11c.02 0 .037-.033.037-.073 0-.04.016-.074.036-.074.02 0 .037-.033.037-.073 0-.04.016-.073.036-.073.02 0 .037-.05.037-.11 0-.061.016-.11.036-.11.02 0 .037-.034.037-.074 0-.04.016-.073.036-.073.02 0 .037-.033.037-.074 0-.04.016-.073.036-.073.02 0 .037-.05.037-.11s.016-.11.036-.11c.02 0 .036-.033.036-.074 0-.04.017-.073.037-.073.02 0 .036-.033.036-.073 0-.04.017-.074.037-.074.02 0 .036-.05.036-.11s.017-.11.037-.11c.02 0 .036-.033.036-.073 0-.04.017-.074.037-.074.02 0 .036-.032.036-.073 0-.04.017-.073.037-.073.02 0 .036-.05.036-.11s.017-.11.037-.11c.02 0 .036-.033.036-.074 0-.04.017-.073.037-.073.02 0 .036-.05.036-.11s.016-.11.036-.11c.02 0 .037-.05.037-.11s.016-.11.036-.11c.02 0 .037-.066.037-.147 0-.08.016-.147.036-.147.02 0 .037-.066.037-.146 0-.081-.017-.147-.037-.147-.02 0-.036-.066-.036-.147 0-.08-.017-.147-.037-.147-.02 0-.036-.025-.036-.056 0-.073-.236-.31-.309-.31-.03 0-.056-.017-.056-.037 0-.02-.032-.037-.073-.037-.04 0-.073-.017-.073-.037 0-.021-.133-.036-.328-.036-.194 0-.328.015-.328.036 0 .02-.025.037-.056.037-.072 0-.455.385-.455.458 0 .03-.016.056-.036.056-.02 0-.037.033-.037.073 0 .04-.016.073-.036.073-.02 0-.036.033-.036.074 0 .04-.017.073-.037.073-.02 0-.036.033-.036.074 0 .04-.017.073-.037.073-.02 0-.036.05-.036.11s-.017.11-.037.11c-.02 0-.036.033-.036.073 0 .04-.017.074-.037.074-.02 0-.036.05-.036.11s-.017.11-.037.11c-.02 0-.036.033-.036.073 0 .04-.017.074-.036.074-.02 0-.037.05-.037.11s-.016.11-.036.11c-.02 0-.037.033-.037.073 0 .04-.016.073-.036.073-.02 0-.037.05-.037.11 0 .061-.016.11-.036.11-.02 0-.037.034-.037.074 0 .04-.016.073-.036.073-.02 0-.037.05-.037.11s-.016.11-.036.11c-.02 0-.037.033-.037.074 0 .04-.016.073-.036.073-.02 0-.037.05-.037.11s-.016.11-.036.11c-.02 0-.037.033-.037.074 0 .04-.016.073-.036.073-.02 0-.037.05-.037.11s-.016.11-.036.11c-.02 0-.036.033-.036.073 0 .04-.017.074-.037.074-.02 0-.036.033-.036.073 0 .04-.01.074-.021.074-.043 0-.125-.107-.125-.163 0-.032-.017-.058-.037-.058-.02 0-.036-.05-.036-.11s-.017-.11-.037-.11c-.02 0-.036-.05-.036-.11s-.017-.11-.037-.11c-.02 0-.036-.033-.036-.073 0-.04-.016-.074-.036-.074-.02 0-.037-.049-.037-.11 0-.06-.016-.11-.036-.11-.02 0-.037-.033-.037-.073 0-.04-.016-.073-.036-.073-.02 0-.037-.05-.037-.11 0-.061-.016-.11-.036-.11-.02 0-.037-.05-.037-.11 0-.061-.016-.11-.036-.11-.02 0-.037-.034-.037-.074 0-.04-.016-.073-.036-.073-.02 0-.037-.05-.037-.11s-.016-.11-.036-.11c-.02 0-.037-.05-.037-.11 0-.061-.016-.11-.036-.11-.02 0-.036-.034-.036-.074 0-.04-.017-.073-.037-.073-.02 0-.036-.05-.036-.11s-.017-.11-.037-.11c-.02 0-.036-.033-.036-.074 0-.04-.017-.073-.037-.073-.02 0-.036-.05-.036-.11s-.017-.11-.037-.11c-.02 0-.036-.046-.036-.102 0-.06-.03-.124-.073-.155-.04-.03-.073-.075-.073-.101 0-.067-.24-.303-.309-.303-.03 0-.056-.016-.056-.036 0-.02-.033-.037-.073-.037-.04 0-.073-.017-.073-.037 0-.021-.133-.036-.328-.036-.194 0-.328.015-.328.036zm-4.595 1.688c0 .02.097.037.219.037.121 0 .219.016.219.036 0 .02.029.037.065.037.035 0 .088.033.117.073.029.04.074.074.1.074.063 0 .301.24.301.302 0 .027.033.072.073.101a.201.201 0 01.073.155c0 .056.016.102.037.102.02 0 .036.05.036.11s.016.11.036.11c.023 0 .037.22.037.587s-.014.587-.037.587c-.02 0-.036.05-.036.11s-.017.11-.036.11c-.02 0-.037.033-.037.074 0 .04-.016.073-.036.073-.02 0-.037.033-.037.073 0 .04-.016.074-.036.074-.02 0-.037.025-.037.056 0 .072-.31.384-.382.384-.03 0-.055.016-.055.036 0 .02-.033.037-.073.037-.04 0-.073.017-.073.037 0 .02-.066.037-.146.037-.08 0-.146.016-.146.036 0 .02-.066.037-.146.037-.08 0-.146-.017-.146-.037 0-.02-.082-.036-.182-.036-.1 0-.182-.017-.182-.037 0-.02-.03-.037-.065-.037-.036 0-.089-.033-.118-.073-.029-.04-.074-.074-.1-.074-.063 0-.228-.165-.228-.228 0-.027-.033-.073-.073-.102-.04-.029-.073-.082-.073-.118 0-.036-.016-.065-.036-.065-.02 0-.037-.05-.037-.11s-.016-.11-.036-.11c-.02 0-.037-.05-.037-.11s-.016-.11-.036-.11c-.023 0-.037-.196-.037-.514s.014-.514.037-.514c.02 0 .036-.049.036-.11 0-.06.017-.11.037-.11.02 0 .036-.05.036-.11s.017-.11.037-.11c.02 0 .036-.026.036-.058 0-.033.05-.105.11-.162.06-.056.109-.122.109-.146 0-.058.093-.147.153-.147.027 0 .073-.033.102-.074a.199.199 0 01.154-.073c.056 0 .101-.017.101-.037 0-.02.083-.036.183-.036.1 0 .182-.017.182-.037 0-.02.017-.037.037-.037.02 0 .036.017.036.037zm21.443.073c0 .02.033.037.073.037.04 0 .073.016.073.037 0 .02.025.036.055.036.068 0 .382.31.382.376 0 .027.033.072.073.101a.2.2 0 01.073.155c0 .056.017.102.037.102.02 0 .036.05.036.11s.016.11.037.11c.022 0 .036.22.036.587s-.014.587-.036.587c-.02 0-.037.05-.037.11s-.016.11-.036.11c-.02 0-.037.033-.037.074 0 .04-.016.073-.036.073-.02 0-.037.033-.037.073 0 .04-.016.074-.036.074-.02 0-.037.025-.037.056 0 .072-.31.384-.382.384-.03 0-.055.016-.055.036 0 .02-.033.037-.073.037-.04 0-.073.017-.073.037 0 .02-.066.037-.146.037-.08 0-.146.016-.146.036 0 .02-.066.037-.146.037-.08 0-.146-.017-.146-.037 0-.02-.082-.036-.182-.036-.1 0-.182-.017-.182-.037 0-.02-.03-.037-.065-.037-.036 0-.089-.033-.118-.073-.029-.04-.074-.074-.1-.074-.063 0-.228-.165-.228-.228 0-.027-.033-.073-.073-.102-.04-.029-.073-.082-.073-.118 0-.036-.016-.065-.036-.065-.02 0-.037-.05-.037-.11s-.016-.11-.036-.11c-.02 0-.037-.066-.037-.147 0-.08-.016-.147-.036-.147-.023 0-.037-.183-.037-.477 0-.293.014-.477.037-.477.02 0 .036-.049.036-.11 0-.06.017-.11.037-.11.02 0 .036-.05.036-.11s.017-.11.037-.11c.02 0 .036-.026.036-.058 0-.033.05-.105.11-.162.06-.056.11-.13.11-.161 0-.033.025-.059.057-.059s.105-.05.16-.11c.064-.068.14-.11.198-.11.052 0 .095-.017.095-.037 0-.022.17-.036.437-.036.268 0 .438.014.438.036zM59.014 61.303c-.073-.38-.117-1.204.291-1.468.51-.33 1.605-.513 2.298-1.1.693-.587.875-1.174.547-1.504-.328-.33-1.276.073-1.75.733-.475.66-1.168 1.614-1.423 1.908-.255.293-.255.22-.292.183-.036-.036-.146-.44.073-.807.22-.367.11-.587-.073-.66-.182-.073-.51.22-.437.66.073.44.146.44.073.55-.073.11-.292-.293-.292-.586 0-1.358.73-2.275.656-3.229 0-.489-.255-1.467-1.276-1.467-1.276 0-1.203 1.357-1.203 1.65 0 .881 1.422 2.165 1.531 3.376.085.513.16 1.87-.218 3.191-.475 1.651-.824 2.605-.73 3.265.094.66 1.313 2.422 2.115.074.073-.318.175-1.108 0-1.725-.219-.77-.656-.953-.437-1.43.218-.477.547-.367.911 0 .365.367.912 1.54 1.605 1.944.693.404 1.167.514 1.386.257.218-.257.182-.917-.401-1.247-.584-.33-1.131-.294-1.933-.844-.642-.44-.948-1.333-1.021-1.724zm-.949-5.943c-.145-.382-.522-.477-.692-.477-.025.012-.022.08.182.256.255.22.474.734.51.844.03.088.11.184.146.22a2.08 2.08 0 00-.145-.843zm3.173 2.054c-.262.088-.401.38-.438.514.025.024.088.044.146-.074.073-.146.474-.293.657-.33.182-.037.4-.11.291-.147-.109-.036-.328-.073-.656.037zm.839 6.933c-.146-.234-.45-.293-.584-.293-.109.037-.036.073 0 .073.037 0 .329.147.438.44.088.235.255.319.328.33 0-.085-.036-.315-.182-.55z" fill="#F99853"/>
    <path d="M62.441 57.047c-.036-.085-.029-.352.292-.734.401-.477.693-.293.766-.146.073.146.073.587-.255.733-.328.147-.51.367-.803.147z" fill="#F99853"/>
    <path d="M92.482 16.72l5.882 4.59 7.319-1.451-2.548 7.012 3.643 6.512-7.457-.256-5.067 5.477-2.062-7.171-6.774-3.127 6.183-4.176.881-7.41z" fill="#FE4B00"/>
    <path d="M246.167 36.69l1.243 6.595 5.804 3.37-5.889 3.22-1.412 6.562-4.882-4.605-6.677.685 2.872-6.067-2.715-6.138 6.657.856 4.999-4.478z" fill="#008FF7"/>
    <path d="M244.767 88.029l.678 3.598 3.167 1.84-3.213 1.756-.771 3.58-2.663-2.512-3.643.373 1.566-3.31-1.481-3.349 3.632.467 2.728-2.443z" fill="#FE4B00"/>
    <path d="M262.97 120.615l.967 5.131 4.515 2.622-4.581 2.505-1.098 5.105-3.798-3.583-5.195.533 2.234-4.72-2.112-4.775 5.179.666 3.889-3.484zM101.257 107.305l3.284 3.353 4.683-.294-2.173 4.159 1.727 4.364-4.628-.782-3.616 2.991-.686-4.643-3.962-2.515 4.203-2.088 1.168-4.545z" fill="#008FF7"/>
    <path d="M28.828 121.392l1.858 1.897 2.65-.167-1.23 2.354.977 2.469-2.618-.443-2.046 1.693-.388-2.627-2.242-1.423 2.378-1.181.66-2.572z" fill="#2F3A3E"/>
</svg>
