<svg width="293" height="217" fill="none" xmlns="http://www.w3.org/2000/svg">
    <path d="M20.963 58.659h222.995c11.481 0 20.789 9.307 20.789 20.789 0 11.48-9.308 20.788-20.789 20.788h-14.287c-8.663 0-15.686 7.023-15.686 15.687 0 8.663 7.023 15.686 15.686 15.686h42.521c10.996 0 19.91 8.914 19.91 19.91s-8.914 19.91-19.91 19.91H48.257c-10.996 0-19.91-8.914-19.91-19.91s8.914-19.91 19.91-19.91h62.791c8.664 0 15.687-7.023 15.687-15.686 0-8.664-7.023-15.687-15.687-15.687H20.963C9.482 100.236.174 90.929.174 79.448c0-11.482 9.308-20.79 20.789-20.79z" fill="#CBF3FF"/>
    <path d="M224.977 78.024h-90.971a4.332 4.332 0 00-4.332 4.332v31.372a4.333 4.333 0 004.332 4.332h126.691a4.331 4.331 0 014.332 4.332v35.047a4.332 4.332 0 01-4.332 4.332h-68.709" stroke="#2F3A3E" stroke-width="2.166" stroke-linecap="round" stroke-linejoin="round" stroke-dasharray="5.78 7.22"/>
    <path fill-rule="evenodd" clip-rule="evenodd" d="M123.396 50.59a8.794 8.794 0 00-6.219 15.012l5.378 5.379c.603.602 1.58.602 2.182 0l5.379-5.379a8.794 8.794 0 00-6.219-15.012h-.501zm.251 14.698a5.653 5.653 0 100-11.306 5.653 5.653 0 000 11.306z" fill="#008FF7"/>
    <path fill-rule="evenodd" clip-rule="evenodd" d="M123.396 50.59a8.794 8.794 0 00-6.219 15.012l5.378 5.379c.603.602 1.58.602 2.182 0l5.379-5.379a8.794 8.794 0 00-6.219-15.012h-.501zm.251 14.698a5.653 5.653 0 100-11.306 5.653 5.653 0 000 11.306z" fill="#FCC49A"/>
    <path fill-rule="evenodd" clip-rule="evenodd" d="M142.166 91.02a8.795 8.795 0 00-6.218 15.012l5.378 5.378c.603.603 1.58.603 2.182 0l5.378-5.378a8.794 8.794 0 00-6.218-15.013h-.502zm.251 14.698a5.653 5.653 0 100-11.307 5.653 5.653 0 000 11.307z" fill="#008FF7"/>
    <path fill-rule="evenodd" clip-rule="evenodd" d="M142.166 91.02a8.795 8.795 0 00-6.218 15.012l5.378 5.378c.603.603 1.58.603 2.182 0l5.378-5.378a8.794 8.794 0 00-6.218-15.013h-.502zm.251 14.698a5.653 5.653 0 100-11.307 5.653 5.653 0 000 11.307z" fill="#FCC49A"/>
    <circle cx="123.701" cy="78.024" r="4.332" fill="#008FF7"/>
    <circle cx="123.701" cy="78.024" r="4.332" fill="#FCC49A"/>
    <circle cx="142.471" cy="118.454" r="4.332" fill="#008FF7"/>
    <circle cx="142.471" cy="118.454" r="4.332" fill="#FCC49A"/>
    <path fill-rule="evenodd" clip-rule="evenodd" d="M223.688 15.971c-12.596 0-22.807 10.211-22.807 22.807 0 6.048 2.403 11.85 6.68 16.126l13.948 13.948a4.001 4.001 0 005.659 0l13.947-13.948a22.807 22.807 0 006.68-16.126c0-12.596-10.211-22.807-22.806-22.807h-1.301zm.65 38.118c8.097 0 14.661-6.564 14.661-14.66 0-8.098-6.564-14.661-14.661-14.661s-14.66 6.563-14.66 14.66c0 8.097 6.563 14.66 14.66 14.66z" fill="#008FF7"/>
    <path fill-rule="evenodd" clip-rule="evenodd" d="M223.688 15.971c-12.596 0-22.807 10.211-22.807 22.807 0 6.048 2.403 11.85 6.68 16.126l13.948 13.948a4.001 4.001 0 005.659 0l13.947-13.948a22.807 22.807 0 006.68-16.126c0-12.596-10.211-22.807-22.806-22.807h-1.301zm.65 38.118c8.097 0 14.661-6.564 14.661-14.66 0-8.098-6.564-14.661-14.661-14.661s-14.66 6.563-14.66 14.66c0 8.097 6.563 14.66 14.66 14.66z" fill="#F99853"/>
    <path fill-rule="evenodd" clip-rule="evenodd" d="M196.713 89.61a8.795 8.795 0 00-6.218 15.013l5.378 5.378c.603.603 1.58.603 2.182 0l5.378-5.378a8.795 8.795 0 00-6.218-15.012h-.502zm.251 14.699a5.653 5.653 0 100-11.306 5.653 5.653 0 000 11.306z" fill="#008FF7"/>
    <path fill-rule="evenodd" clip-rule="evenodd" d="M196.713 89.61a8.795 8.795 0 00-6.218 15.013l5.378 5.378c.603.603 1.58.603 2.182 0l5.378-5.378a8.795 8.795 0 00-6.218-15.012h-.502zm.251 14.699a5.653 5.653 0 100-11.306 5.653 5.653 0 000 11.306zM238.499 132.928a8.794 8.794 0 00-6.218 15.012l5.378 5.378c.603.603 1.58.603 2.182 0l5.378-5.378a8.795 8.795 0 00-6.218-15.012h-.502zm.251 14.698a5.653 5.653 0 100-11.306 5.653 5.653 0 000 11.306z" fill="#008FF7"/>
    <path fill-rule="evenodd" clip-rule="evenodd" d="M238.499 132.928a8.794 8.794 0 00-6.218 15.012l5.378 5.378c.603.603 1.58.603 2.182 0l5.378-5.378a8.795 8.795 0 00-6.218-15.012h-.502zm.251 14.698a5.653 5.653 0 100-11.306 5.653 5.653 0 000 11.306z" fill="#F99853"/>
    <circle cx="238.804" cy="161.771" r="4.332" fill="#008FF7"/>
    <circle cx="238.804" cy="161.771" r="4.332" fill="#F99853"/>
    <circle cx="197.019" cy="118.454" r="4.332" fill="#008FF7"/>
    <circle cx="197.019" cy="118.454" r="4.332" fill="#008FF7"/>
    <circle cx="224.338" cy="78.024" r="4.332" fill="#008FF7"/>
    <circle cx="224.338" cy="78.024" r="4.332" fill="#F99853"/>
    <path d="M29.405 72.927l.678 3.6 3.167 1.838-3.213 1.757-.77 3.58-2.664-2.513-3.643.374 1.566-3.31-1.48-3.35 3.631.468 2.728-2.444z" fill="#FE4B00"/>
    <path d="M80.286 9.666l2.384 2.4 3.374-.238-1.544 3.01 1.267 3.136-3.339-.54-2.59 2.175-.52-3.342-2.869-1.792 3.019-1.527.818-3.282zM34.706 139.835l1.496 7.939 6.986 4.057-7.088 3.876-1.7 7.898-5.877-5.543-8.036.824 3.456-7.302-3.267-7.389 8.012 1.031 6.018-5.391z" fill="#008FF7"/>
    <path d="M208.441 161.985c-4.219-8.055-9.972-26.081-27.423-26.273-11.819-.129-27.853 11.634-37.342 19.861a133.41 133.41 0 00-4.448 4.031c-1.332-1.269-3.179-2.63-5.384-4.031-11.01-6.996-30.94-14.99-40.312-17.528-21.102 3.836-26.694 12.519-35.644 54.503-1.49 6.989 3.881 13.543 11.027 13.543H205.02c6.94 0 12.245-6.186 11.015-13.015-2.196-12.202-5.193-26.507-7.595-31.091z" fill="#2F3A3E"/>
    <path d="M181.018 135.712c-.831-7.606-7.172-22.82-25.888-22.82h-31.45c-30.148 0-29.317 17.546-30.148 25.153 9.372 2.538 29.302 10.532 40.312 17.528 2.205 1.401 4.052 2.762 5.384 4.031a133.41 133.41 0 014.448-4.031c9.489-8.227 25.523-19.99 37.342-19.861z" fill="#2F3A3E"/>
    <path d="M208.441 161.985c-4.219-8.055-9.972-26.081-27.423-26.273-11.819-.129-27.853 11.634-37.342 19.861a139.2 139.2 0 00-2.696 2.399c-.99.904-2.514.903-3.573.08a46.705 46.705 0 00-3.563-2.479c-11.01-6.996-30.94-14.99-40.312-17.528-18.299 3.327-24.935 10.298-32.211 39.471a406.793 406.793 0 00-2.625 11.292c-1.955 8.919 4.926 17.283 14.056 17.283h128.603c8.867 0 15.651-7.907 14.019-16.623-2.112-11.283-4.765-23.345-6.933-27.483z" fill="#FCC49A"/>
    <path fill-rule="evenodd" clip-rule="evenodd" d="M117.698 171.72c0 .03-.098.054-.218.054-.119 0-.217.024-.217.054s-.038.054-.084.054c-.108 0-.46.35-.46.457 0 .046-.024.083-.054.083s-.055.048-.055.108c0 .059-.024.108-.054.108-.036 0-.054 1.404-.054 4.104s-.019 4.104-.055 4.104c-.032 0-.054.198-.054.486s-.022.486-.054.486c-.03 0-.055.061-.055.136 0 .186-.436.62-.623.62-.076 0-.138.024-.138.054s-.073.054-.163.054c-.089 0-.163-.024-.163-.054s-.073-.054-.163-.054c-.09 0-.163-.024-.163-.054s-.049-.054-.109-.054c-.059 0-.108-.024-.108-.054s-.049-.054-.109-.054-.109-.024-.109-.054-.049-.054-.108-.054c-.06 0-.109-.024-.109-.054s-.049-.054-.109-.054-.109-.024-.109-.054-.048-.054-.108-.054-.109-.024-.109-.054c0-.032-.181-.054-.435-.054-.253 0-.435.022-.435.054 0 .03-.049.054-.108.054-.06 0-.109.024-.109.054s-.038.054-.085.054c-.11 0-.241.13-.241.239 0 .047-.025.085-.055.085-.029 0-.054.048-.054.108 0 .059-.024.108-.054.108s-.055.073-.055.162c0 .089-.024.162-.054.162-.031 0-.054.162-.054.378s.023.378.054.378c.03 0 .054.073.054.162 0 .089.025.162.055.162s.054.037.054.082c0 .107.571.674.678.674.046 0 .083.024.083.054s.049.054.109.054.108.024.108.054.049.054.109.054.109.024.109.054.049.054.109.054c.059 0 .108.024.108.054s.098.054.218.054c.119 0 .217.024.217.054s.098.054.218.054c.119 0 .217.024.217.054 0 .034.344.054.924.054.58 0 .924-.02.924-.054 0-.03.122-.054.272-.054.149 0 .272-.024.272-.054s.073-.054.163-.054c.089 0 .163-.024.163-.054s.049-.054.108-.054c.06 0 .109-.024.109-.054s.049-.054.109-.054.109-.024.109-.054.043-.054.096-.054c.053 0 .132-.049.175-.108.043-.06.111-.108.15-.108.092 0 .557-.462.557-.554 0-.039.049-.105.109-.148.059-.043.108-.121.108-.174 0-.053.025-.096.055-.096s.054-.049.054-.108c0-.06.024-.108.054-.108s.055-.073.055-.162c0-.089.024-.162.054-.162s.054-.097.054-.216.025-.216.055-.216.054-.144.054-.324c0-.18.024-.324.055-.324.035 0 .054-1.602.054-4.698s-.019-4.698-.054-4.698c-.03 0-.055-.073-.055-.162 0-.089-.024-.162-.054-.162s-.055-.038-.055-.084c0-.108-.242-.348-.35-.348-.047 0-.084-.024-.084-.054s-.049-.054-.109-.054-.109-.024-.109-.054-.098-.054-.217-.054c-.12 0-.218-.024-.218-.054s-.097-.054-.217-.054-.217.024-.217.054zm6.957 3.24c0 .03-.122.054-.272.054-.149 0-.272.024-.272.054s-.073.054-.163.054c-.089 0-.163.024-.163.054s-.073.054-.163.054c-.09 0-.163.024-.163.054s-.049.054-.109.054c-.059 0-.108.024-.108.054s-.044.054-.097.054c-.053 0-.132.048-.175.108-.043.059-.112.108-.153.108-.042 0-.144.073-.228.162-.083.089-.179.162-.213.162-.08 0-.548.465-.548.544 0 .033-.073.129-.163.212-.089.083-.163.185-.163.226 0 .041-.049.109-.108.152-.06.043-.109.121-.109.174 0 .053-.025.096-.054.096-.03 0-.055.048-.055.108 0 .059-.024.108-.054.108s-.055.048-.055.108c0 .059-.024.108-.054.108s-.054.073-.054.162c0 .089-.025.162-.055.162-.029 0-.054.073-.054.162 0 .089-.024.162-.054.162s-.055.097-.055.216-.024.216-.054.216c-.033 0-.054.216-.054.54 0 .324-.022.54-.055.54-.03 0-.054.097-.054.216s.024.216.054.216c.033 0 .055.198.055.486s.022.486.054.486c.03 0 .054.121.054.27 0 .148.025.27.055.27s.054.073.054.162c0 .089.025.162.054.162.03 0 .055.073.055.162 0 .089.024.162.054.162s.054.048.054.108c0 .059.025.108.055.108s.054.048.054.108c0 .059.025.108.055.108.029 0 .054.043.054.096 0 .053.049.131.109.174.059.043.108.111.108.152 0 .041.074.143.163.226.09.083.163.178.163.212 0 .079.578.652.657.652.033 0 .129.073.213.162.084.089.192.162.239.162.048 0 .087.024.087.054s.049.054.109.054.109.024.109.054.049.054.108.054c.06 0 .109.024.109.054s.073.054.163.054c.09 0 .163.024.163.054s.074.054.163.054c.09 0 .163.024.163.054s.123.054.272.054c.15 0 .272.024.272.054 0 .034.326.054.87.054.543 0 .869-.02.869-.054 0-.03.098-.054.218-.054.119 0 .217-.024.217-.054s.098-.054.217-.054c.12 0 .218-.024.218-.054s.049-.054.109-.054c.059 0 .108-.024.108-.054s.049-.054.109-.054.109-.024.109-.054.049-.054.108-.054c.06 0 .109-.024.109-.054s.039-.054.087-.054c.048 0 .156-.073.239-.162.084-.089.18-.162.213-.162.085 0 .874-.793.874-.878 0-.039.049-.105.109-.148s.109-.121.109-.174c0-.053.024-.096.054-.096s.054-.043.054-.096c0-.053.049-.131.109-.174a.295.295 0 00.109-.228c0-.083.024-.15.054-.15s.055-.049.055-.108c0-.06.024-.108.054-.108s.054-.073.054-.162c0-.089.025-.162.055-.162s.054-.097.054-.216.024-.216.054-.216c.031 0 .055-.144.055-.324 0-.18.024-.324.054-.324.034 0 .054-.306.054-.81s-.02-.81-.054-.81c-.03 0-.054-.144-.054-.324 0-.18-.024-.324-.055-.324-.03 0-.054-.073-.054-.162 0-.089-.024-.162-.054-.162s-.055-.073-.055-.162c0-.089-.024-.162-.054-.162s-.054-.049-.054-.108c0-.06-.025-.108-.055-.108s-.054-.068-.054-.15a.295.295 0 00-.109-.228c-.06-.043-.109-.121-.109-.174 0-.053-.024-.096-.054-.096s-.054-.043-.054-.096c0-.053-.049-.131-.109-.174-.06-.043-.109-.109-.109-.148 0-.091-.901-.986-.992-.986-.039 0-.106-.049-.149-.108-.043-.06-.122-.108-.175-.108-.053 0-.097-.024-.097-.054s-.049-.054-.109-.054c-.059 0-.108-.024-.108-.054s-.049-.054-.109-.054-.109-.024-.109-.054-.073-.054-.163-.054c-.089 0-.163-.024-.163-.054s-.073-.054-.163-.054c-.09 0-.163-.024-.163-.054s-.122-.054-.272-.054c-.149 0-.271-.024-.271-.054 0-.034-.309-.054-.816-.054-.507 0-.815.02-.815.054zm30.982 0c0 .03-.098.054-.218.054-.119 0-.217.024-.217.054s-.073.054-.163.054c-.09 0-.163.024-.163.054s-.049.054-.109.054-.109.024-.109.054-.048.054-.108.054-.109.024-.109.054-.043.054-.097.054c-.053 0-.132.048-.175.108-.043.059-.11.108-.148.108-.092 0-1.102 1.003-1.102 1.094 0 .039-.049.105-.109.148-.059.043-.108.121-.108.174 0 .053-.025.096-.055.096s-.054.048-.054.108c0 .059-.024.108-.054.108s-.055.048-.055.108c0 .059-.024.108-.054.108s-.054.048-.054.108c0 .059-.025.108-.055.108s-.054.073-.054.162c0 .089-.025.162-.054.162-.03 0-.055.073-.055.162 0 .089-.024.162-.054.162s-.055.097-.055.216-.024.216-.054.216c-.032 0-.054.18-.054.432s-.023.432-.055.432-.054.198-.054.486.022.486.054.486c.031 0 .055.162.055.378s.023.378.054.378c.03 0 .054.097.054.216s.025.216.055.216.054.073.054.162c0 .089.025.162.055.162.029 0 .054.073.054.162 0 .089.024.162.054.162s.055.048.055.108c0 .059.024.108.054.108s.054.048.054.108c0 .059.025.108.055.108s.054.048.054.108c0 .059.024.108.054.108s.055.039.055.086c0 .048.073.155.163.238.089.083.163.178.163.211 0 .085.907.977.993.977.038 0 .105.048.148.108.043.059.122.108.175.108.054 0 .097.024.097.054s.049.054.109.054.108.024.108.054.049.054.109.054.109.024.109.054.073.054.163.054c.09 0 .163.024.163.054s.098.054.217.054c.12 0 .218.024.218.054 0 .033.29.054.761.054.471 0 .761-.021.761-.054 0-.03.098-.054.217-.054.12 0 .218-.024.218-.054s.049-.054.108-.054c.06 0 .109-.024.109-.054s.049-.054.109-.054.108-.024.108-.054.038-.054.085-.054c.046 0 .229-.146.405-.324.314-.318.489-.405.489-.242 0 .107.57.674.678.674.046 0 .083.024.083.054 0 .032.217.054.543.054.326 0 .544-.022.544-.054 0-.03.037-.054.083-.054.108 0 .569-.459.569-.566 0-.045.025-.082.054-.082.03 0 .055-.073.055-.162 0-.089.024-.162.054-.162.036 0 .055-1.368.055-3.996s-.019-3.996-.055-3.996c-.03 0-.054-.073-.054-.162 0-.089-.025-.162-.055-.162-.029 0-.054-.037-.054-.083 0-.139-.47-.565-.624-.565-.075 0-.137-.024-.137-.054 0-.032-.199-.054-.489-.054s-.489.022-.489.054c0 .03-.044.054-.097.054-.053 0-.132.048-.175.108-.043.059-.122.108-.175.108a.093.093 0 00-.097.096c0 .053-.049.131-.108.174-.06.043-.109.121-.109.174 0 .182-.17.094-.544-.282-.206-.208-.413-.378-.459-.378-.046 0-.084-.024-.084-.054s-.074-.054-.163-.054c-.09 0-.163-.024-.163-.054s-.098-.054-.218-.054c-.119 0-.217-.024-.217-.054 0-.034-.29-.054-.761-.054-.471 0-.761.02-.761.054zm-23.264.216c0 .03-.049.054-.109.054-.059 0-.108.024-.108.054s-.038.054-.084.054c-.045 0-.168.084-.271.187-.104.103-.189.225-.189.27 0 .046-.024.083-.054.083-.033 0-.054.216-.054.54 0 .324.021.54.054.54.03 0 .054.073.054.162 0 .089.025.162.055.162.029 0 .054.048.054.108 0 .059.024.108.054.108s.055.073.055.162c0 .089.024.162.054.162s.054.048.054.108c0 .059.025.108.055.108s.054.073.054.162c0 .089.025.162.054.162.03 0 .055.048.055.108 0 .059.024.108.054.108s.054.048.054.108c0 .059.025.108.055.108s.054.073.054.162c0 .089.025.162.055.162.029 0 .054.048.054.108 0 .059.024.108.054.108s.055.073.055.162c0 .089.024.162.054.162s.054.048.054.108c0 .059.025.108.055.108s.054.073.054.162c0 .089.024.162.054.162s.055.048.055.108c0 .059.024.108.054.108s.054.048.054.108c0 .059.025.108.055.108s.054.073.054.162c0 .089.025.162.055.162.029 0 .054.048.054.108 0 .059.024.108.054.108s.055.073.055.162c0 .089.024.162.054.162s.054.048.054.108c0 .059.025.108.055.108s.054.048.054.108c0 .059.024.108.054.108s.055.073.055.162c0 .089.024.162.054.162s.054.048.054.108c0 .059.025.108.055.108s.054.073.054.162c0 .089.025.162.054.162.03 0 .055.048.055.108 0 .059.024.108.054.108s.055.048.055.108c0 .059.024.108.054.108s.054.073.054.162c0 .089.025.162.055.162.029 0 .054.048.054.108 0 .059.024.108.054.108s.055.073.055.162c0 .089.024.162.054.162s.054.097.054.216-.024.216-.054.216-.054.048-.054.108c0 .059-.025.108-.055.108s-.054.048-.054.108c0 .059-.025.108-.054.108-.03 0-.055.048-.055.108 0 .059-.024.108-.054.108s-.054.073-.054.162c0 .089-.025.162-.055.162s-.054.048-.054.108c0 .059-.025.108-.055.108-.029 0-.054.048-.054.108 0 .059-.024.108-.054.108s-.055.048-.055.108c0 .059-.024.108-.054.108s-.054.073-.054.162c0 .089-.025.162-.055.162s-.054.048-.054.108c0 .059-.024.108-.054.108s-.055.073-.055.162c0 .089-.024.162-.054.162s-.054.048-.054.108c0 .059-.025.108-.055.108s-.054.097-.054.216-.025.216-.054.216c-.032 0-.055.18-.055.432s.023.432.055.432c.029 0 .054.048.054.108 0 .059.024.108.054.108s.055.037.055.083c0 .108.242.349.35.349.047 0 .084.024.084.054s.049.054.109.054.109.024.109.054c0 .032.217.054.543.054.326 0 .544-.022.544-.054 0-.03.037-.054.083-.054.108 0 .569-.459.569-.566 0-.045.025-.082.055-.082.029 0 .054-.049.054-.108 0-.06.024-.108.054-.108s.055-.049.055-.108c0-.06.024-.108.054-.108s.054-.049.054-.108c0-.06.025-.108.055-.108s.054-.049.054-.108c0-.06.024-.108.054-.108s.055-.073.055-.162c0-.089.024-.162.054-.162s.054-.049.054-.108c0-.06.025-.108.055-.108s.054-.049.054-.108c0-.06.025-.108.054-.108.03 0 .055-.073.055-.162 0-.089.024-.162.054-.162s.055-.049.055-.108c0-.06.024-.108.054-.108s.054-.049.054-.108c0-.06.025-.108.055-.108.029 0 .054-.073.054-.162 0-.089.024-.162.054-.162s.055-.049.055-.108c0-.06.024-.108.054-.108s.054-.073.054-.162c0-.089.025-.162.055-.162s.054-.049.054-.108c0-.06.025-.108.054-.108.03 0 .055-.049.055-.108 0-.06.024-.108.054-.108s.054-.073.054-.162c0-.089.025-.162.055-.162s.054-.049.054-.108c0-.06.025-.108.055-.108.029 0 .054-.049.054-.108 0-.06.024-.108.054-.108s.055-.073.055-.162c0-.089.024-.162.054-.162s.054-.049.054-.108c0-.06.025-.108.055-.108s.054-.049.054-.108c0-.06.024-.108.054-.108s.055-.073.055-.162c0-.089.024-.162.054-.162s.054-.049.054-.108c0-.06.025-.108.055-.108s.054-.049.054-.108c0-.06.025-.108.055-.108.029 0 .054-.073.054-.162 0-.089.024-.162.054-.162s.055-.049.055-.108c0-.06.024-.108.054-.108s.054-.073.054-.162c0-.089.025-.162.055-.162s.054-.049.054-.108c0-.06.024-.108.054-.108s.055-.049.055-.108c0-.06.024-.108.054-.108s.054-.073.054-.162c0-.089.025-.162.055-.162s.054-.049.054-.108c0-.06.025-.108.054-.108.03 0 .055-.049.055-.108 0-.06.024-.108.054-.108s.055-.073.055-.162c0-.089.024-.162.054-.162s.054-.049.054-.108c0-.06.025-.108.055-.108s.054-.049.054-.108c0-.06.024-.108.054-.108s.055-.073.055-.162c0-.089.024-.162.054-.162s.054-.049.054-.108c0-.06.025-.108.055-.108s.054-.049.054-.108c0-.06.025-.108.054-.108.03 0 .055-.073.055-.162 0-.089.024-.162.054-.162s.055-.049.055-.108c0-.06.024-.108.054-.108s.054-.049.054-.108c0-.06.025-.108.055-.108.029 0 .054-.073.054-.162 0-.089.024-.162.054-.162s.055-.049.055-.108c0-.06.024-.108.054-.108s.054-.073.054-.162c0-.089.025-.162.055-.162s.054-.073.054-.162c0-.089.025-.162.054-.162.03 0 .055-.097.055-.216s.024-.216.054-.216.054-.097.054-.216-.024-.216-.054-.216-.054-.097-.054-.216-.025-.216-.055-.216c-.029 0-.054-.037-.054-.083 0-.107-.352-.457-.46-.457-.046 0-.083-.024-.083-.054s-.049-.054-.109-.054-.109-.024-.109-.054c0-.032-.199-.054-.489-.054s-.489.022-.489.054c0 .03-.038.054-.083.054-.108 0-.678.567-.678.674 0 .045-.025.082-.055.082s-.054.048-.054.108c0 .059-.024.108-.054.108s-.055.048-.055.108c0 .059-.024.108-.054.108s-.054.048-.054.108c0 .059-.025.108-.055.108s-.054.073-.054.162c0 .089-.025.162-.054.162-.03 0-.055.048-.055.108 0 .059-.024.108-.054.108s-.055.073-.055.162c0 .089-.024.162-.054.162s-.054.048-.054.108c0 .059-.025.108-.055.108-.029 0-.054.073-.054.162 0 .089-.024.162-.054.162s-.055.048-.055.108c0 .059-.024.108-.054.108s-.054.073-.054.162c0 .089-.025.162-.055.162s-.054.048-.054.108c0 .059-.025.108-.054.108-.03 0-.055.073-.055.162 0 .089-.024.162-.054.162s-.054.048-.054.108c0 .059-.025.108-.055.108s-.054.073-.054.162c0 .089-.025.162-.055.162-.029 0-.054.048-.054.108 0 .059-.024.108-.054.108s-.055.073-.055.162c0 .089-.024.162-.054.162s-.054.048-.054.108c0 .059-.025.108-.055.108s-.054.048-.054.108c0 .059-.014.108-.031.108-.064 0-.186-.157-.186-.239 0-.047-.025-.085-.055-.085s-.054-.073-.054-.162c0-.089-.025-.162-.054-.162-.03 0-.055-.073-.055-.162 0-.089-.024-.162-.054-.162s-.055-.049-.055-.108c0-.06-.024-.108-.054-.108s-.054-.073-.054-.162c0-.089-.025-.162-.055-.162s-.054-.049-.054-.108c0-.06-.024-.108-.054-.108s-.055-.073-.055-.162c0-.089-.024-.162-.054-.162s-.054-.073-.054-.162c0-.089-.025-.162-.055-.162s-.054-.049-.054-.108c0-.06-.025-.108-.054-.108-.03 0-.055-.073-.055-.162 0-.089-.024-.162-.054-.162s-.055-.073-.055-.162c0-.089-.024-.162-.054-.162s-.054-.049-.054-.108c0-.06-.025-.108-.055-.108-.029 0-.054-.073-.054-.162 0-.089-.024-.162-.054-.162s-.055-.049-.055-.108c0-.06-.024-.108-.054-.108s-.054-.073-.054-.162c0-.089-.025-.162-.055-.162s-.054-.068-.054-.15a.295.295 0 00-.109-.228c-.06-.043-.108-.11-.108-.149 0-.098-.359-.445-.461-.445-.046 0-.083-.024-.083-.054s-.049-.054-.109-.054-.108-.024-.108-.054c0-.032-.2-.054-.49-.054-.289 0-.489.022-.489.054zm-6.848 2.484c0 .03.145.054.326.054.181 0 .326.024.326.054s.043.054.096.054c.054 0 .132.048.176.108.043.059.11.108.149.108.093 0 .448.353.448.445 0 .039.049.106.109.149.064.046.109.14.109.228 0 .082.024.15.054.15s.055.073.055.162c0 .089.024.162.054.162.034 0 .054.324.054.864s-.02.864-.054.864c-.03 0-.054.073-.054.162 0 .089-.025.162-.055.162s-.054.048-.054.108c0 .059-.025.108-.054.108-.03 0-.055.048-.055.108 0 .059-.024.108-.054.108s-.055.037-.055.082c0 .107-.461.566-.569.566-.045 0-.083.024-.083.054s-.049.054-.108.054c-.06 0-.109.024-.109.054s-.098.054-.218.054c-.119 0-.217.024-.217.054s-.098.054-.217.054c-.12 0-.218-.024-.218-.054s-.122-.054-.272-.054c-.149 0-.271-.024-.271-.054s-.044-.054-.097-.054c-.053 0-.132-.049-.175-.108-.043-.06-.111-.108-.151-.108-.093 0-.338-.244-.338-.337 0-.039-.049-.106-.109-.149s-.109-.121-.109-.174c0-.053-.024-.096-.054-.096s-.054-.073-.054-.162c0-.089-.025-.162-.055-.162s-.054-.073-.054-.162c0-.089-.025-.162-.055-.162-.033 0-.054-.288-.054-.756s.021-.756.054-.756c.03 0 .055-.073.055-.162 0-.089.024-.162.054-.162s.055-.073.055-.162c0-.089.024-.162.054-.162s.054-.039.054-.086c0-.048.074-.155.163-.238.09-.083.163-.18.163-.215 0-.085.139-.217.229-.217.04 0 .109-.049.152-.108a.296.296 0 01.229-.108c.083 0 .151-.024.151-.054s.123-.054.272-.054c.15 0 .272-.024.272-.054s.024-.054.054-.054.055.024.055.054zm31.96.108c0 .03.049.054.109.054.059 0 .108.024.108.054s.038.054.083.054c.101 0 .57.455.57.554 0 .038.048.105.108.148.064.046.109.14.109.228 0 .082.024.15.054.15s.055.073.055.162c0 .089.024.162.054.162.034 0 .054.324.054.864s-.02.864-.054.864c-.03 0-.054.073-.054.162 0 .089-.025.162-.055.162s-.054.048-.054.108c0 .059-.024.108-.054.108s-.055.048-.055.108c0 .059-.024.108-.054.108s-.054.037-.054.082c0 .107-.462.566-.57.566-.045 0-.083.024-.083.054s-.049.054-.108.054c-.06 0-.109.024-.109.054s-.098.054-.218.054c-.119 0-.217.024-.217.054s-.098.054-.217.054c-.12 0-.218-.024-.218-.054s-.122-.054-.272-.054c-.149 0-.271-.024-.271-.054s-.044-.054-.097-.054c-.053 0-.132-.049-.175-.108-.043-.06-.111-.108-.15-.108-.094 0-.339-.244-.339-.337 0-.039-.049-.106-.109-.149s-.109-.121-.109-.174c0-.053-.024-.096-.054-.096s-.054-.073-.054-.162c0-.089-.025-.162-.055-.162s-.054-.097-.054-.216-.025-.216-.054-.216c-.034 0-.055-.27-.055-.702 0-.432.021-.702.055-.702.029 0 .054-.073.054-.162 0-.089.024-.162.054-.162s.055-.073.055-.162c0-.089.024-.162.054-.162s.054-.039.054-.086c0-.048.074-.155.163-.238.09-.083.163-.19.163-.238 0-.047.039-.086.087-.086.048 0 .156-.073.24-.162.093-.1.206-.162.293-.162.078 0 .141-.024.141-.054 0-.033.254-.054.653-.054.398 0 .652.021.652.054zM145.473 179.928c-.109-.558-.174-1.771.434-2.16.761-.486 2.392-.756 3.425-1.62 1.032-.864 1.304-1.728.815-2.214-.489-.486-1.902.108-2.609 1.08-.707.972-1.739 2.376-2.12 2.808-.38.432-.38.324-.435.27-.054-.054-.217-.648.109-1.188.326-.54.163-.864-.109-.972-.271-.108-.761.324-.652.972.109.648.218.648.109.81-.109.162-.435-.432-.435-.864 0-1.998 1.087-3.348.978-4.752 0-.72-.38-2.16-1.902-2.16-1.902 0-1.794 1.998-1.794 2.43 0 1.296 2.12 3.186 2.283 4.968.127.756.239 2.754-.326 4.698-.707 2.43-1.227 3.834-1.087 4.806.14.972 1.957 3.564 3.152.108.109-.468.261-1.631 0-2.538-.326-1.134-.978-1.404-.652-2.106.326-.702.816-.54 1.359 0 .544.54 1.359 2.268 2.392 2.862 1.032.594 1.739.756 2.065.378.326-.378.272-1.35-.598-1.836-.869-.486-1.685-.432-2.881-1.242-.956-.648-1.413-1.962-1.521-2.538zm-1.414-8.748c-.217-.562-.779-.702-1.032-.702-.037.018-.033.119.271.378.381.324.707 1.08.761 1.242.044.129.163.27.218.324.018-.18 0-.681-.218-1.242zm4.729 3.024c-.391.129-.598.558-.652.756.036.036.13.065.217-.108.109-.216.707-.432.979-.486.272-.054.598-.162.435-.216-.164-.054-.49-.108-.979.054zm1.25 10.206c-.217-.346-.67-.432-.869-.432-.163.054-.055.108 0 .108.054 0 .489.216.652.648.13.345.38.468.489.486a1.7 1.7 0 00-.272-.81z" fill="#fff"/>
    <path d="M150.582 173.664c-.054-.126-.044-.519.435-1.08.598-.702 1.032-.432 1.141-.216.109.216.109.864-.38 1.08-.49.216-.761.54-1.196.216z" fill="#fff"/>
    <path d="M88.288 138.806c0-.573.386-1.073.94-1.217l6.071-1.585a1.258 1.258 0 011.576 1.217v67.583c0 .694-.563 1.257-1.258 1.257h-6.072a1.258 1.258 0 01-1.257-1.257v-65.998zM177.227 135.296c0-.776.696-1.367 1.462-1.241l6.038.994c.608.1 1.053.625 1.053 1.241v68.514c0 .694-.563 1.257-1.257 1.257h-6.039a1.257 1.257 0 01-1.257-1.257v-69.508z" fill="#2F3A3E"/>
    <path d="M62.277 173.307l21.001 5.541 5.01 20.617-5.01 6.596H66.703c-6.044 0-10.529-5.605-9.203-11.502l4.777-21.252zM211.968 173.307l-21.001 5.541-5.01 20.617 5.01 6.596h16.575c6.044 0 10.529-5.605 9.203-11.502l-4.777-21.252z" fill="#F99853"/>
    <path d="M150.66 194.929c-1.21-20.336-5.914-31.672-9.697-37.057-1.088-1.548-3.207-.88-3.582.975-1.777 8.788-4.555 23.442-4.555 36.082" stroke="#2F3A3E" stroke-width="2.516" stroke-linecap="round" stroke-linejoin="round"/>
    <path d="M118.821 132.475c0-2.148 1.714-4.418 1.714-4.418.708-.431 2.125-2.169 2.125-5.669V101.311h28v21.077c0 3.5 1.417 5.238 2.125 5.669 0 0 1.814 2.27 1.814 4.418 0 2.684-13.019 11.268-17.889 11.268-4.87 0-17.889-8.584-17.889-11.268z" fill="#fff"/>
    <path fill-rule="evenodd" clip-rule="evenodd" d="M150.66 122.527v-15.43h-28v2.697c4.341-.4 12.964 5.97 17.427 7.608 4.791 1.759 9.049 4.099 10.573 5.125z" fill="#F99853"/>
    <path d="M159.003 71.423c-5.5.882-10.3.475-10.3 3.324h-23.044c0-2.849-4.8-2.442-10.3-3.324-5.5-.881-14.401-2.984-14.401-6.782V32.224c0-13.227 15.809-23.95 35.309-23.95h1.392c19.5 0 35.744 10.723 35.744 23.95V64.64c0 3.798-8.9 5.9-14.4 6.782z" fill="#F99853"/>
    <path d="M159.003 71.423c-5.5.882-10.3.475-10.3 3.324h-23.044c0-2.849-4.8-2.442-10.3-3.324-5.5-.881-14.401-2.984-14.401-6.782V32.224c0-13.227 15.809-23.95 35.309-23.95h1.392c19.5 0 35.744 10.723 35.744 23.95V64.64c0 3.798-8.9 5.9-14.4 6.782z" fill="#2F3A3E"/>
    <path d="M172.263 61.108c.059 2.007.092 3.729.058 6.376-.069 5.489-.427 11.43-1.443 14.003l-.184.469c-2.346 6-11.584 29.615-33.391 29.615s-31.045-23.616-33.392-29.615v-.001l-.184-.468c-1.015-2.572-1.373-8.514-1.443-14.003a173.891 173.891 0 01-.01-3.293l.069-3.076c0-13.389 10.854-24.243 24.243-24.243h21.499c13.376 0 24.21 10.86 24.178 24.236z" fill="#fff"/>
    <path d="M103.727 81.487c-3.841-.885-9.869-4.925-9.869-14.003 0-8.425 5.854-8.999 8.485-6.369-.034 1.152-.06 1.653-.069 3.076-.007 1.056-.004 2.165.01 3.293.07 5.489.428 11.43 1.443 14.003zM182.402 67.484c0 9.078-7.683 13.118-11.524 14.003 1.016-2.572 1.374-8.514 1.443-14.003a136.38 136.38 0 00-.058-6.376c4.22-2.8 10.139-2.05 10.139 6.376z" fill="#fff"/>
    <path d="M98.616 64.145c-.188.45-.477 1.351-.64 2.424-.178 1.18-.203 2.566.233 3.784M176.798 64.15c.197.445.504 1.341.688 2.41.202 1.177.254 2.562-.157 3.788" stroke="#2F3A3E" stroke-width="1.258" stroke-linecap="round" stroke-linejoin="round"/>
    <mask id="a" maskUnits="userSpaceOnUse" x="127" y="88" width="22" height="8">
        <path d="M136.937 88.215c6.183 0 10.305.934 11.593 1.401-1.143 1.884-4.927 5.652-10.917 5.652-5.989 0-9.548-3.768-10.578-5.652.724-.467 3.719-1.4 9.902-1.4z" fill="#C4C4C4"/>
    </mask>
    <g mask="url(#a)">
        <path d="M136.937 88.215c6.183 0 10.305.934 11.593 1.401-1.143 1.884-4.927 5.652-10.917 5.652-5.989 0-9.548-3.768-10.578-5.652.724-.467 3.719-1.4 9.902-1.4z" fill="#2F3A3E"/>
        <path d="M140.029 92.539c1.97 0 3.558 1.384 4.106 2.077 0 2.995-4.106 3.381-6.522 3.381-2.415 0-6.183-.676-6.183-3.043 0-1.298 1.981-2.415 3.865-2.415.816 0 1.847.23 2.223.497.379-.322 1.636-.497 2.511-.497z" fill="#FCC49A"/>
    </g>
    <path d="M140.359 78.935c-1.791.224-5.694.376-6.984-.806-1.611-1.477 3.627-4.969 1.209-24.04" stroke="#2F3A3E" stroke-width="1.258" stroke-linecap="round" stroke-linejoin="round"/>
    <circle r="2.851" transform="matrix(-1 0 0 1 151.435 63.74)" fill="#2F3A3E"/>
    <circle r="2.851" transform="matrix(-1 0 0 1 122.927 63.74)" fill="#2F3A3E"/>
    <path d="M155.369 51.95c3.237-.21 4.945 1.34 5.395 2.14-.36-2.036-.405-3.967-4.092-4.541-2.949-.46-5.935 1.966-7.059 3.236.57-.192 2.518-.627 5.756-.835zM121.279 51.95c-2.484 0-4.542.835-5.406 1.742 0-1.742.741-3.909 4.103-4.143 2.977-.208 5.935 1.966 7.059 3.236-.57-.192-2.511-.835-5.756-.835z" fill="#2F3A3E"/>
    <path d="M85.393 202.094l3.78-.213 5.64-.418 2.064-.193c.276-.026.536-.14.742-.327a3.203 3.203 0 00-.296-4.983l-.788-.561h1.27a.674.674 0 00.496-.218 3.147 3.147 0 00-.727-4.848l-1.04-.608 1.01-.02a.948.948 0 00.784-.44l.084-.134a4.212 4.212 0 00-.312-4.942h1.41c.438 0 .832-.26 1.006-.66l.211-.485a4.313 4.313 0 00-.822-4.679.924.924 0 00-.694-.29l-13.437.779c-1.01.058-1.481-1.229-.673-1.837a8.516 8.516 0 003.315-8.001l-.2-1.412a2.636 2.636 0 00-1.618-2.073l-.355-.144c-1.715-.696-3.543.718-3.3 2.553a5.148 5.148 0 01-1.696 4.538l-1 .881a7.65 7.65 0 00-2.43 4.196l-.666 3.237a19.175 19.175 0 00-.392 3.858v9.281c0 4.695 3.946 8.426 8.634 8.163z" fill="#fff"/>
    <path d="M88.088 201.889l6.895-.445 2.064-.193c.276-.026.536-.14.742-.326v0a3.204 3.204 0 00-.296-4.984l-.789-.561m-9.033-16.965l11.707-.356a.923.923 0 01.699.289v0a4.312 4.312 0 01.821 4.675l-.212.487c-.174.401-.569.66-1.005.66h-1.41m0 0l-12.367.242m12.366-.242v0a4.213 4.213 0 01.312 4.943l-.084.133a.952.952 0 01-.784.441l-1.01.019m-9.518.404l9.518-.404m-9.033 5.984l9.033-.31m0-5.674l1.04.608a3.148 3.148 0 01.727 4.849v0a.676.676 0 01-.497.217h-1.27" stroke="#2F3A3E" stroke-width="1.258" stroke-linecap="round" stroke-linejoin="round"/>
    <path d="M188.852 202.094l-3.779-.213-5.642-.418-2.064-.193a1.282 1.282 0 01-.741-.327 3.203 3.203 0 01.295-4.983l.789-.561h-1.27a.675.675 0 01-.496-.218 3.146 3.146 0 01.726-4.848l1.04-.609-1.01-.019a.946.946 0 01-.783-.441l-.085-.133a4.215 4.215 0 01.312-4.943h-1.41c-.437 0-.832-.259-1.006-.659l-.21-.485a4.314 4.314 0 01.821-4.679.926.926 0 01.695-.29l13.099.759c1.233.071 1.869-1.449.951-2.276l-.489-.441a8.786 8.786 0 01-2.816-7.757l.25-1.765a2.633 2.633 0 011.618-2.072l.161-.065c1.802-.732 3.722.755 3.466 2.682a5.407 5.407 0 001.384 4.377l1.405 1.525a9.837 9.837 0 012.401 4.684l.572 2.789c.299 1.454.449 2.934.449 4.418v8.998c0 4.695-3.945 8.426-8.633 8.163z" fill="#fff"/>
    <path d="M186.053 201.944l-6.792-.5-2.063-.193a1.281 1.281 0 01-.742-.327v0a3.203 3.203 0 01.296-4.983l.788-.561m9.518-16.918l-12.19-.402a.927.927 0 00-.701.289v0a4.306 4.306 0 00-.82 4.672l.212.489c.174.401.569.66 1.005.66h1.411m0 0l12.366.242m-12.366-.242v0a4.21 4.21 0 00-.312 4.942l.084.134a.95.95 0 00.784.44l1.009.02m9.518.404l-9.518-.404m9.034 5.984l-9.034-.31m0-5.674l-1.039.608a3.148 3.148 0 00-.727 4.849v0a.677.677 0 00.496.217h1.27" stroke="#2F3A3E" stroke-width="1.258" stroke-linecap="round" stroke-linejoin="round"/>
    <path d="M106.862 37.925c-3.913 1.707-5.605 4.869-5.962 6.236-1.07-5.963-2.109-19.76 2.293-27.244C108.696 7.564 119.09.014 132.235.341c13.145.329 27.24 1.233 35.707 14.32 5.336 1.795 10.015 5.079 10.76 11.612.733 6.433-2.39 13.424-5.345 16.16 0-3.897-6.225-7.594-10.858-8.447-16.049-2.954-50.746 1.805-55.637 3.939z" fill="#fff"/>
    <path fill-rule="evenodd" clip-rule="evenodd" d="M103.193 16.918c-4.402 7.483-3.362 21.28-2.293 27.243 1.223-12.637 13.91-26.587 24.151-30.526s32.404-1.477 39.13 0c1.262.277 2.529.612 3.761 1.027C159.475 1.574 145.38.67 132.235.342c-13.145-.329-23.539 7.22-29.042 16.576zm67.56 25.602c.105-.097.214-.2.326-.308a1.586 1.586 0 01-.326.308z" fill="#F99853"/>
    <path d="M66.55 59.138l5.635 1.25c.151.033.23.2.158.338l-5.404 10.38c-.125.24.188.467.377.273l13.88-14.224a.706.706 0 00-.353-1.182l-5.103-1.131a.235.235 0 01-.158-.338l6.143-11.8c.125-.24-.188-.467-.377-.274l-15.15 15.526a.706.706 0 00.353 1.182z" fill="#008FF7"/>
    <path d="M66.55 59.138l5.635 1.25c.151.033.23.2.158.338l-5.404 10.38c-.125.24.188.467.377.273l13.88-14.224a.706.706 0 00-.353-1.182l-5.103-1.131a.235.235 0 01-.158-.338l6.143-11.8c.125-.24-.188-.467-.377-.274l-15.15 15.526a.706.706 0 00.353 1.182zM66.55 87.225l5.635 1.25c.151.033.23.2.158.338l-5.404 10.38c-.125.24.188.467.377.274l13.88-14.224a.706.706 0 00-.353-1.183l-5.103-1.13a.235.235 0 01-.158-.34l6.143-11.8c.125-.24-.188-.466-.377-.272l-15.15 15.525a.706.706 0 00.353 1.182z" fill="#008FF7"/>
    <path d="M66.55 87.225l5.635 1.25c.151.033.23.2.158.338l-5.404 10.38c-.125.24.188.467.377.274l13.88-14.224a.706.706 0 00-.353-1.183l-5.103-1.13a.235.235 0 01-.158-.34l6.143-11.8c.125-.24-.188-.466-.377-.272l-15.15 15.525a.706.706 0 00.353 1.182z" fill="#2F3A3E"/>
    <path d="M66.55 117.399l5.635 1.249c.151.033.23.201.158.338l-5.404 10.381c-.125.24.188.467.377.273l13.88-14.224a.706.706 0 00-.353-1.182l-5.103-1.132a.235.235 0 01-.158-.338l6.143-11.8c.125-.24-.188-.467-.377-.273l-15.15 15.526a.706.706 0 00.353 1.182z" fill="#008FF7"/>
    <path d="M66.55 117.399l5.635 1.249c.151.033.23.201.158.338l-5.404 10.381c-.125.24.188.467.377.273l13.88-14.224a.706.706 0 00-.353-1.182l-5.103-1.132a.235.235 0 01-.158-.338l6.143-11.8c.125-.24-.188-.467-.377-.273l-15.15 15.526a.706.706 0 00.353 1.182z" fill="#FE4B00"/>
</svg>
