<svg width="296" height="209" fill="none" xmlns="http://www.w3.org/2000/svg">
    <path d="M57.374 70.998h182.304c11.482 0 20.789 9.307 20.789 20.789 0 11.481-9.307 20.788-20.789 20.788h-32.071c-8.663 0-15.686 7.023-15.686 15.687 0 8.663 7.023 15.686 15.686 15.686h67.624c10.996 0 19.91 8.914 19.91 19.91s-8.914 19.91-19.91 19.91H35.058c-10.996 0-19.91-8.914-19.91-19.91s8.914-19.91 19.91-19.91h62.791c8.664 0 15.687-7.023 15.687-15.686 0-8.664-7.023-15.687-15.687-15.687H57.374c-11.482 0-20.789-9.307-20.789-20.788 0-11.482 9.307-20.789 20.789-20.789z" fill="#CBF3FF"/>
    <path d="M79.351 141.169c-9.405 7.804-15.645 35.442-16.87 48.286l100.372 16.241 37.243-16.241c-1.224-12.844-6.025-40.482-15.43-48.286-4.994-4.144-12.679-7.738-20.022-10.49.862.335 2.92 2.29 1.641 6.947-1.627 5.923-8.004 12.12-12.991 15.957-5.342 4.11-14.812 5.803-21.285 5.803-6.474 0-15.944-1.693-21.286-5.803-4.986-3.837-11.364-10.034-12.99-15.957-1.28-4.657.764-6.628 1.626-6.962-7.329 2.754-15.004 6.353-20.008 10.505z" fill="#2F3A3E"/>
    <path d="M114.132 129.957c0-2.137 1.712-4.396 1.712-4.396a123.051 123.051 0 00-6.671 1.805l-.875.264s-1.712 2.259-1.712 4.396c0 2.671 10.695 15.352 25.423 15.352 14.728 0 25.423-12.681 25.423-15.352 0-2.137-1.799-4.396-1.799-4.396l-.877-.264a124.848 124.848 0 00-6.683-1.805s1.813 2.259 1.813 4.396c0 2.671-13.01 11.212-17.877 11.212-4.867 0-17.877-8.541-17.877-11.212zM62.482 189.455c-.74 9.813 7.023 18.183 16.864 18.183h53.841a6.663 6.663 0 006.273-4.42 6.662 6.662 0 018.95-3.858l14.443 6.336-100.371-16.241z" fill="#2F3A3E"/>
    <path d="M62.482 189.455c1.224-12.844 7.464-40.482 16.87-48.286 5.003-4.152 12.678-7.751 20.007-10.505m-36.877 58.791v0c-.74 9.813 7.023 18.183 16.864 18.183h53.84a6.663 6.663 0 006.274-4.42v0a6.662 6.662 0 018.95-3.858l14.443 6.336M62.482 189.455l100.371 16.241m-47.009-80.135s-1.712 2.259-1.712 4.396c0 2.671 13.01 11.212 17.877 11.212 4.867 0 17.877-8.541 17.877-11.212 0-2.137-1.813-4.396-1.813-4.396m-32.229 0l.927-.125 15.238-2.069 15.143 2.069.921.125m-32.229 0a123.051 123.051 0 00-6.671 1.805m75.493 13.803c9.405 7.804 14.206 35.442 15.43 48.286l-37.243 16.241m21.813-64.527c-5.172-4.292-13.229-7.993-20.804-10.78m20.804 10.78c-4.994-4.144-12.679-7.738-20.022-10.49m-16.571-5.118c1.792.424 4.089 1.033 6.683 1.805m-55.397 3.298c-.862.334-2.906 2.305-1.627 6.962 1.627 5.923 8.005 12.12 12.991 15.957 5.342 4.11 14.812 5.803 21.286 5.803 6.473 0 15.943-1.693 21.285-5.803 4.987-3.837 11.364-10.034 12.991-15.957 1.279-4.657-.779-6.612-1.641-6.947m-65.285-.015c.396-.148.79-.295 1.183-.438m-1.183.438l1.183-.438m64.102.453l-.782-.29m0 0a153.086 153.086 0 00-9.106-3.023m0 0l.877.264s1.799 2.259 1.799 4.396c0 2.671-10.695 15.352-25.423 15.352-14.728 0-25.423-12.681-25.423-15.352 0-2.137 1.712-4.396 1.712-4.396l.875-.264m0 0c-2.642.789-5.593 1.75-8.631 2.86" stroke="#2F3A3E" stroke-width="2.516"/>
    <path d="M114.221 130.015c0-2.14 1.714-4.401 1.714-4.401a121.73 121.73 0 00-6.676 1.807l-.875.264s-1.714 2.261-1.714 4.401c0 2.675 10.703 15.372 25.44 15.372 14.738 0 25.441-12.697 25.441-15.372 0-2.14-1.8-4.401-1.8-4.401l-.878-.264a123.487 123.487 0 00-6.687-1.807s1.814 2.261 1.814 4.401c0 2.674-13.019 11.226-17.89 11.226-4.87 0-17.889-8.552-17.889-11.226z" fill="#2F3A3E"/>
    <path d="M106.67 132.086c0-2.14 1.714-4.401 1.714-4.401a152.255 152.255 0 00-7.762 2.599l-1.183.439c-.863.335-2.908 2.308-1.628 6.97 1.628 5.931 8.01 12.136 13 15.978 5.345 4.115 14.822 5.81 21.299 5.81 6.478 0 15.955-1.695 21.3-5.81 4.99-3.842 11.372-10.047 13-15.978 1.28-4.662-.779-6.62-1.643-6.955l-.782-.291a153.337 153.337 0 00-9.112-3.026l.878.264s1.8 2.261 1.8 4.401c0 2.675-10.703 15.372-25.441 15.372-14.737 0-25.44-12.697-25.44-15.372z" fill="#fff"/>
    <path d="M115.935 125.614s-1.714 2.261-1.714 4.401c0 2.674 13.019 11.226 17.889 11.226 4.871 0 17.89-8.552 17.89-11.226 0-2.14-1.814-4.401-1.814-4.401l-.922-.126-15.154-2.072-15.248 2.072-.927.126z" fill="#fff"/>
    <path d="M104.445 118.516c6.955 1.645 13.026.886 13.026 6.197h29.141c0-5.311 6.071-4.552 13.026-6.197 6.955-1.644 18.211-5.564 18.211-12.646V45.432c0-24.66-19.991-44.651-44.652-44.651h-1.76c-24.66 0-45.202 19.99-45.202 44.65v60.439c0 7.082 11.255 11.002 18.21 12.646z" fill="#F99853"/>
    <path d="M104.445 118.516c6.955 1.645 13.026.886 13.026 6.197h29.141c0-5.311 6.071-4.552 13.026-6.197 6.955-1.644 18.211-5.564 18.211-12.646V45.432c0-24.66-19.991-44.651-44.652-44.651h-1.76c-24.66 0-45.202 19.99-45.202 44.65v60.439c0 7.082 11.255 11.002 18.21 12.646z" fill="#FCC49A"/>
    <path d="M114.222 130.039c0-2.147 1.714-4.417 1.714-4.417.708-.432 2.125-2.17 2.125-5.67V98.876h28v21.076c0 3.5 1.417 5.238 2.125 5.67 0 0 1.814 2.27 1.814 4.417 0 2.685-13.019 11.268-17.889 11.268-4.87 0-17.889-8.583-17.889-11.268z" fill="#fff"/>
    <path fill-rule="evenodd" clip-rule="evenodd" d="M146.061 113.523v-15.43h-28v2.697c4.341-.4 12.964 5.971 17.427 7.608 4.791 1.759 9.048 4.099 10.573 5.125z" fill="#F99853"/>
    <path fill-rule="evenodd" clip-rule="evenodd" d="M132.75 106.509c-21.807 0-31.045-23.615-33.392-29.615l-.184-.469c-3.84-.885-11.523-4.925-11.523-14.003 0-8.425 5.919-9.176 10.139-6.376 4.488 0 9.264-5.048 9.264-9.061V46.7c0-10.902 8.842-19.74 19.745-19.74h1.246c2.399 0 3.206.392 4.101.827 1.115.542 2.367 1.15 6.999 1.15 6.682 0 10.771-2.344 11.98-3.516 0 0 2.121 6.986 4.725 10.77 1.113 1.616 2.506 2.562 3.848 3.473 1.69 1.148 3.301 2.241 4.175 4.55.603 1.591-.13 3.95-.791 6.076-.823 2.648-1.534 4.936.585 4.936 1.351 0 2.69.266 3.939.785l.104.043.068 3.075c-.009-1.423-.034-1.923-.068-3.075 2.63-2.63 8.484-2.057 8.484 6.368 0 9.078-6.027 13.118-9.869 14.004l-.183.467-.001.001c-2.346 6-11.584 29.615-33.391 29.615z" fill="#fff"/>
    <path d="M168.316 63.974c.107-.474.393-1.378.882-2.346.537-1.066 1.32-2.21 2.38-2.95M96.913 63.974c-.107-.474-.393-1.378-.882-2.346-.538-1.066-1.32-2.21-2.38-2.95" stroke="#2F3A3E" stroke-width="1.258" stroke-linecap="round" stroke-linejoin="round"/>
    <mask id="a" maskUnits="userSpaceOnUse" x="120" y="81" width="22" height="8">
        <path d="M131.8 81.014c-6.183 0-10.305.934-11.593 1.401 1.143 1.884 4.927 5.652 10.917 5.652s9.548-3.768 10.579-5.652c-.725-.467-3.72-1.4-9.903-1.4z" fill="#C4C4C4"/>
    </mask>
    <g mask="url(#a)">
        <path d="M131.8 81.014c-6.183 0-10.305.934-11.593 1.401 1.143 1.884 4.927 5.652 10.917 5.652s9.548-3.768 10.579-5.652c-.725-.467-3.72-1.4-9.903-1.4z" fill="#2F3A3E"/>
        <path d="M128.854 84.942c-1.971 0-3.559 1.385-4.106 2.077 0 2.995 4.106 3.381 6.521 3.381s6.183-.676 6.183-3.043c0-1.298-1.981-2.415-3.865-2.415-.816 0-1.847.23-2.223.497-.378-.322-1.636-.497-2.51-.497z" fill="#FCC49A"/>
    </g>
    <path d="M129.693 73.874c1.791.224 5.695.376 6.984-.806 1.612-1.477-3.626-4.97-1.209-24.04" stroke="#2F3A3E" stroke-width="1.258" stroke-linecap="round" stroke-linejoin="round"/>
    <circle cx="119.55" cy="58.678" r="2.851" fill="#2F3A3E"/>
    <circle cx="149.3" cy="58.678" r="2.851" fill="#2F3A3E"/>
    <path d="M114.684 46.888c-3.237-.209-4.946 1.34-5.395 2.14.359-2.035.404-3.967 4.091-4.54 2.95-.46 5.935 1.965 7.059 3.235-.569-.191-2.518-.626-5.755-.835zM148.773 46.888c2.485 0 4.542.835 5.406 1.743 0-1.743-.74-3.91-4.102-4.144-2.978-.208-5.935 1.966-7.059 3.236.569-.191 2.511-.835 5.755-.835z" fill="#2F3A3E"/>
    <path d="M122.086 67.584c0 .539-.176.975-.496 1.337-.325.368-.81.672-1.442.912-1.268.481-3.05.676-5.057.676-2.007 0-3.788-.195-5.057-.676-.632-.24-1.117-.544-1.442-.912a1.945 1.945 0 01-.496-1.337c0-.537.176-.947.488-1.272.319-.334.799-.597 1.433-.796 1.272-.399 3.056-.508 5.074-.508s3.802.11 5.075.508c.633.199 1.113.462 1.433.796.312.325.487.735.487 1.272zM159.315 67.584c0 .539-.176.975-.496 1.337-.325.368-.81.672-1.442.912-1.268.481-3.05.676-5.057.676-2.007 0-3.788-.195-5.056-.676-.633-.24-1.118-.544-1.443-.912a1.944 1.944 0 01-.495-1.337c0-.537.175-.947.487-1.272.319-.334.8-.597 1.433-.796 1.272-.399 3.056-.508 5.074-.508 2.019 0 3.802.11 5.075.508.633.199 1.113.462 1.433.796.312.325.487.735.487 1.272z" fill="#FCC49A" stroke="#F99853" stroke-width=".629"/>
    <path d="M207.009 15.588l1.243 6.596 5.804 3.37-5.889 3.22-1.412 6.562-4.882-4.606-6.677.685 2.872-6.066-2.715-6.139 6.657.857 4.999-4.479zM32.579 147.586l.678 3.599 3.167 1.839-3.213 1.757-.77 3.58-2.664-2.513-3.643.374 1.566-3.31-1.48-3.349 3.631.467 2.728-2.444z" fill="#FE4B00"/>
    <path d="M275.763 96.273l.678 3.6 3.167 1.838-3.213 1.757-.771 3.58-2.664-2.512-3.643.373 1.567-3.31-1.481-3.349 3.632.467 2.728-2.444z" fill="#008FF7"/>
    <path d="M154.995 207.108c0-14.011-10.159-16.512-16.19-15.986 3.774 4.782 1.811 11.853-3.888 14.005l-6.566 2.479 26.644-.498z" fill="#fff"/>
    <path d="M174.253 128.785l-16.5 69.582h-45.701v7.384a3.144 3.144 0 003.144 3.145h158.152a3.145 3.145 0 003.063-2.436l17.577-75.954a3.773 3.773 0 00-3.676-4.624H177.924a3.774 3.774 0 00-3.671 2.903z" fill="#F99853"/>
    <path fill-rule="evenodd" clip-rule="evenodd" d="M209.436 158.254c0 .026-.086.048-.19.048-.105 0-.19.021-.19.047s-.033.047-.073.047c-.094 0-.402.305-.402.399 0 .04-.021.073-.047.073s-.048.042-.048.094-.021.094-.047.094c-.031 0-.048 1.227-.048 3.585 0 2.358-.016 3.585-.047 3.585-.028 0-.048.173-.048.424 0 .252-.019.425-.047.425-.026 0-.048.053-.048.119 0 .162-.381.541-.544.541-.066 0-.12.021-.12.047s-.064.047-.143.047c-.078 0-.142-.021-.142-.047s-.064-.047-.143-.047c-.078 0-.142-.021-.142-.047s-.043-.047-.095-.047c-.052 0-.095-.022-.095-.048 0-.025-.043-.047-.095-.047-.052 0-.095-.021-.095-.047s-.042-.047-.095-.047c-.052 0-.095-.021-.095-.047s-.042-.047-.095-.047c-.052 0-.095-.022-.095-.048 0-.025-.042-.047-.095-.047-.052 0-.094-.021-.094-.047 0-.027-.159-.047-.38-.047-.222 0-.38.02-.38.047 0 .026-.043.047-.095.047-.052 0-.095.022-.095.047 0 .026-.034.048-.075.048-.096 0-.21.113-.21.209 0 .04-.021.074-.047.074s-.048.042-.048.094-.021.094-.047.094-.048.064-.048.142c0 .078-.021.141-.047.141-.027 0-.048.142-.048.33 0 .189.021.331.048.331.026 0 .047.063.047.141 0 .078.022.142.048.142.026 0 .047.032.047.071 0 .094.499.589.593.589.039 0 .072.021.072.047s.043.047.095.047c.052 0 .095.022.095.047 0 .026.042.048.095.048.052 0 .095.021.095.047s.042.047.095.047c.052 0 .095.021.095.047s.085.047.189.047c.105 0 .19.022.19.047 0 .026.086.048.19.048.105 0 .19.021.19.047 0 .029.301.047.807.047.507 0 .807-.018.807-.047 0-.026.107-.047.238-.047.13 0 .237-.022.237-.048 0-.025.064-.047.143-.047.078 0 .142-.021.142-.047s.043-.047.095-.047c.052 0 .095-.021.095-.047s.043-.047.095-.047c.052 0 .095-.022.095-.048 0-.025.038-.047.084-.047.047 0 .116-.042.153-.094.038-.052.097-.094.131-.094.08 0 .486-.404.486-.484 0-.034.043-.092.095-.13.053-.037.095-.105.095-.151 0-.047.022-.084.048-.084.026 0 .047-.043.047-.095 0-.052.022-.094.048-.094.026 0 .047-.064.047-.142 0-.077.022-.141.048-.141.026 0 .047-.085.047-.189 0-.103.022-.188.048-.188.026 0 .047-.126.047-.283 0-.158.021-.283.048-.283.031 0 .047-1.4.047-4.104s-.016-4.103-.047-4.103c-.027 0-.048-.064-.048-.142 0-.078-.021-.141-.047-.141s-.048-.033-.048-.073c0-.095-.211-.305-.306-.305-.041 0-.074-.021-.074-.047s-.042-.047-.095-.047c-.052 0-.095-.021-.095-.047s-.085-.047-.189-.047c-.105 0-.19-.022-.19-.048 0-.025-.086-.047-.19-.047-.105 0-.19.022-.19.047zm6.077 2.83c0 .026-.107.048-.238.048-.13 0-.237.021-.237.047s-.064.047-.142.047c-.079 0-.143.021-.143.047s-.064.047-.142.047c-.079 0-.143.022-.143.047 0 .026-.042.048-.095.048-.052 0-.095.021-.095.047s-.038.047-.084.047c-.047 0-.115.042-.153.094-.038.052-.098.095-.134.095-.036 0-.125.063-.198.141-.073.078-.157.142-.187.142-.069 0-.478.406-.478.475 0 .029-.064.112-.142.185-.079.073-.143.161-.143.197 0 .036-.043.096-.095.133-.052.038-.095.106-.095.152s-.021.084-.047.084-.048.042-.048.094-.021.095-.047.095-.048.042-.048.094-.021.094-.047.094-.048.064-.048.142c0 .078-.021.141-.047.141s-.048.064-.048.142c0 .078-.021.141-.047.141s-.048.085-.048.189-.021.189-.047.189c-.028 0-.047.188-.047.471s-.019.472-.048.472c-.026 0-.047.085-.047.189 0 .103.021.188.047.188.028 0 .048.173.048.425 0 .251.019.424.047.424.026 0 .047.106.047.236s.022.236.048.236c.026 0 .047.064.047.141 0 .078.022.142.048.142.026 0 .047.064.047.141 0 .078.022.142.048.142.026 0 .047.042.047.094s.022.095.048.095c.026 0 .047.042.047.094s.022.094.048.094c.026 0 .047.038.047.084 0 .046.043.115.095.152.052.038.095.097.095.133 0 .036.064.125.143.197.078.073.142.156.142.185 0 .069.504.57.573.57.03 0 .113.064.187.141.073.078.167.142.209.142.041 0 .076.021.076.047s.042.047.094.047c.053 0 .095.022.095.047 0 .026.043.048.095.048.053 0 .095.021.095.047s.064.047.143.047c.078 0 .142.021.142.047s.064.047.143.047c.078 0 .142.022.142.047 0 .026.107.048.237.048.131 0 .238.021.238.047 0 .029.285.047.759.047.475 0 .76-.018.76-.047 0-.026.085-.047.19-.047.104 0 .19-.022.19-.048 0-.025.085-.047.19-.047.104 0 .19-.021.19-.047s.042-.047.095-.047c.052 0 .095-.021.095-.047s.042-.047.095-.047c.052 0 .094-.022.094-.048 0-.025.043-.047.095-.047.053 0 .095-.021.095-.047s.035-.047.076-.047c.042 0 .136-.064.209-.142.073-.077.157-.141.186-.141.074 0 .764-.693.764-.767 0-.034.042-.092.095-.129.052-.038.095-.106.095-.152s.021-.084.047-.084.048-.038.048-.084c0-.046.042-.114.095-.152a.26.26 0 00.095-.199c0-.072.021-.131.047-.131s.047-.043.047-.094c0-.052.022-.095.048-.095.026 0 .047-.063.047-.141 0-.078.022-.142.048-.142.026 0 .047-.085.047-.188 0-.104.022-.189.048-.189.026 0 .047-.126.047-.283 0-.157.021-.283.048-.283.029 0 .047-.267.047-.708 0-.44-.018-.707-.047-.707-.027 0-.048-.126-.048-.283 0-.157-.021-.283-.047-.283s-.048-.064-.048-.142c0-.077-.021-.141-.047-.141s-.048-.064-.048-.142c0-.077-.021-.141-.047-.141s-.048-.043-.048-.094c0-.052-.021-.095-.047-.095s-.047-.059-.047-.131a.26.26 0 00-.095-.199c-.053-.037-.095-.106-.095-.152s-.022-.084-.048-.084c-.026 0-.047-.038-.047-.084 0-.046-.043-.114-.095-.152-.053-.037-.095-.095-.095-.129 0-.079-.787-.861-.867-.861-.034 0-.093-.043-.13-.094-.038-.052-.107-.095-.153-.095-.047 0-.085-.021-.085-.047s-.042-.047-.095-.047c-.052 0-.095-.021-.095-.047s-.042-.047-.094-.047c-.053 0-.095-.022-.095-.048 0-.025-.065-.047-.143-.047-.078 0-.142-.021-.142-.047s-.064-.047-.143-.047c-.078 0-.142-.021-.142-.047s-.107-.047-.238-.047c-.13 0-.237-.022-.237-.048 0-.029-.269-.047-.712-.047-.443 0-.712.018-.712.047zm27.061 0c0 .026-.085.048-.19.048-.104 0-.19.021-.19.047s-.064.047-.142.047c-.078 0-.142.021-.142.047s-.043.047-.095.047c-.053 0-.095.022-.095.047 0 .026-.043.048-.095.048-.052 0-.095.021-.095.047s-.038.047-.085.047c-.046 0-.115.042-.153.094-.037.052-.096.095-.129.095-.08 0-.963.876-.963.955 0 .034-.042.092-.094.129-.053.038-.095.106-.095.152s-.022.084-.048.084c-.026 0-.047.043-.047.095 0 .051-.022.094-.048.094-.026 0-.047.042-.047.094s-.022.095-.048.095c-.026 0-.047.042-.047.094s-.022.094-.048.094c-.026 0-.047.064-.047.142 0 .078-.022.141-.048.141-.026 0-.047.064-.047.142 0 .078-.022.141-.048.141-.026 0-.047.085-.047.189s-.022.189-.048.189c-.027 0-.047.157-.047.377s-.02.377-.048.377-.047.173-.047.425c0 .251.019.424.047.424s.048.142.048.33c0 .189.02.331.047.331.026 0 .048.085.048.188 0 .104.021.189.047.189s.048.064.048.141c0 .078.021.142.047.142s.048.064.048.141c0 .078.021.142.047.142s.048.042.048.094.021.095.047.095.048.042.048.094.021.094.047.094.048.043.048.095c0 .051.021.094.047.094s.048.034.048.075c0 .042.064.135.142.208.078.073.142.156.142.185 0 .073.793.853.868.853.033 0 .092.042.129.094.038.052.107.094.153.094.047 0 .085.022.085.047 0 .026.043.048.095.048.052 0 .095.021.095.047s.042.047.095.047c.052 0 .095.021.095.047s.064.047.142.047c.078 0 .142.022.142.047 0 .026.086.048.19.048.105 0 .19.021.19.047 0 .029.253.047.665.047.411 0 .665-.018.665-.047 0-.026.085-.047.19-.047.104 0 .189-.022.189-.048 0-.025.043-.047.095-.047.053 0 .095-.021.095-.047s.043-.047.095-.047c.053 0 .095-.021.095-.047s.033-.047.074-.047c.041 0 .2-.128.354-.283.274-.278.427-.354.427-.212 0 .094.498.589.592.589.04 0 .072.021.072.047 0 .028.19.047.475.047s.475-.019.475-.047c0-.026.033-.047.072-.047.095 0 .498-.4.498-.494 0-.04.021-.072.047-.072s.048-.064.048-.142c0-.077.021-.141.047-.141.031 0 .048-1.195.048-3.49 0-2.296-.017-3.491-.048-3.491-.026 0-.047-.063-.047-.141 0-.078-.022-.142-.048-.142-.026 0-.047-.032-.047-.072 0-.121-.411-.494-.545-.494-.066 0-.12-.021-.12-.047 0-.028-.174-.047-.427-.047s-.428.019-.428.047c0 .026-.038.047-.084.047-.046 0-.115.043-.153.095-.038.051-.106.094-.153.094a.08.08 0 00-.084.084c0 .046-.043.114-.095.152-.052.037-.095.106-.095.152 0 .159-.149.082-.475-.247-.18-.181-.361-.33-.401-.33-.041 0-.074-.021-.074-.047s-.064-.047-.142-.047c-.078 0-.143-.021-.143-.047s-.085-.047-.189-.047c-.105 0-.19-.022-.19-.048 0-.029-.254-.047-.665-.047-.412 0-.665.018-.665.047zm-20.32.189c0 .026-.042.047-.095.047-.052 0-.094.022-.094.047 0 .026-.033.048-.073.048-.04 0-.147.073-.238.163-.09.09-.164.196-.164.236 0 .04-.022.072-.048.072-.028 0-.047.189-.047.472s.019.472.047.472c.026 0 .048.063.048.141 0 .078.021.142.047.142s.048.042.048.094.021.094.047.094.048.064.048.142c0 .078.021.141.047.141s.048.043.048.095c0 .051.021.094.047.094s.048.064.048.141c0 .078.021.142.047.142s.048.042.048.094.021.095.047.095.047.042.047.094.022.094.048.094c.026 0 .047.064.047.142 0 .078.022.141.048.141.026 0 .047.043.047.095 0 .051.022.094.048.094.026 0 .047.064.047.141 0 .078.022.142.048.142.026 0 .047.042.047.094s.022.095.048.095c.026 0 .047.063.047.141 0 .078.022.142.048.142.026 0 .047.042.047.094s.022.094.048.094c.026 0 .047.043.047.095 0 .051.022.094.048.094.026 0 .047.064.047.141 0 .078.021.142.048.142.026 0 .047.042.047.094s.021.095.048.095c.026 0 .047.063.047.141 0 .078.021.142.047.142.027 0 .048.042.048.094s.021.094.047.094c.027 0 .048.043.048.095 0 .051.021.094.047.094s.048.064.048.141c0 .078.021.142.047.142s.048.042.048.094.021.095.047.095.048.063.048.141c0 .078.021.142.047.142s.048.042.048.094.021.094.047.094.048.043.048.095c0 .051.021.094.047.094s.048.064.048.141c0 .078.021.142.047.142s.048.042.048.094.021.095.047.095.048.063.048.141c0 .078.021.142.047.142s.047.085.047.188c0 .104-.021.189-.047.189s-.047.042-.047.094-.022.095-.048.095c-.026 0-.047.042-.047.094s-.022.094-.048.094c-.026 0-.047.043-.047.095 0 .051-.022.094-.048.094-.026 0-.047.064-.047.141 0 .078-.022.142-.048.142-.026 0-.047.042-.047.094s-.022.095-.048.095c-.026 0-.047.042-.047.094s-.022.094-.048.094c-.026 0-.047.043-.047.095 0 .051-.022.094-.048.094-.026 0-.047.064-.047.141 0 .078-.022.142-.048.142-.026 0-.047.042-.047.094s-.021.095-.048.095c-.026 0-.047.063-.047.141 0 .078-.021.142-.048.142-.026 0-.047.042-.047.094s-.021.094-.047.094c-.027 0-.048.085-.048.189s-.021.189-.047.189c-.028 0-.048.157-.048.377s.02.377.048.377c.026 0 .047.043.047.095 0 .051.021.094.048.094.026 0 .047.033.047.073 0 .094.211.304.306.304.041 0 .074.021.074.047s.043.048.095.048c.052 0 .095.021.095.047 0 .028.19.047.474.047.285 0 .475-.019.475-.047 0-.026.033-.047.073-.047.094 0 .497-.401.497-.494 0-.04.021-.072.047-.072.027 0 .048-.043.048-.095 0-.052.021-.094.047-.094s.048-.043.048-.094c0-.052.021-.095.047-.095s.048-.042.048-.094.021-.094.047-.094.048-.043.048-.095c0-.052.021-.094.047-.094s.048-.064.048-.142c0-.077.021-.141.047-.141s.048-.043.048-.094c0-.052.021-.095.047-.095s.048-.042.048-.094.021-.094.047-.094.048-.064.048-.142c0-.078.021-.141.047-.141s.048-.043.048-.095c0-.052.021-.094.047-.094s.047-.043.047-.094c0-.052.022-.095.048-.095.026 0 .047-.063.047-.141 0-.078.022-.142.048-.142.026 0 .047-.042.047-.094s.022-.094.048-.094c.026 0 .047-.064.047-.142 0-.078.022-.141.048-.141.026 0 .047-.043.047-.095 0-.052.022-.094.048-.094.026 0 .047-.043.047-.094 0-.052.022-.095.048-.095.026 0 .047-.063.047-.141 0-.078.022-.142.048-.142.026 0 .047-.042.047-.094s.022-.094.048-.094c.026 0 .047-.043.047-.095 0-.052.021-.094.048-.094.026 0 .047-.064.047-.142 0-.077.021-.141.048-.141.026 0 .047-.043.047-.094 0-.052.021-.095.047-.095.027 0 .048-.042.048-.094s.021-.094.047-.094c.027 0 .048-.064.048-.142 0-.078.021-.141.047-.141.027 0 .048-.043.048-.095 0-.052.021-.094.047-.094s.048-.043.048-.094c0-.052.021-.095.047-.095s.048-.063.048-.141c0-.078.021-.142.047-.142s.048-.042.048-.094.021-.094.047-.094.048-.064.048-.142c0-.078.021-.141.047-.141s.048-.043.048-.095c0-.052.021-.094.047-.094s.048-.043.048-.094c0-.052.021-.095.047-.095s.048-.063.048-.141c0-.078.021-.142.047-.142s.047-.042.047-.094.022-.094.048-.094c.026 0 .047-.043.047-.095 0-.052.022-.094.048-.094.026 0 .047-.064.047-.142 0-.077.022-.141.048-.141.026 0 .047-.043.047-.094 0-.052.022-.095.048-.095.026 0 .047-.042.047-.094s.022-.094.048-.094c.026 0 .047-.064.047-.142 0-.078.022-.141.048-.141.026 0 .047-.043.047-.095 0-.052.022-.094.048-.094.026 0 .047-.043.047-.094 0-.052.022-.095.048-.095.026 0 .047-.063.047-.141 0-.078.021-.142.048-.142.026 0 .047-.042.047-.094s.021-.094.048-.094c.026 0 .047-.043.047-.095 0-.052.021-.094.047-.094.027 0 .048-.064.048-.142 0-.077.021-.141.047-.141.027 0 .048-.043.048-.094 0-.052.021-.095.047-.095.027 0 .048-.063.048-.141 0-.078.021-.142.047-.142s.048-.063.048-.141c0-.078.021-.142.047-.142s.048-.085.048-.188c0-.104.021-.189.047-.189s.048-.085.048-.189c0-.103-.022-.188-.048-.188-.026 0-.047-.085-.047-.189s-.022-.189-.048-.189c-.026 0-.047-.032-.047-.072 0-.094-.308-.399-.402-.399-.04 0-.073-.022-.073-.048 0-.025-.043-.047-.095-.047-.052 0-.095-.021-.095-.047 0-.028-.174-.047-.427-.047s-.427.019-.427.047c0 .026-.033.047-.073.047-.094 0-.592.495-.592.589 0 .039-.021.072-.048.072-.026 0-.047.042-.047.094s-.021.094-.048.094c-.026 0-.047.043-.047.095 0 .051-.021.094-.047.094-.027 0-.048.042-.048.094s-.021.095-.047.095c-.027 0-.048.063-.048.141 0 .078-.021.142-.047.142s-.048.042-.048.094-.021.094-.047.094-.048.064-.048.142c0 .078-.021.141-.047.141s-.048.043-.048.095c0 .051-.021.094-.047.094s-.048.064-.048.141c0 .078-.021.142-.047.142s-.048.042-.048.094-.021.095-.047.095-.048.063-.048.141c0 .078-.021.142-.047.142s-.048.042-.048.094-.021.094-.047.094-.048.064-.048.142c0 .078-.021.141-.047.141s-.047.043-.047.095c0 .051-.022.094-.048.094-.026 0-.047.064-.047.141 0 .078-.022.142-.048.142-.026 0-.047.042-.047.094s-.022.095-.048.095c-.026 0-.047.063-.047.141 0 .078-.022.142-.048.142-.026 0-.047.042-.047.094s-.022.094-.048.094c-.026 0-.047.043-.047.095 0 .051-.012.094-.027.094-.056 0-.163-.137-.163-.209 0-.041-.022-.074-.048-.074-.026 0-.047-.064-.047-.142 0-.077-.021-.141-.048-.141-.026 0-.047-.064-.047-.142 0-.077-.021-.141-.048-.141-.026 0-.047-.043-.047-.094 0-.052-.021-.095-.047-.095-.027 0-.048-.063-.048-.141 0-.078-.021-.142-.047-.142-.027 0-.048-.042-.048-.094s-.021-.094-.047-.094-.048-.064-.048-.142c0-.078-.021-.141-.047-.141s-.048-.064-.048-.142c0-.078-.021-.141-.047-.141s-.048-.043-.048-.095c0-.052-.021-.094-.047-.094s-.048-.064-.048-.142c0-.077-.021-.141-.047-.141s-.048-.064-.048-.142c0-.077-.021-.141-.047-.141s-.048-.043-.048-.094c0-.052-.021-.095-.047-.095s-.048-.063-.048-.141c0-.078-.021-.142-.047-.142s-.048-.042-.048-.094-.021-.094-.047-.094-.047-.064-.047-.142c0-.078-.022-.141-.048-.141-.026 0-.047-.059-.047-.131 0-.077-.04-.16-.095-.2-.053-.037-.095-.095-.095-.129 0-.086-.313-.389-.402-.389-.04 0-.073-.022-.073-.048 0-.025-.043-.047-.095-.047-.052 0-.095-.021-.095-.047 0-.028-.174-.047-.427-.047s-.428.019-.428.047zm-5.982 2.17c0 .026.127.047.285.047.159 0 .285.021.285.047s.038.047.085.047c.046 0 .115.043.153.095.037.051.096.094.13.094.081 0 .392.308.392.389 0 .034.042.092.095.13a.26.26 0 01.095.199c0 .072.021.131.047.131s.048.064.048.141c0 .078.021.142.047.142.03 0 .048.283.048.755 0 .471-.018.754-.048.754-.026 0-.047.064-.047.142 0 .078-.022.141-.048.141-.026 0-.047.043-.047.095 0 .051-.022.094-.048.094-.026 0-.047.042-.047.094s-.022.095-.048.095c-.026 0-.047.032-.047.072 0 .093-.403.494-.498.494-.039 0-.072.021-.072.047s-.043.047-.095.047c-.052 0-.095.021-.095.047s-.085.047-.19.047c-.104 0-.19.022-.19.047 0 .026-.085.048-.19.048-.104 0-.189-.022-.189-.048 0-.025-.107-.047-.238-.047-.13 0-.237-.021-.237-.047s-.038-.047-.085-.047c-.046 0-.115-.043-.153-.094-.037-.052-.096-.095-.131-.095-.081 0-.296-.213-.296-.294 0-.034-.043-.093-.095-.13-.052-.038-.095-.106-.095-.152s-.021-.084-.047-.084-.048-.064-.048-.142c0-.077-.021-.141-.047-.141s-.048-.064-.048-.142c0-.077-.021-.141-.047-.141-.03 0-.048-.252-.048-.66 0-.409.018-.661.048-.661.026 0 .047-.063.047-.141 0-.078.022-.142.048-.142.026 0 .047-.063.047-.141 0-.078.022-.142.048-.142.026 0 .047-.034.047-.075 0-.042.064-.135.143-.208.078-.072.142-.157.142-.187 0-.075.121-.19.2-.19.035 0 .095-.043.132-.094a.26.26 0 01.201-.095c.072 0 .132-.021.132-.047s.107-.047.237-.047c.131 0 .237-.021.237-.047s.022-.047.048-.047c.026 0 .047.021.047.047zm27.916.094c0 .026.043.047.095.047.053 0 .095.022.095.047 0 .026.033.048.073.048.088 0 .497.397.497.483 0 .034.043.092.095.13.056.04.095.122.095.199 0 .072.021.131.047.131.027 0 .048.064.048.141 0 .078.021.142.047.142.03 0 .048.283.048.755 0 .471-.018.754-.048.754-.026 0-.047.064-.047.142 0 .078-.021.141-.048.141-.026 0-.047.043-.047.095 0 .051-.021.094-.047.094-.027 0-.048.042-.048.094s-.021.095-.047.095c-.027 0-.048.032-.048.072 0 .093-.403.494-.497.494-.04 0-.073.021-.073.047s-.042.047-.095.047c-.052 0-.095.021-.095.047s-.085.047-.189.047c-.105 0-.19.022-.19.047 0 .026-.086.048-.19.048-.105 0-.19-.022-.19-.048 0-.025-.107-.047-.238-.047-.13 0-.237-.021-.237-.047s-.038-.047-.084-.047c-.047 0-.116-.043-.153-.094-.038-.052-.097-.095-.132-.095-.081 0-.296-.213-.296-.294 0-.034-.042-.093-.095-.13-.052-.038-.094-.106-.094-.152s-.022-.084-.048-.084c-.026 0-.047-.064-.047-.142 0-.077-.022-.141-.048-.141-.026 0-.047-.085-.047-.189 0-.103-.022-.188-.048-.188-.029 0-.047-.236-.047-.614 0-.377.018-.613.047-.613.026 0 .048-.063.048-.141 0-.078.021-.142.047-.142s.048-.063.048-.141c0-.078.021-.142.047-.142s.048-.034.048-.075c0-.042.064-.135.142-.208.078-.072.142-.166.142-.207 0-.042.035-.076.076-.076.042 0 .136-.063.209-.141.082-.087.181-.142.257-.142.068 0 .123-.021.123-.047 0-.029.222-.047.57-.047s.569.018.569.047zM233.696 165.424c-.095-.488-.152-1.547.38-1.887.665-.424 2.089-.66 2.991-1.415.902-.755 1.139-1.509.712-1.934-.427-.424-1.661.095-2.279.944-.617.849-1.519 2.075-1.851 2.452-.333.378-.333.283-.38.236-.048-.047-.19-.566.095-1.038.285-.471.142-.754-.095-.849-.237-.094-.665.283-.57.849.095.566.19.566.095.708-.095.141-.38-.377-.38-.755 0-1.745.95-2.924.855-4.15 0-.629-.332-1.887-1.662-1.887-1.661 0-1.566 1.745-1.566 2.122 0 1.132 1.851 2.783 1.994 4.34.11.66.208 2.405-.285 4.103-.617 2.123-1.072 3.349-.95 4.198.122.849 1.709 3.113 2.754.094.095-.408.228-1.424 0-2.216-.285-.991-.855-1.227-.57-1.84.285-.613.712-.472 1.187 0 .475.472 1.187 1.981 2.089 2.5.902.519 1.519.66 1.804.33.285-.33.237-1.179-.522-1.604-.76-.424-1.472-.377-2.516-1.084-.836-.566-1.235-1.714-1.33-2.217zm-1.234-7.641c-.19-.491-.681-.613-.902-.613-.032.015-.029.103.237.33.333.283.617.943.665 1.085a.868.868 0 00.19.283c.016-.158 0-.595-.19-1.085zm4.13 2.641c-.342.113-.522.487-.569.66.031.032.114.057.189-.094.095-.189.618-.377.855-.424.237-.048.522-.142.38-.189-.143-.047-.427-.094-.855.047zm1.092 8.915c-.19-.302-.585-.378-.759-.378-.143.047-.048.095 0 .095.047 0 .427.188.569.566.114.301.333.408.428.424 0-.11-.048-.406-.238-.707z" fill="#fff"/>
    <path d="M238.159 159.952c-.047-.11-.038-.452.38-.943.522-.613.902-.377.997-.189.095.189.095.755-.333.944-.427.188-.664.471-1.044.188z" fill="#fff"/>
    <path d="M8.001 102.79l1.24-1.25 1.047-1.055a2.37 2.37 0 011.672-.7l27.93-.116 27.932-.115a2.369 2.369 0 011.678.687l1.152 1.143 1.153 1.143a2.37 2.37 0 01.7 1.673l.133 32.021a2.367 2.367 0 01-.687 1.677l-1.08 1.09-1.08 1.089a2.366 2.366 0 01-1.673.7l-28.057.116-28.058.116a2.373 2.373 0 01-1.678-.687l-.927-.92-1.25-1.241a2.366 2.366 0 01-.702-1.672l-.132-32.021a2.371 2.371 0 01.687-1.678z" fill="#FCC49A"/>
    <path d="M38.422 127.563l-7.252-6.468L9.242 101.54l1.046-1.055a2.37 2.37 0 011.672-.7l27.93-.116 27.932-.115a2.369 2.369 0 011.678.687l1.152 1.143-21.864 19.638-7.198 6.528a2.37 2.37 0 01-3.168.013z" fill="#F99853"/>
    <path d="M222.953 72.75l.723-.728.58-.586a2.37 2.37 0 011.672-.7l20.184-.084 20.184-.083a2.37 2.37 0 011.678.687l.657.652.657.652c.446.442.698 1.044.701 1.672l.094 22.915a2.365 2.365 0 01-.687 1.678l-.605.61-.606.611a2.37 2.37 0 01-1.672.701l-20.277.083-20.276.084a2.374 2.374 0 01-1.678-.687l-.492-.488-.729-.723a2.371 2.371 0 01-.701-1.672l-.094-22.915a2.365 2.365 0 01.687-1.678z" fill="#FCC49A"/>
    <path d="M244.611 90.692l-4.883-4.355-16.052-14.315.58-.586a2.37 2.37 0 011.672-.7l20.184-.084 20.184-.083a2.37 2.37 0 011.678.687l.657.652-16.005 14.376-4.847 4.395a2.37 2.37 0 01-3.168.013z" fill="#F99853"/>
    <circle cx="68.511" cy="34.893" r="3.412" fill="#FE4B00"/>
    <path d="M59.94 2.99L67.521.498l3.9 1.842-.59 25.35-2.01 1.083-3.466-1.084-5.417-24.7z" fill="#FE4B00"/>
    <circle cx="57.265" cy="41.902" r="3.412" transform="rotate(-22.575 57.265 41.902)" fill="#2F3A3E"/>
    <path d="M37.103 15.733l6.046-5.212 4.308.204 9.186 23.634-1.44 1.771-3.616.33-14.484-20.727z" fill="#2F3A3E"/>
    <circle cx="45.09" cy="52.19" r="2.732" transform="rotate(-39.754 45.09 52.19)" fill="#008FF7"/>
    <path d="M23.483 36.944l3.391-5.416 3.343-.863L42.83 46.568l-.682 1.696-2.688 1.107-15.977-12.427z" fill="#008FF7"/>
</svg>
