<svg width="37" height="36" fill="none" xmlns="http://www.w3.org/2000/svg">
    <rect width="37" height="36" rx="18" fill="#fff"/>
    <path fill-rule="evenodd" clip-rule="evenodd" d="M27.141 10.725a2.764 2.764 0 011.953 1.957c.464 1.73.478 5.318.478 5.318s0 3.602-.464 5.318c-.253.95-1.138 1.73-2.093 1.986-1.729.453-8.515.425-8.515.425s-6.787.043-8.515-.425c-.941-.256-1.868-1.036-2.121-1.986C7.4 21.588 7.442 18 7.442 18s-.042-3.588.422-5.318c.253-.95 1.166-1.73 2.121-1.986 1.729-.454 8.515-.425 8.515-.425s6.913 0 8.641.454zM21.901 18l-5.523 3.432v-6.864L21.9 18z" fill="#4A4545"/>
</svg>
